<?xml version="1.0" encoding="UTF-8" standalone="no"?>
<!DOCTYPE svg PUBLIC "-//W3C//DTD SVG 1.1//EN" "http://www.w3.org/Graphics/SVG/1.1/DTD/svg11.dtd">
<svg width="100%" height="100%" viewBox="0 0 2734 1924" version="1.1" xmlns="http://www.w3.org/2000/svg" xmlns:xlink="http://www.w3.org/1999/xlink" xml:space="preserve" xmlns:serif="http://www.serif.com/" style="fill-rule:evenodd;clip-rule:evenodd;stroke-linejoin:round;stroke-miterlimit:2;">
    <g transform="matrix(1,0,0,1,-2535,-556)">
        <g transform="matrix(4.16667,0,0,4.16667,-65.1929,0)">
            <path d="M924.485,491.952L1132.23,491.952L1132.23,487.952L924.485,487.952" style="fill:rgb(240,76,88);fill-rule:nonzero;"/>
            <g>
                <clipPath id="_clip1">
                    <path d="M1089.01,354.373C1089.01,413.94 1040.72,462.231 981.155,462.231C921.588,462.231 873.299,413.94 873.299,354.373C873.299,294.806 921.588,246.516 981.155,246.516C1040.72,246.516 1089.01,294.806 1089.01,354.373Z"/>
                </clipPath>
                <g clip-path="url(#_clip1)">
                    <path d="M894.697,302.496L891.974,297.779L909.552,280.201C909.655,280.995 910.091,281.455 910.88,281.562C910.88,280.422 912.231,280.633 912.161,279.427C911.851,279.125 911.353,279.011 910.771,278.982L915.336,274.417L918.059,279.134L894.697,302.496ZM900.798,291.318C899.868,291.318 899.316,291.699 898.497,291.81C898.925,294.167 897.684,295.653 900.151,295.653L900.205,295.653C899.732,293.328 900.926,292.671 901.488,291.383C901.234,291.337 901.007,291.318 900.798,291.318Z" style="fill:rgb(37,41,55);fill-rule:nonzero;"/>
                    <path d="M906.252,322.509L903.528,317.792L926.89,294.43L929.614,299.147L906.252,322.509Z" style="fill:rgb(37,41,55);fill-rule:nonzero;"/>
                    <path d="M917.807,342.523L915.083,337.805L938.445,314.443L941.169,319.161L929.082,331.248C928.631,331.099 928.068,331.062 927.469,331.062C927.183,331.062 926.889,331.07 926.595,331.079C926.3,331.087 926.005,331.095 925.718,331.095C925.611,331.095 925.505,331.094 925.4,331.091C925.409,332.098 924.663,332.349 924.973,333.653C925.346,334.019 925.671,334.245 925.962,334.367L917.807,342.523ZM989.401,270.928L999.565,253.324L1003.96,248.931C1005.97,249.364 1007.96,249.854 1009.93,250.398L989.401,270.928Z" style="fill:rgb(37,41,55);fill-rule:nonzero;"/>
                    <path d="M929.361,362.535L926.638,357.819L950,334.457L951.361,336.815L956.442,328.015L996.05,288.407C996.159,288.618 996.289,288.755 996.413,288.755C996.522,288.755 996.627,288.649 996.711,288.394C996.45,288.31 996.329,288.231 996.302,288.155L996.621,287.836C997.01,287.634 997.603,287.414 997.565,287.113C997.506,287.099 997.449,287.082 997.396,287.061L1027.5,256.954C1029.17,257.749 1030.81,258.586 1032.43,259.462L929.361,362.535ZM1010.81,278.573C1011.23,278.573 1011.31,278.918 1011.66,279C1011.66,278.571 1012,278.491 1012.08,278.146C1011.66,278.146 1011.57,277.801 1011.23,277.719C1011.23,278.149 1010.88,278.226 1010.8,278.573L1010.81,278.573Z" style="fill:rgb(37,41,55);fill-rule:nonzero;"/>
                    <path d="M953.464,370L946.025,370L960.28,355.745C960.33,355.776 960.376,355.813 960.414,355.857C960.439,355.75 960.457,355.649 960.469,355.555L1047.05,268.977C1048.44,270.054 1049.81,271.169 1051.15,272.312L953.464,370ZM959.56,357.99C959.439,358.9 959.647,359.205 959.88,359.205C960.31,359.205 960.829,358.175 959.56,357.99ZM962.041,354.514C961.874,354.514 961.72,354.638 961.695,355.001C961.896,355.047 962.053,355.067 962.172,355.067C962.49,355.067 962.545,354.929 962.477,354.791C962.409,354.653 962.218,354.514 962.041,354.514ZM996.711,322.979C996.64,323.836 996.997,324.269 997.782,324.269C997.849,324.269 997.919,324.266 997.992,324.259L997.992,322.979L996.711,322.979Z" style="fill:rgb(37,41,55);fill-rule:nonzero;"/>
                    <path d="M915.263,439.769C914.019,438.807 912.791,437.815 911.591,436.801C911.647,436.663 911.627,436.526 911.379,436.213L912.795,434.797C912.908,434.811 913.02,434.827 913.129,434.844C913.406,434.885 913.669,434.926 913.911,434.926C914.505,434.926 914.964,434.677 915.152,433.563C914.744,433.613 914.32,433.649 913.902,433.69L914.592,433L922.032,433L915.263,439.769ZM985.032,370L977.592,370L1063.22,284.376C1064.36,285.714 1065.47,287.087 1066.55,288.481L1050.78,304.249C1050.73,304.245 1050.68,304.243 1050.63,304.243C1049.2,304.243 1047.89,305.808 1047.76,307.27L1001.45,353.578C1001.07,353.368 1000.63,353.221 1000.04,353.221C999.807,353.221 999.553,353.243 999.272,353.293C998.604,354.108 998.159,355.666 998.324,356.708L985.032,370Z" style="fill:rgb(37,41,55);fill-rule:nonzero;"/>
                    <path d="M934.808,451.792C933.14,450.998 931.495,450.161 929.876,449.284L946.16,433L953.6,433L934.808,451.792ZM1016.6,370L1009.16,370L1036.34,342.818C1036.68,342.978 1037.05,343.098 1037.55,343.098C1037.72,343.098 1037.92,343.082 1038.13,343.047C1038.23,342.277 1038.29,341.469 1038.44,340.715L1041.64,337.525C1041.83,337.505 1042.04,337.495 1042.26,337.495C1042.31,337.495 1042.35,337.496 1042.4,337.497C1042.32,337.325 1042.24,337.164 1042.15,337.014L1076.07,303.094C1076.94,304.713 1077.78,306.358 1078.57,308.026L1025.55,361.054C1025.16,361.046 1024.88,360.924 1024.61,360.803C1024.33,360.677 1024.04,360.552 1023.63,360.552L1023.61,360.552C1022.93,361.065 1022.41,362.645 1022.95,363.648L1016.6,370Z" style="fill:rgb(37,41,55);fill-rule:nonzero;"/>
                    <path d="M958.352,459.815C956.34,459.382 954.348,458.893 952.379,458.349L969.206,441.522C969.473,441.716 969.807,441.829 970.212,441.829C970.475,441.829 970.767,441.781 971.091,441.677C970.587,441.501 970.279,441.13 970.081,440.647L977.728,433L985.168,433L959.93,458.238C959.847,457.943 959.718,457.694 959.56,457.475L958.279,457.475C958.377,458.282 957.8,458.416 957.852,459.183C958.071,459.341 958.32,459.469 958.616,459.552L958.352,459.815ZM1048.17,370L1040.73,370L1085.13,325.597C1085.67,327.565 1086.16,329.558 1086.6,331.57L1048.17,370ZM1067.13,348.98C1067.12,348.98 1067.16,349.014 1067.19,349.048C1067.23,349.082 1067.26,349.116 1067.26,349.116C1067.26,349.116 1067.24,349.092 1067.17,349.023C1067.14,348.992 1067.13,348.98 1067.13,348.98Z" style="fill:rgb(37,41,55);fill-rule:nonzero;"/>
                    <path d="M981.155,462.231C980.792,462.231 980.433,462.229 980.071,462.225L1009.3,433L1016.74,433L1000.68,449.059C1000.74,448.643 1000.29,448.425 999.886,448.425C999.529,448.425 999.202,448.591 999.272,448.937C999.536,448.959 999.777,449.001 999.7,449.362L1000.37,449.362L987.701,462.035C985.534,462.165 983.355,462.231 981.155,462.231ZM986.463,458.329C986.871,459.125 985.182,459.758 986.463,460.04C985.834,458.414 988.37,459.955 987.744,458.329L986.463,458.329ZM990.064,455.258C989.708,455.258 989.382,455.424 989.452,455.77C989.712,455.793 989.956,455.831 989.879,456.196L990.733,456.196C991.12,455.583 990.562,455.258 990.064,455.258ZM1002.69,445.093C1002.19,445.158 1001.48,445.022 1001.41,445.52C1001.97,445.525 1001.8,446.271 1002.26,446.373C1002.29,445.829 1002.81,445.782 1002.69,445.093ZM1079.74,370L1072.3,370L1089.01,353.289L1089.01,354.373C1089.01,356.573 1088.95,358.752 1088.82,360.919L1079.74,370Z" style="fill:rgb(37,41,55);fill-rule:nonzero;"/>
                    <path d="M1018.14,455.721L1040.86,433L1048.3,433L1031.54,449.762C1027.24,452.039 1022.77,454.034 1018.14,455.721Z" style="fill:rgb(37,41,55);fill-rule:nonzero;"/>
                </g>
            </g>
            <path d="M699.511,401.479L643.564,401.479L797.704,134.5L891.974,297.779L885.768,303.985C883.491,308.287 881.496,312.763 879.808,317.385L894.697,302.496L903.528,317.792L873.494,347.826C873.364,349.993 873.299,352.173 873.299,354.373C873.299,354.733 873.301,355.097 873.304,355.456L906.252,322.509L915.083,337.805L882.889,370L715,370L699.511,401.479ZM848.03,367.323C847.863,367.323 847.709,367.446 847.685,367.811C847.884,367.856 848.04,367.876 848.159,367.876C848.478,367.876 848.534,367.737 848.466,367.599C848.399,367.461 848.207,367.323 848.03,367.323ZM770.238,357.503C770.068,357.503 769.834,357.632 769.541,357.99C769.821,358.243 770.041,358.337 770.204,358.337C770.446,358.337 770.563,358.129 770.565,357.92C770.567,357.712 770.455,357.503 770.238,357.503ZM767.103,351.278C766.981,351.278 766.828,351.356 766.553,351.587C766.383,352.408 766.894,352.819 767.405,352.819C767.916,352.819 768.427,352.408 768.259,351.587C768.231,351.588 768.204,351.589 768.178,351.589C767.82,351.589 767.613,351.511 767.464,351.433C767.315,351.356 767.225,351.278 767.103,351.278ZM787.708,349.024C787.072,349.024 786.374,349.321 785.768,349.45C785.402,351.524 786.759,351.874 787.901,352.441C788.122,351.334 788.088,350.852 788.757,349.45C788.452,349.132 788.091,349.024 787.708,349.024ZM756.925,346.872C756.866,346.872 756.801,346.877 756.73,346.89C756.343,347.502 756.901,347.827 757.4,347.827C757.756,347.827 758.082,347.661 758.012,347.317C757.522,347.294 757.434,346.872 756.925,346.872ZM887.336,344.225C885.699,344.225 884.041,347.189 886.968,347.317C887.322,346.388 888.58,346.365 888.677,345.18C888.314,344.491 887.826,344.225 887.336,344.225ZM866.948,346.015C866.729,346.015 866.674,346.223 866.732,346.43C866.79,346.638 866.96,346.846 867.191,346.846C867.354,346.846 867.548,346.743 867.753,346.463C867.375,346.134 867.115,346.015 866.948,346.015ZM842.591,336.972C842.113,336.972 841.644,337.161 841.704,337.497C842.192,337.611 842.438,337.964 843.038,337.964C843.15,337.964 843.274,337.952 843.414,337.923C843.792,337.263 843.185,336.972 842.591,336.972ZM883.125,335.788L883.125,336.64L883.98,336.64L883.98,335.788L883.125,335.788ZM740.127,335.768C739.907,335.768 739.852,335.976 739.91,336.184C739.967,336.391 740.138,336.599 740.369,336.599C740.532,336.599 740.725,336.496 740.931,336.215C740.553,335.887 740.293,335.768 740.127,335.768ZM786.356,331.87C786.185,331.87 785.992,331.892 785.768,331.945C785.159,332.516 785.159,334.364 785.768,334.934C785.859,334.942 785.946,334.946 786.029,334.946C787.653,334.946 787.845,333.513 788.327,332.373L788.31,332.373C787.9,332.373 787.616,332.247 787.332,332.121C787.049,331.996 786.765,331.87 786.356,331.87ZM734.427,329.344C734.326,329.344 734.216,329.356 734.097,329.383C733.18,330.296 733.939,331.709 734.952,331.945C735.561,331.341 735.694,329.344 734.427,329.344ZM863.304,328.088C863.226,328.088 863.144,328.093 863.056,328.103C862.944,329.131 863.174,329.824 864.093,329.824C864.169,329.824 864.25,329.82 864.336,329.81C864.448,328.781 864.221,328.088 863.304,328.088ZM801.053,323.677C799.906,323.677 799.107,325.001 798.965,326.326C798.823,327.65 799.336,328.974 800.814,328.974C800.918,328.974 801.027,328.968 801.141,328.954C800.793,326.617 802.565,326.396 802.42,324.259C801.929,323.851 801.468,323.677 801.053,323.677ZM747.343,324.237C747.216,324.237 747.064,324.356 746.908,324.684C747.181,324.97 747.373,325.076 747.499,325.076C747.676,325.076 747.721,324.866 747.681,324.656C747.64,324.447 747.513,324.237 747.343,324.237ZM725.05,322.491C724.883,322.491 724.729,322.614 724.705,322.979C724.905,323.024 725.06,323.044 725.179,323.044C725.497,323.044 725.553,322.905 725.486,322.767C725.418,322.629 725.227,322.491 725.05,322.491ZM843.142,314.56C840.33,314.56 838.341,320.353 843.414,320.843C842.388,317.976 844.325,317.747 845.547,316.146C844.771,315.009 843.924,314.56 843.142,314.56ZM884.407,314.865C884.551,315.863 884.844,316.705 885.689,317C885.335,315.794 886.29,315.895 886.115,314.865L884.407,314.865ZM828.357,308.639C827.055,308.639 826.522,310.24 827.187,311.877C828.545,311.524 828.77,310.044 829.322,308.888C828.966,308.717 828.643,308.639 828.357,308.639ZM854.165,302.596C850.725,302.596 850.107,310.516 855.37,310.596C854.443,307.661 855.446,305.659 856.65,303.766C855.718,302.938 854.88,302.596 854.165,302.596ZM892.012,308.828C891.844,308.828 891.69,308.952 891.665,309.317C891.865,309.363 892.02,309.382 892.139,309.382C892.458,309.382 892.515,309.244 892.447,309.105C892.38,308.967 892.189,308.828 892.012,308.828ZM805.189,307.597C805.123,307.597 805.055,307.6 804.983,307.606C804.775,308.508 805.018,308.96 805.711,308.96C805.871,308.96 806.055,308.936 806.264,308.888C806.334,308.028 805.975,307.597 805.189,307.597ZM795.458,301.764C794.23,301.764 793.431,302.862 793.221,303.959C793.011,305.057 793.391,306.155 794.521,306.155C794.822,306.156 795.176,306.078 795.587,305.901C793.818,304.101 797.058,303.691 797.298,302.483C796.612,301.973 795.994,301.764 795.458,301.764ZM772.528,298.639C772.149,299.4 771.337,299.726 771.676,301.204C772.01,301.376 772.315,301.459 772.583,301.459C773.46,301.459 773.952,300.58 773.811,299.067C773.787,299.068 773.764,299.068 773.742,299.068C773.194,299.068 772.857,298.858 772.528,298.639ZM800.721,299.474C800.593,299.474 800.442,299.594 800.285,299.923C800.558,300.208 800.749,300.313 800.875,300.313C801.052,300.313 801.098,300.103 801.058,299.894C801.017,299.684 800.89,299.474 800.721,299.474ZM817.598,295.575C817.256,295.575 816.981,295.703 816.939,296.08C817.344,296.263 817.62,297.84 818.13,297.84C818.279,297.84 818.448,297.705 818.646,297.361C817.41,297.122 819.301,296.695 819.072,296.08C818.91,295.926 818.163,295.575 817.598,295.575ZM797.298,294.796L797.298,295.653L798.15,295.653L798.15,294.796L797.298,294.796ZM768.791,293.555C768.775,293.555 768.855,293.658 769.112,293.945C769.375,294.18 769.483,294.267 769.499,294.267C769.523,294.267 769.356,294.089 769.179,293.911C769.001,293.733 768.813,293.555 768.791,293.555ZM762.708,286.259C762.717,287.263 761.972,287.514 762.28,288.821C763.077,289.04 763.421,289.708 764.435,289.708C764.56,289.708 764.695,289.698 764.843,289.675C764.542,287.58 766.801,288.049 765.697,286.259L762.708,286.259ZM819.879,284.098C819.619,284.098 819.347,284.109 819.072,284.124C818.317,284.837 819.453,285.553 819.072,287.113L821.209,287.113C820.901,285.809 821.645,285.557 821.636,284.551C821.263,284.189 820.617,284.098 819.879,284.098ZM871.178,277.698C871.05,277.698 870.899,277.817 870.743,278.146C871.016,278.431 871.207,278.536 871.332,278.536C871.509,278.536 871.555,278.327 871.514,278.117C871.474,277.908 871.346,277.698 871.178,277.698ZM781.623,268.445C780.971,268.445 780.316,268.888 780.215,270.033C780.908,270.189 780.982,270.966 781.83,270.966C781.978,270.966 782.149,270.942 782.352,270.887C783.758,269.641 782.694,268.445 781.623,268.445ZM865.069,265.229C864.48,265.229 863.875,265.438 863.91,265.763C864.3,266.046 864.785,266.233 865.459,266.233C865.64,266.233 865.835,266.219 866.045,266.19C866.396,265.503 865.743,265.229 865.069,265.229ZM814.907,260.764C814.15,260.764 813.589,261.238 813.523,262.347C813.816,262.625 814.173,262.751 814.527,262.751C815.351,262.751 816.156,262.071 816.084,261.066C815.669,260.87 815.266,260.764 814.907,260.764ZM736.58,256.31C736.413,256.31 736.259,256.433 736.234,256.796C736.435,256.843 736.591,256.862 736.71,256.862C737.027,256.862 737.083,256.724 737.015,256.586C736.947,256.448 736.756,256.31 736.58,256.31ZM746.054,254.237L746.054,255.091L746.908,255.091L746.908,254.237L746.054,254.237ZM769.541,238.011C768.205,239.789 767.058,241.912 770.395,242.281C770.726,241.267 770.93,240.131 772.272,240.131C772.353,240.131 772.438,240.135 772.528,240.144C772.517,238.449 770.868,238.393 769.541,238.011ZM838.067,237.148C838.001,237.148 837.933,237.151 837.861,237.157C837.654,238.059 837.896,238.509 838.591,238.509C838.751,238.509 838.935,238.485 839.144,238.437C839.215,237.576 838.857,237.148 838.067,237.148ZM798.165,233.353C796.906,233.353 795.697,234.07 795.587,235.449C796.052,235.769 796.555,235.901 797.055,235.901C798.39,235.901 799.71,234.963 800.285,234.168C799.719,233.62 798.933,233.353 798.165,233.353ZM813.523,228.19C812.623,228.954 811.719,232.891 814.626,232.891C814.684,232.891 814.743,232.89 814.804,232.887C814.677,231.225 815.909,229.511 814.804,228.19L813.523,228.19ZM751.884,223.513C750.574,223.513 749.238,224.423 749.471,226.055C749.909,226.477 750.556,226.691 751.214,226.692C752.461,226.692 753.749,225.924 753.739,224.347C753.299,223.781 752.595,223.513 751.884,223.513ZM759.312,221.287C758.916,221.287 758.555,221.441 758.438,221.785C759.131,221.941 759.204,222.717 760.053,222.717C760.2,222.717 760.371,222.693 760.572,222.639C760.903,221.815 760.046,221.287 759.312,221.287ZM810.158,220.039C810.011,220.039 809.852,220.052 809.68,220.077C809.731,221.166 810.301,221.733 811.387,221.785C811.559,220.621 811.15,220.039 810.158,220.039ZM933.671,370L927.69,370C927.341,369.577 927.041,369.435 926.759,369.435C926.47,369.435 926.2,369.585 925.917,369.734C925.716,369.841 925.508,369.947 925.282,370L924.719,370C924.662,369.986 924.605,369.968 924.546,369.945C924.55,369.964 924.555,369.982 924.559,370L924.033,370C923.736,368.233 925.448,368.476 925.827,367.384C925.552,367.121 925.274,366.964 925.004,366.892L929.361,362.535L933.671,370ZM923.267,370L921.896,370L922.827,369.069C922.852,369.425 922.988,369.756 923.267,370ZM914.457,370L890.329,370L917.807,342.523L926.638,357.819L922.955,361.502C922.747,361.572 922.572,361.726 922.477,361.98L914.457,370ZM911.267,363.926C911.267,363.926 911.278,363.938 911.31,363.97C911.378,364.037 911.402,364.061 911.402,364.061C911.402,364.061 911.369,364.027 911.335,363.993C911.301,363.96 911.267,363.926 911.267,363.926ZM923.266,358.417C922.594,358.459 921.782,358.358 921.984,359.27C922.008,359.271 922.031,359.272 922.054,359.272C922.742,359.272 923.083,358.925 923.266,358.417Z" style="fill:rgb(250,235,22);fill-rule:nonzero;"/>
            <path d="M879.808,317.385C881.496,312.763 883.491,308.287 885.768,303.985L891.974,297.779L894.697,302.496L879.808,317.385Z" style="fill:rgb(39,40,19);fill-rule:nonzero;"/>
            <path d="M873.304,355.456C873.301,355.097 873.299,354.733 873.299,354.373C873.299,352.173 873.364,349.993 873.494,347.826L903.528,317.792L906.252,322.509L873.304,355.456Z" style="fill:rgb(39,40,19);fill-rule:nonzero;"/>
            <path d="M890.329,370L882.889,370L915.083,337.805L917.807,342.523L890.329,370Z" style="fill:rgb(39,40,19);fill-rule:nonzero;"/>
            <path d="M921.896,370L914.457,370L922.477,361.98C922.446,362.063 922.424,362.156 922.411,362.26C922.656,362.499 922.985,362.637 923.289,362.637C923.691,362.637 924.05,362.397 924.117,361.833C923.873,361.595 923.545,361.457 923.24,361.457C923.141,361.457 923.045,361.472 922.955,361.502L926.638,357.819L929.361,362.535L925.004,366.892C924.882,366.859 924.762,366.844 924.644,366.844C923.596,366.844 922.758,368.057 922.827,369.069L921.896,370Z" style="fill:rgb(39,40,19);fill-rule:nonzero;"/>
            <path d="M927.69,370L925.282,370C925.508,369.947 925.716,369.841 925.917,369.734C926.2,369.585 926.47,369.435 926.759,369.435C927.041,369.435 927.341,369.577 927.69,370ZM924.719,370L924.559,370C924.555,369.982 924.55,369.964 924.546,369.945C924.605,369.968 924.662,369.986 924.719,370ZM924.033,370L923.267,370C922.988,369.756 922.852,369.425 922.827,369.069C922.758,368.057 923.596,366.844 924.644,366.844C924.762,366.844 924.882,366.859 925.004,366.892C925.274,366.964 925.552,367.121 925.827,367.384C925.448,368.476 923.736,368.233 924.033,370ZM848.159,367.876C848.04,367.876 847.884,367.856 847.685,367.811C847.709,367.446 847.863,367.323 848.03,367.323C848.207,367.323 848.399,367.461 848.466,367.599C848.534,367.737 848.478,367.876 848.159,367.876ZM911.402,364.061C911.402,364.061 911.378,364.037 911.31,363.97C911.278,363.938 911.267,363.926 911.267,363.926C911.267,363.926 911.301,363.96 911.335,363.993C911.369,364.027 911.402,364.061 911.402,364.061ZM923.289,362.637C922.985,362.637 922.656,362.499 922.411,362.26C922.424,362.156 922.446,362.063 922.477,361.98C922.572,361.726 922.747,361.572 922.955,361.502C923.045,361.472 923.141,361.457 923.24,361.457C923.545,361.457 923.873,361.595 924.117,361.833C924.05,362.397 923.691,362.637 923.289,362.637ZM922.054,359.272C922.031,359.272 922.008,359.271 921.984,359.27C921.782,358.358 922.594,358.459 923.266,358.417C923.083,358.925 922.742,359.272 922.054,359.272ZM770.204,358.337C770.041,358.337 769.821,358.243 769.541,357.99C769.834,357.632 770.068,357.503 770.238,357.503C770.455,357.503 770.567,357.712 770.565,357.92C770.563,358.129 770.446,358.337 770.204,358.337ZM767.405,352.819C766.894,352.819 766.383,352.408 766.553,351.587C766.828,351.356 766.981,351.278 767.103,351.278C767.225,351.278 767.315,351.356 767.464,351.433C767.613,351.511 767.82,351.589 768.178,351.589C768.204,351.589 768.231,351.588 768.259,351.587C768.427,352.408 767.916,352.819 767.405,352.819ZM787.901,352.441C786.759,351.874 785.402,351.524 785.768,349.45C786.374,349.321 787.072,349.024 787.708,349.024C788.091,349.024 788.452,349.132 788.757,349.45C788.088,350.852 788.122,351.334 787.901,352.441ZM757.4,347.827C756.901,347.827 756.343,347.502 756.73,346.89C756.801,346.877 756.866,346.872 756.925,346.872C757.434,346.872 757.522,347.294 758.012,347.317C758.082,347.661 757.756,347.827 757.4,347.827ZM886.968,347.317C884.041,347.189 885.699,344.225 887.336,344.225C887.826,344.225 888.314,344.491 888.677,345.18C888.58,346.365 887.322,346.388 886.968,347.317ZM867.191,346.846C866.96,346.846 866.79,346.638 866.732,346.43C866.674,346.223 866.729,346.015 866.948,346.015C867.115,346.015 867.375,346.134 867.753,346.463C867.548,346.743 867.354,346.846 867.191,346.846ZM843.038,337.964C842.438,337.964 842.192,337.611 841.704,337.497C841.644,337.161 842.113,336.972 842.591,336.972C843.185,336.972 843.792,337.263 843.414,337.923C843.274,337.952 843.15,337.964 843.038,337.964ZM883.98,336.64L883.125,336.64L883.125,335.788L883.98,335.788L883.98,336.64ZM740.369,336.599C740.138,336.599 739.967,336.391 739.91,336.184C739.852,335.976 739.907,335.768 740.127,335.768C740.293,335.768 740.553,335.887 740.931,336.215C740.725,336.496 740.532,336.599 740.369,336.599ZM786.029,334.946C785.946,334.946 785.859,334.942 785.768,334.934C785.159,334.364 785.159,332.516 785.768,331.945C785.992,331.892 786.185,331.87 786.356,331.87C786.765,331.87 787.049,331.996 787.332,332.121C787.616,332.247 787.9,332.373 788.31,332.373L788.327,332.373C787.845,333.513 787.653,334.946 786.029,334.946ZM734.952,331.945C733.939,331.709 733.18,330.296 734.097,329.383C734.216,329.356 734.326,329.344 734.427,329.344C735.694,329.344 735.561,331.341 734.952,331.945ZM864.093,329.824C863.174,329.824 862.944,329.131 863.056,328.103C863.144,328.093 863.226,328.088 863.304,328.088C864.221,328.088 864.448,328.781 864.336,329.81C864.25,329.82 864.169,329.824 864.093,329.824ZM800.814,328.974C799.336,328.974 798.823,327.65 798.965,326.326C799.107,325.001 799.906,323.677 801.053,323.677C801.468,323.677 801.929,323.851 802.42,324.259C802.565,326.396 800.793,326.617 801.141,328.954C801.027,328.968 800.918,328.974 800.814,328.974ZM747.499,325.076C747.373,325.076 747.181,324.97 746.908,324.684C747.064,324.356 747.216,324.237 747.343,324.237C747.513,324.237 747.64,324.447 747.681,324.656C747.721,324.866 747.676,325.076 747.499,325.076ZM725.179,323.044C725.06,323.044 724.905,323.024 724.705,322.979C724.729,322.614 724.883,322.491 725.05,322.491C725.227,322.491 725.418,322.629 725.486,322.767C725.553,322.905 725.497,323.044 725.179,323.044ZM843.414,320.843C838.341,320.353 840.33,314.56 843.142,314.56C843.924,314.56 844.771,315.009 845.547,316.146C844.325,317.747 842.388,317.976 843.414,320.843ZM885.689,317C884.844,316.705 884.551,315.863 884.407,314.865L886.115,314.865C886.29,315.895 885.335,315.794 885.689,317ZM827.187,311.877C826.522,310.24 827.055,308.639 828.357,308.639C828.643,308.639 828.966,308.717 829.322,308.888C828.77,310.044 828.545,311.524 827.187,311.877ZM855.37,310.596C850.107,310.516 850.725,302.596 854.165,302.596C854.88,302.596 855.718,302.938 856.65,303.766C855.446,305.659 854.443,307.661 855.37,310.596ZM892.139,309.382C892.02,309.382 891.865,309.363 891.665,309.317C891.69,308.952 891.844,308.828 892.012,308.828C892.189,308.828 892.38,308.967 892.447,309.105C892.515,309.244 892.458,309.382 892.139,309.382ZM805.711,308.96C805.018,308.96 804.775,308.508 804.983,307.606C805.055,307.6 805.123,307.597 805.189,307.597C805.975,307.597 806.334,308.028 806.264,308.888C806.055,308.936 805.871,308.96 805.711,308.96ZM794.521,306.155C793.391,306.155 793.011,305.057 793.221,303.959C793.431,302.862 794.23,301.764 795.458,301.764C795.994,301.764 796.612,301.973 797.298,302.483C797.058,303.691 793.818,304.101 795.587,305.901C795.176,306.078 794.822,306.156 794.521,306.155ZM772.583,301.459C772.315,301.459 772.01,301.376 771.676,301.204C771.337,299.726 772.149,299.4 772.528,298.639C772.857,298.858 773.194,299.068 773.742,299.068C773.764,299.068 773.787,299.068 773.811,299.067C773.952,300.58 773.46,301.459 772.583,301.459ZM800.875,300.313C800.749,300.313 800.558,300.208 800.285,299.923C800.442,299.594 800.593,299.474 800.721,299.474C800.89,299.474 801.017,299.684 801.058,299.894C801.098,300.103 801.052,300.313 800.875,300.313ZM818.13,297.84C817.62,297.84 817.344,296.263 816.939,296.08C816.981,295.703 817.256,295.575 817.598,295.575C818.163,295.575 818.91,295.926 819.072,296.08C819.301,296.695 817.41,297.122 818.646,297.361C818.448,297.705 818.279,297.84 818.13,297.84ZM798.15,295.653L797.298,295.653L797.298,294.796L798.15,294.796L798.15,295.653ZM769.499,294.267C769.483,294.267 769.375,294.18 769.112,293.945C768.855,293.658 768.775,293.555 768.791,293.555C768.813,293.555 769.001,293.733 769.179,293.911C769.356,294.089 769.523,294.267 769.499,294.267ZM764.435,289.708C763.421,289.708 763.077,289.04 762.28,288.821C761.972,287.514 762.717,287.263 762.708,286.259L765.697,286.259C766.801,288.049 764.542,287.58 764.843,289.675C764.695,289.698 764.56,289.708 764.435,289.708ZM821.209,287.113L819.072,287.113C819.453,285.553 818.317,284.837 819.072,284.124C819.347,284.109 819.619,284.098 819.879,284.098C820.617,284.098 821.263,284.189 821.636,284.551C821.645,285.557 820.901,285.809 821.209,287.113ZM871.332,278.536C871.207,278.536 871.016,278.431 870.743,278.146C870.899,277.817 871.05,277.698 871.178,277.698C871.346,277.698 871.474,277.908 871.514,278.117C871.555,278.327 871.509,278.536 871.332,278.536ZM781.83,270.966C780.982,270.966 780.908,270.189 780.215,270.033C780.316,268.888 780.971,268.445 781.623,268.445C782.694,268.445 783.758,269.641 782.352,270.887C782.149,270.942 781.978,270.966 781.83,270.966ZM865.459,266.233C864.785,266.233 864.3,266.046 863.91,265.763C863.875,265.438 864.48,265.229 865.069,265.229C865.743,265.229 866.396,265.503 866.045,266.19C865.835,266.219 865.64,266.233 865.459,266.233ZM814.527,262.751C814.173,262.751 813.816,262.625 813.523,262.347C813.589,261.238 814.15,260.764 814.907,260.764C815.266,260.764 815.669,260.87 816.084,261.066C816.156,262.071 815.351,262.751 814.527,262.751ZM736.71,256.862C736.591,256.862 736.435,256.843 736.234,256.796C736.259,256.433 736.413,256.31 736.58,256.31C736.756,256.31 736.947,256.448 737.015,256.586C737.083,256.724 737.027,256.862 736.71,256.862ZM746.908,255.091L746.054,255.091L746.054,254.237L746.908,254.237L746.908,255.091ZM770.395,242.281C767.058,241.912 768.205,239.789 769.541,238.011C770.868,238.393 772.517,238.449 772.528,240.144C772.438,240.135 772.353,240.131 772.272,240.131C770.93,240.131 770.726,241.267 770.395,242.281ZM838.591,238.509C837.896,238.509 837.654,238.059 837.861,237.157C837.933,237.151 838.001,237.148 838.067,237.148C838.857,237.148 839.215,237.576 839.144,238.437C838.935,238.485 838.751,238.509 838.591,238.509ZM797.055,235.901C796.555,235.901 796.052,235.769 795.587,235.449C795.697,234.07 796.906,233.353 798.165,233.353C798.933,233.353 799.719,233.62 800.285,234.168C799.71,234.963 798.39,235.901 797.055,235.901ZM814.626,232.891C811.719,232.891 812.623,228.954 813.523,228.19L814.804,228.19C815.909,229.511 814.677,231.225 814.804,232.887C814.743,232.89 814.684,232.891 814.626,232.891ZM751.214,226.692C750.556,226.691 749.909,226.477 749.471,226.055C749.238,224.423 750.574,223.513 751.884,223.513C752.595,223.513 753.299,223.781 753.739,224.347C753.749,225.924 752.461,226.692 751.214,226.692ZM760.053,222.717C759.204,222.717 759.131,221.941 758.438,221.785C758.555,221.441 758.916,221.287 759.312,221.287C760.046,221.287 760.903,221.815 760.572,222.639C760.371,222.693 760.2,222.717 760.053,222.717ZM811.387,221.785C810.301,221.733 809.731,221.166 809.68,220.077C809.852,220.052 810.011,220.039 810.158,220.039C811.15,220.039 811.559,220.621 811.387,221.785Z" style="fill:rgb(39,40,20);fill-rule:nonzero;"/>
            <path d="M889.745,569.221L705.664,569.221L784.311,433L811.098,433L855.74,510.322C855.207,511.557 855.373,513.326 857.077,513.409C857.158,513.294 857.241,513.182 857.328,513.073L889.745,569.221ZM865.19,533.479C864.5,534.215 864.673,536.094 866.047,536.094C866.178,536.094 866.32,536.077 866.474,536.04C867.26,535.198 866.096,533.903 865.19,533.479ZM820.551,477.526C820.492,477.526 820.427,477.531 820.356,477.544C819.968,478.157 820.526,478.481 821.024,478.481C821.38,478.481 821.707,478.315 821.636,477.971C821.147,477.95 821.06,477.526 820.551,477.526ZM812.214,464.73C811.131,464.73 810.401,465.695 810.329,466.659C810.257,467.624 810.845,468.589 812.399,468.589C812.487,468.589 812.577,468.586 812.67,468.58C812.421,466.907 813.035,466.1 813.523,465.161C813.05,464.858 812.609,464.73 812.214,464.73ZM826.332,464.736L826.332,465.588L827.187,465.588L827.187,464.736L826.332,464.736ZM806.869,457.839L806.69,457.902L806.578,457.944C806.671,457.909 806.767,457.877 806.869,457.839ZM807.379,457.658C807.257,457.7 807.104,457.757 806.911,457.822C807.075,457.767 807.24,457.708 807.379,457.658ZM807.65,457.565C807.592,457.583 807.513,457.609 807.419,457.645C807.519,457.609 807.596,457.583 807.65,457.565ZM815.206,451.55C814.804,451.55 814.444,451.79 814.376,452.353C814.62,452.591 814.949,452.727 815.253,452.727C815.656,452.727 816.016,452.488 816.084,451.927C815.84,451.687 815.511,451.55 815.206,451.55ZM801.172,447.132C800.694,447.132 800.225,447.321 800.285,447.657C800.773,447.769 801.019,448.123 801.621,448.123C801.732,448.123 801.855,448.111 801.993,448.084C802.372,447.423 801.766,447.132 801.172,447.132ZM794.929,440.807C794.87,440.807 794.806,440.813 794.734,440.825C794.348,441.437 794.905,441.762 795.403,441.762C795.759,441.762 796.086,441.596 796.015,441.249C795.525,441.231 795.438,440.807 794.929,440.807Z" style="fill:rgb(250,235,22);fill-rule:nonzero;"/>
            <path d="M866.047,536.094C864.673,536.094 864.5,534.215 865.19,533.479C866.096,533.903 867.26,535.198 866.474,536.04C866.32,536.077 866.178,536.094 866.047,536.094ZM857.077,513.409C855.373,513.326 855.207,511.557 855.74,510.322L857.328,513.073C857.241,513.182 857.158,513.294 857.077,513.409ZM821.024,478.481C820.526,478.481 819.968,478.157 820.356,477.544C820.427,477.531 820.492,477.526 820.551,477.526C821.06,477.526 821.147,477.95 821.636,477.971C821.707,478.315 821.38,478.481 821.024,478.481ZM812.399,468.589C810.845,468.589 810.257,467.624 810.329,466.659C810.401,465.695 811.131,464.73 812.214,464.73C812.609,464.73 813.05,464.858 813.523,465.161C813.035,466.1 812.421,466.907 812.67,468.58C812.577,468.586 812.487,468.589 812.399,468.589ZM827.187,465.588L826.332,465.588L826.332,464.736L827.187,464.736L827.187,465.588ZM806.578,457.944L806.69,457.902L806.869,457.839C806.767,457.877 806.671,457.909 806.578,457.944ZM806.911,457.822C807.104,457.757 807.257,457.7 807.379,457.658C807.24,457.708 807.075,457.767 806.911,457.822ZM807.419,457.645C807.513,457.609 807.592,457.583 807.65,457.565C807.596,457.583 807.519,457.609 807.419,457.645ZM815.253,452.727C814.949,452.727 814.62,452.591 814.376,452.353C814.444,451.79 814.804,451.55 815.206,451.55C815.511,451.55 815.84,451.687 816.084,451.927C816.016,452.488 815.656,452.727 815.253,452.727ZM801.621,448.123C801.019,448.123 800.773,447.769 800.285,447.657C800.225,447.321 800.694,447.132 801.172,447.132C801.766,447.132 802.372,447.423 801.993,448.084C801.855,448.111 801.732,448.123 801.621,448.123ZM795.403,441.762C794.905,441.762 794.348,441.437 794.734,440.825C794.806,440.813 794.87,440.807 794.929,440.807C795.438,440.807 795.525,441.231 796.015,441.249C796.086,441.596 795.759,441.762 795.403,441.762Z" style="fill:rgb(39,40,20);fill-rule:nonzero;"/>
            <path d="M950,334.457L946.782,328.883C946.93,328.781 947.08,328.682 947.177,328.529C946.446,328.292 946.287,327.484 945.734,327.068L941.169,319.161L989.401,270.928L956.442,328.015L950,334.457ZM938.445,314.443L929.614,299.147L982.239,246.522C981.88,246.518 981.515,246.516 981.155,246.516C978.956,246.516 976.776,246.582 974.609,246.712L926.89,294.43L918.059,279.134L944.167,253.026C943.622,253.225 943.083,253.427 942.541,253.634C942.574,253.461 942.565,253.245 942.48,252.953C942.381,252.942 942.289,252.936 942.205,252.936C941.353,252.936 941.235,253.497 941.416,254.073C937.765,255.521 934.211,257.163 930.768,258.985L915.336,274.417L871.149,197.883L1031.57,197.883L999.565,253.324L938.445,314.443ZM950.166,299.067L950.166,299.923L951.02,299.923L951.02,299.067L950.166,299.067ZM936.65,267.38C934.909,267.38 933.873,271.036 936.075,271.316C936.723,270.256 937.753,269.576 937.783,267.898C937.391,267.533 937.005,267.38 936.65,267.38ZM944.482,267.346C944.381,267.346 944.16,267.499 943.761,267.898L943.761,268.325C943.562,268.855 943.54,269.052 943.61,269.052C943.713,269.052 944.015,268.626 944.25,268.199C944.484,267.772 944.651,267.346 944.482,267.346ZM965.975,267.024C965.847,267.024 965.695,267.144 965.538,267.474C965.811,267.758 966.002,267.863 966.128,267.864C966.305,267.864 966.352,267.654 966.311,267.444C966.271,267.234 966.144,267.024 965.975,267.024ZM946.764,266.785C946.717,266.785 946.586,266.857 946.323,267.046C946.079,267.385 946.03,267.506 946.08,267.506C946.141,267.506 946.349,267.326 946.523,267.146C946.697,266.966 946.837,266.785 946.764,266.785ZM973.608,267.004C973.608,267.004 973.619,267.015 973.65,267.046C973.719,267.114 973.744,267.138 973.744,267.138C973.745,267.138 973.711,267.104 973.677,267.071C973.643,267.037 973.608,267.004 973.608,267.004ZM910.322,259.234C910.222,259.234 910.001,259.388 909.601,259.788L909.601,260.212C909.403,260.742 909.381,260.939 909.451,260.939C909.553,260.939 909.855,260.513 910.089,260.087C910.323,259.661 910.49,259.234 910.322,259.234ZM918.222,255.719C915.751,255.719 914.026,260.03 917.714,260.639C916.323,258.272 919.241,258 920.274,256.796C919.596,256.027 918.882,255.719 918.222,255.719ZM963.162,247.747C962.806,247.747 962.481,247.912 962.552,248.256C962.809,248.282 963.055,248.322 962.978,248.684L963.83,248.684C964.219,248.072 963.661,247.747 963.162,247.747ZM898.924,242.281C899.511,243.252 897.824,243.885 898.924,243.986C898.967,242.891 900.592,243.379 900.632,242.281L898.924,242.281ZM1002.71,234.569C1002.57,234.569 1002.42,234.578 1002.26,234.595C1002.15,235.561 1002.67,235.901 1003.52,235.901C1003.66,235.901 1003.81,235.892 1003.97,235.875C1004.08,234.909 1003.56,234.569 1002.71,234.569ZM986.037,232.009C985.833,232.009 985.661,232.138 985.609,232.46C986.217,232.561 986.329,233.163 986.89,233.317C987.152,232.702 986.508,232.009 986.037,232.009ZM915.775,229.044C915.391,229.044 915.03,229.153 914.726,229.473L914.726,230.752C914.964,230.956 915.28,231.048 915.619,231.048C916.526,231.048 917.589,230.39 917.714,229.473C917.109,229.342 916.411,229.044 915.775,229.044ZM946.332,226.46C946.204,226.46 946.052,226.579 945.895,226.909C946.168,227.194 946.36,227.299 946.485,227.299C946.663,227.299 946.709,227.089 946.668,226.879C946.628,226.669 946.501,226.46 946.332,226.46ZM918.303,220.89C918.121,220.89 917.925,220.904 917.714,220.933C916.644,221.815 917.39,224.035 918.492,224.035C918.786,224.035 919.105,223.877 919.422,223.493C918.355,223.2 920.213,222.353 919.849,221.36C919.46,221.078 918.974,220.89 918.303,220.89ZM939.625,217.241C939.011,217.814 938.703,218.795 939.064,220.077C940.912,219.874 941.514,218.431 942.37,217.241L939.625,217.241ZM1003.77,217.241C1003.99,217.475 1004.33,217.714 1004.82,217.942C1004.9,217.683 1004.95,217.45 1004.98,217.241L1003.77,217.241Z" style="fill:rgb(240,75,83);fill-rule:nonzero;"/>
            <path d="M918.059,279.134L915.336,274.417L930.768,258.985C934.211,257.163 937.765,255.521 941.416,254.073C941.538,254.46 941.794,254.854 942.053,255.091C941.922,254.311 942.438,254.18 942.541,253.634C943.083,253.427 943.622,253.225 944.167,253.026L918.059,279.134Z" style="fill:rgb(38,13,19);fill-rule:nonzero;"/>
            <path d="M929.614,299.147L926.89,294.43L974.609,246.712C976.776,246.582 978.956,246.516 981.155,246.516C981.515,246.516 981.88,246.518 982.239,246.522L929.614,299.147Z" style="fill:rgb(38,13,19);fill-rule:nonzero;"/>
            <path d="M941.169,319.161L938.445,314.443L999.565,253.324L989.401,270.928L941.169,319.161Z" style="fill:rgb(38,13,19);fill-rule:nonzero;"/>
            <path d="M951.361,336.815L950,334.457L956.442,328.015L951.361,336.815Z" style="fill:rgb(38,13,19);fill-rule:nonzero;"/>
            <path d="M946.782,328.883L945.734,327.068C946.287,327.484 946.446,328.292 947.177,328.529C947.08,328.682 946.93,328.781 946.782,328.883ZM951.02,299.923L950.166,299.923L950.166,299.067L951.02,299.067L951.02,299.923ZM936.075,271.316C933.873,271.036 934.909,267.38 936.65,267.38C937.005,267.38 937.391,267.533 937.783,267.898C937.753,269.576 936.723,270.256 936.075,271.316ZM943.61,269.052C943.54,269.052 943.562,268.855 943.761,268.325L943.761,267.898C944.16,267.499 944.381,267.346 944.482,267.346C944.651,267.346 944.484,267.772 944.25,268.199C944.015,268.626 943.713,269.052 943.61,269.052ZM966.128,267.864C966.002,267.863 965.811,267.758 965.538,267.474C965.695,267.144 965.847,267.024 965.975,267.024C966.144,267.024 966.271,267.234 966.311,267.444C966.352,267.654 966.305,267.864 966.128,267.864ZM946.08,267.506C946.03,267.506 946.079,267.385 946.323,267.046C946.586,266.857 946.717,266.785 946.764,266.785C946.837,266.785 946.697,266.966 946.523,267.146C946.349,267.326 946.141,267.506 946.08,267.506ZM973.744,267.138C973.744,267.138 973.719,267.114 973.65,267.046C973.619,267.015 973.608,267.004 973.608,267.004C973.608,267.004 973.643,267.037 973.677,267.071C973.711,267.104 973.745,267.138 973.744,267.138ZM909.451,260.939C909.381,260.939 909.403,260.742 909.601,260.212L909.601,259.788C910.001,259.388 910.222,259.234 910.322,259.234C910.49,259.234 910.323,259.661 910.089,260.087C909.855,260.513 909.553,260.939 909.451,260.939ZM917.714,260.639C914.026,260.03 915.751,255.719 918.222,255.719C918.882,255.719 919.596,256.027 920.274,256.796C919.241,258 916.323,258.272 917.714,260.639ZM942.053,255.091C941.794,254.854 941.538,254.46 941.416,254.073C941.235,253.497 941.353,252.936 942.205,252.936C942.289,252.936 942.381,252.942 942.48,252.953C942.565,253.245 942.574,253.461 942.541,253.634C942.438,254.18 941.922,254.311 942.053,255.091ZM963.83,248.684L962.978,248.684C963.055,248.322 962.809,248.282 962.552,248.256C962.481,247.912 962.806,247.747 963.162,247.747C963.661,247.747 964.219,248.072 963.83,248.684ZM898.924,243.986C897.824,243.885 899.511,243.252 898.924,242.281L900.632,242.281C900.592,243.379 898.967,242.891 898.924,243.986ZM1003.52,235.901C1002.67,235.901 1002.15,235.561 1002.26,234.595C1002.42,234.578 1002.57,234.569 1002.71,234.569C1003.56,234.569 1004.08,234.909 1003.97,235.875C1003.81,235.892 1003.66,235.901 1003.52,235.901ZM986.89,233.317C986.329,233.163 986.217,232.561 985.609,232.46C985.661,232.138 985.833,232.009 986.037,232.009C986.508,232.009 987.152,232.702 986.89,233.317ZM915.619,231.048C915.28,231.048 914.964,230.956 914.726,230.752L914.726,229.473C915.03,229.153 915.391,229.044 915.775,229.044C916.411,229.044 917.109,229.342 917.714,229.473C917.589,230.39 916.526,231.048 915.619,231.048ZM946.485,227.299C946.36,227.299 946.168,227.194 945.895,226.909C946.052,226.579 946.204,226.46 946.332,226.46C946.501,226.46 946.628,226.669 946.668,226.879C946.709,227.089 946.663,227.299 946.485,227.299ZM918.492,224.035C917.39,224.035 916.644,221.815 917.714,220.933C917.925,220.904 918.121,220.89 918.303,220.89C918.974,220.89 919.46,221.078 919.849,221.36C920.213,222.353 918.355,223.2 919.422,223.493C919.105,223.877 918.786,224.035 918.492,224.035ZM939.064,220.077C938.703,218.795 939.011,217.814 939.625,217.241L942.37,217.241C941.514,218.431 940.912,219.874 939.064,220.077ZM1004.82,217.942C1004.33,217.714 1003.99,217.475 1003.77,217.241L1004.98,217.241C1004.95,217.45 1004.9,217.683 1004.82,217.942Z" style="fill:rgb(38,13,21);fill-rule:nonzero;"/>
            <path d="M684.382,187.079L1232.43,187.079L1232.43,183.079L684.382,183.079" style="fill:rgb(37,42,59);fill-rule:nonzero;"/>
            <path d="M911.026,166.591L1169.68,166.591L1169.68,162.591L911.026,162.591" style="fill:rgb(37,42,59);fill-rule:nonzero;"/>
            <path d="M622.919,336.894L763.771,336.894L763.771,332.894L622.919,332.894" style="fill:rgb(37,42,59);fill-rule:nonzero;"/>
            <path d="M1280,433L1048.3,433L1076.54,404.76C1078.82,400.458 1080.82,395.982 1082.5,391.36L1040.86,433L1037.52,433C1037.61,432.786 1037.67,432.55 1037.71,432.285C1036.63,431.023 1035.65,430.516 1034.79,430.516C1033.54,430.516 1032.59,431.604 1032.09,433L1026.49,433C1026.43,432.832 1026.32,432.69 1026.18,432.69C1026.08,432.69 1025.95,432.775 1025.82,433L1016.74,433L1079.74,370L1280,370L1280,433ZM1029.91,430.587C1029.62,430.587 1029.36,430.916 1029.32,431.245C1029.28,431.575 1029.46,431.904 1030.03,431.904C1030.15,431.904 1030.29,431.889 1030.45,431.857L1030.45,431.004C1030.28,430.703 1030.09,430.587 1029.91,430.587ZM1033.96,428.011C1033.93,428.011 1033.9,428.012 1033.86,428.015C1033.68,428.828 1034.21,429.252 1034.73,429.252C1035.14,429.252 1035.54,428.987 1035.57,428.441C1035.51,428.449 1035.45,428.452 1035.4,428.452C1035.08,428.452 1034.88,428.342 1034.68,428.231C1034.48,428.121 1034.27,428.011 1033.96,428.011ZM1031.3,418.623C1031.09,419.523 1031.33,419.973 1032.03,419.973C1032.19,419.973 1032.37,419.949 1032.58,419.901L1032.58,418.623L1031.3,418.623ZM1057.82,396.966C1056.08,396.966 1055.07,399.617 1055.61,401.688L1058.3,397.032C1058.13,396.987 1057.97,396.966 1057.82,396.966ZM1009.3,433L985.168,433L1006.82,411.351C1007.35,411.269 1007.55,410.85 1007.74,410.427L1048.17,370L1072.3,370L1009.3,433ZM1003.7,429.219C1003.53,429.219 1003.34,429.241 1003.12,429.294C1002.57,429.801 1002.94,430.91 1003.54,431.431C1003.04,429.641 1005.34,430.668 1005.68,429.721L1005.66,429.721C1005.25,429.721 1004.96,429.595 1004.68,429.47C1004.4,429.345 1004.11,429.219 1003.7,429.219ZM1002.32,425.031C1002.32,425.031 1002.31,425.147 1002.26,425.45C1002.18,426.061 1002.14,426.277 1002.14,426.277C1002.15,426.277 1002.19,425.965 1002.23,425.653C1002.28,425.342 1002.32,425.031 1002.32,425.031ZM1009.48,425.836C1009.48,425.836 1009.49,425.849 1009.52,425.88C1009.59,425.948 1009.61,425.972 1009.61,425.972C1009.61,425.972 1009.58,425.938 1009.55,425.904C1009.51,425.87 1009.48,425.836 1009.48,425.836ZM1027.75,408.247C1027.65,408.247 1027.43,408.4 1027.03,408.8L1027.03,409.228C1026.83,409.756 1026.81,409.953 1026.88,409.953C1026.98,409.953 1027.28,409.527 1027.52,409.1C1027.75,408.673 1027.92,408.247 1027.75,408.247ZM1018.93,407.258C1018.88,407.258 1018.75,407.33 1018.49,407.519C1018.25,407.859 1018.2,407.979 1018.25,407.979C1018.31,407.979 1018.52,407.799 1018.69,407.619C1018.86,407.439 1019,407.258 1018.93,407.258ZM1036.07,400.206C1034.85,400.206 1034.29,401.817 1036,402.398C1036.12,401.527 1036.85,401.257 1037.28,400.69C1036.85,400.345 1036.43,400.206 1036.07,400.206ZM1034.38,399.5C1034.38,399.5 1034.36,399.475 1034.29,399.406C1034.26,399.375 1034.25,399.364 1034.25,399.364C1034.25,399.364 1034.28,399.397 1034.31,399.431C1034.35,399.465 1034.38,399.5 1034.38,399.5ZM1031.73,395.99C1031.14,396.586 1031.37,397.277 1032.42,397.277C1032.47,397.277 1032.52,397.275 1032.58,397.271C1032.6,396.539 1032.25,396.178 1031.73,395.99ZM1023.14,395.094C1023.14,395.094 1023.15,395.106 1023.18,395.137C1023.25,395.206 1023.28,395.23 1023.28,395.23C1023.28,395.23 1023.24,395.196 1023.21,395.162C1023.18,395.128 1023.14,395.094 1023.14,395.094ZM1025.51,393.772C1025.15,393.772 1024.82,393.938 1024.89,394.284C1025.16,394.306 1025.4,394.348 1025.32,394.712L1026.18,394.712C1026.56,394.097 1026,393.772 1025.51,393.772ZM1036.64,389.107C1036.34,389.107 1036.08,389.249 1036,389.588C1036.74,389.591 1036.6,390.495 1037.35,390.495C1037.45,390.495 1037.57,390.478 1037.71,390.441C1038.01,389.713 1037.25,389.107 1036.64,389.107ZM1045.11,386.73C1043.72,386.73 1042.01,390.085 1044.96,390.441C1044.62,389.43 1044.43,388.293 1045.94,388.293C1046.04,388.293 1046.14,388.297 1046.25,388.306C1046.06,387.159 1045.61,386.73 1045.11,386.73ZM1040.27,387.023L1040.27,387.877L1041.12,387.877L1041.12,387.023L1040.27,387.023ZM1052.19,386.125C1052.08,386.125 1051.95,386.14 1051.8,386.172C1051.86,386.674 1051.72,387.382 1052.22,387.45C1052.45,387.097 1053.06,386.125 1052.19,386.125ZM1055.39,380.561C1055.17,380.561 1054.93,380.685 1054.79,381.048C1055.06,381.104 1055.28,381.127 1055.44,381.127C1055.85,381.127 1055.95,380.986 1055.9,380.844C1055.84,380.702 1055.62,380.561 1055.39,380.561ZM1064.68,374.56C1064.58,374.56 1064.42,374.694 1064.18,375.067C1064.3,375.347 1064.42,375.452 1064.52,375.452C1064.66,375.452 1064.77,375.229 1064.81,375.006C1064.84,374.783 1064.81,374.56 1064.68,374.56ZM977.728,433L953.6,433L997.621,388.979C998.462,389.318 999.865,389.579 1001,389.579C1002.47,389.579 1003.48,389.144 1002.26,387.877L1004.82,387.877C1004.6,386.538 1004.08,385.496 1003.54,384.464C1002.94,384.469 1002.41,384.546 1001.93,384.669L1016.6,370L1040.73,370L977.728,433ZM965.965,428.869C965.854,429.9 966.083,430.593 967.009,430.593C967.084,430.593 967.164,430.589 967.248,430.579C966.629,428.963 968.421,429.756 968.1,428.441C967.909,428.386 967.751,428.363 967.616,428.363C967.292,428.363 967.101,428.495 966.91,428.627C966.719,428.759 966.527,428.89 966.203,428.89C966.131,428.89 966.052,428.884 965.965,428.869ZM991.614,415.984C991.37,415.984 991.183,416.11 991.16,416.486C991.33,416.566 991.968,416.987 992.415,416.987C992.659,416.987 992.846,416.862 992.868,416.486C992.698,416.404 992.061,415.984 991.614,415.984ZM982.398,415.196C982.333,415.196 982.265,415.199 982.193,415.205C981.985,416.107 982.229,416.558 982.922,416.558C983.081,416.558 983.265,416.534 983.472,416.486C983.546,415.626 983.186,415.196 982.398,415.196ZM977.154,411.092C976.914,411.092 976.603,411.176 976.215,411.362C976.102,412.392 976.331,413.085 977.248,413.085C977.325,413.085 977.407,413.08 977.494,413.07C977.961,411.957 977.923,411.092 977.154,411.092ZM984.763,411.768C984.636,411.768 984.484,411.887 984.328,412.216C984.601,412.501 984.792,412.606 984.917,412.606C985.094,412.606 985.14,412.397 985.1,412.187C985.06,411.977 984.932,411.768 984.763,411.768ZM989.025,409.654L989.025,410.511L989.879,410.511L989.879,409.654L989.025,409.654ZM998.709,406.563C997.346,406.563 997.13,408.637 998.419,408.8C998.602,407.988 999.339,407.727 999.272,406.668C999.067,406.596 998.879,406.563 998.709,406.563ZM1002.26,406.668C1001.76,406.73 1001.05,406.593 1000.98,407.092C1001.55,407.097 1001.37,407.841 1001.83,407.946C1001.86,407.401 1002.38,407.355 1002.26,406.668ZM987.703,404.515C987.584,404.515 987.456,404.52 987.317,404.53C986.097,404.945 986.737,407.467 987.849,407.467C988.082,407.467 988.336,407.356 988.598,407.092C986.709,405.312 991.107,406.21 991.16,404.957C990.703,405.128 990.373,405.194 990.111,405.194C989.689,405.194 989.442,405.024 989.123,404.854C988.805,404.685 988.414,404.515 987.703,404.515ZM1004.32,400.201C1004.15,400.201 1003.99,400.325 1003.97,400.69C1004.17,400.735 1004.32,400.754 1004.44,400.754C1004.76,400.754 1004.82,400.616 1004.75,400.478C1004.68,400.34 1004.49,400.201 1004.32,400.201ZM999.654,395.11C999.393,395.11 999.121,395.122 998.846,395.137C998.5,396.394 998.96,398.173 999.783,398.174C1000.01,398.174 1000.27,398.033 1000.55,397.7C999.573,397.36 1001.29,396.208 1001.41,395.563C1001.04,395.201 1000.39,395.11 999.654,395.11ZM1012.84,388.734C1011.8,388.734 1010.84,389.73 1010.45,390.725C1010.06,391.721 1010.26,392.717 1011.55,392.717C1011.82,392.717 1012.14,392.673 1012.51,392.576C1011.22,391.394 1013.68,390.351 1014.65,390.015C1014.09,389.09 1013.45,388.734 1012.84,388.734ZM946.16,433L922.032,433L940.583,414.449C940.593,414.461 940.603,414.472 940.612,414.483C941.046,414.976 941.426,415.47 941.795,415.47C942.024,415.47 942.249,415.279 942.48,414.78C942.432,414.783 942.386,414.785 942.341,414.785C941.643,414.785 941.315,414.414 941.051,413.981L943.842,411.19C944.522,410.85 945.254,410.626 946.034,410.626C946.538,410.626 947.062,410.72 947.604,410.935C947.162,409.987 946.488,409.494 945.707,409.325L955.022,400.01C955.339,400.403 955.84,400.664 956.571,400.69C957.303,399.606 955.886,398.069 957.852,397.7C957.73,397.649 957.618,397.588 957.512,397.52L985.032,370L1009.16,370L976.763,402.398L975.786,402.398C975.766,402.743 975.751,403.084 975.772,403.388L953.889,425.271C953.896,423.609 956.568,422.195 957.852,421.181C957.392,420.84 956.895,420.688 956.392,420.688C954.277,420.688 952.039,423.36 951.874,425.88C951.936,425.859 951.999,425.85 952.063,425.85C952.309,425.85 952.571,425.983 952.825,426.116C952.873,426.142 952.921,426.167 952.969,426.192L946.16,433ZM937.448,429.814C937.448,429.814 937.424,429.79 937.355,429.721C937.324,429.69 937.313,429.678 937.312,429.678L937.448,429.814ZM938.13,427.952C937.963,427.952 937.808,428.076 937.783,428.441C937.982,428.487 938.137,428.506 938.256,428.506C938.576,428.506 938.633,428.368 938.566,428.229C938.499,428.091 938.307,427.952 938.13,427.952ZM945.042,416.486C944.746,417.481 945.176,419.048 945.781,419.048C945.952,419.048 946.137,418.923 946.323,418.623C945.258,418.325 947.116,417.481 946.75,416.486L945.042,416.486ZM963.786,399.548C963.488,399.548 963.147,399.841 963.054,400.134C962.962,400.427 963.119,400.721 963.818,400.721C963.946,400.721 964.091,400.711 964.257,400.69C964.331,399.834 964.08,399.548 963.786,399.548ZM978.307,394.241C978.307,394.241 978.319,394.253 978.35,394.284C978.418,394.352 978.442,394.376 978.442,394.376C978.443,394.376 978.409,394.342 978.375,394.308C978.342,394.274 978.308,394.241 978.307,394.241ZM967.84,389.144C966.54,389.144 966.84,390.465 967.673,390.868C967.809,390.292 968.28,390.052 968.1,389.16C968.007,389.149 967.92,389.144 967.84,389.144ZM971.516,389.16C971.003,390.044 971.757,390.542 972.431,390.542C972.954,390.542 973.429,390.242 973.226,389.588C973.179,389.211 972.82,389.144 972.394,389.144C972.277,389.144 972.155,389.149 972.034,389.154C971.912,389.159 971.79,389.164 971.673,389.164C971.619,389.164 971.567,389.163 971.516,389.16ZM1005.69,370.777C1005.56,370.777 1005.41,370.897 1005.25,371.226C1005.52,371.511 1005.72,371.617 1005.84,371.617C1006.02,371.617 1006.06,371.407 1006.02,371.197C1005.98,370.987 1005.86,370.777 1005.69,370.777ZM914.592,433L911.353,433C911.477,432.426 910.892,431.834 910.456,431.834C910.252,431.834 910.08,431.964 910.028,432.285C910.514,432.367 910.682,432.767 911.017,433L850.754,433C850.803,430.977 853.791,430.746 854.515,428.869C854.029,428.65 853.521,428.553 853.016,428.553C850.369,428.553 847.789,431.221 848.644,433L834.873,433L834.873,431.857C834.753,431.871 834.622,431.874 834.488,431.874C834.429,431.874 834.37,431.874 834.311,431.873C834.251,431.872 834.191,431.872 834.132,431.872C833.672,431.872 833.251,431.91 833.165,432.285C833.516,432.381 833.6,432.746 833.793,433L823.628,433C823.91,432.854 824.087,432.602 824.2,432.285C823.562,432.325 822.803,432.237 822.892,433L811.098,433L800.094,413.94C800.156,413.936 800.22,413.93 800.285,413.924C800.697,413.886 800.237,412.183 801.223,412.183C801.495,412.183 801.878,412.313 802.42,412.643C801.913,410.119 800.798,409.238 799.681,409.238C799.02,409.238 798.358,409.546 797.821,410.005L797.704,409.802L797.191,410.69C797.056,410.88 796.94,411.079 796.85,411.281L784.311,433L684,433L699.511,401.479L884.102,401.479C884.786,402.885 885.502,404.28 886.245,405.652L890.418,401.479L914.546,401.479L897.988,418.037C897.834,418.002 897.696,417.985 897.573,417.985C896.866,417.985 896.648,418.533 896.76,419.264L895.76,420.265C896.837,421.659 897.952,423.031 899.095,424.37L919.797,403.668C920.106,403.605 920.263,403.389 920.355,403.109L921.986,401.479L922.604,401.479C922.864,402.455 923.366,403.19 924.117,403.676C924.223,402.592 924.37,402.126 924.712,401.479L946.114,401.479L923.665,423.927C923.678,423.868 923.687,423.807 923.692,423.745C923.368,423.566 923.094,423.498 922.844,423.498C922.431,423.498 922.083,423.685 921.678,423.873C921.272,424.06 920.809,424.248 920.165,424.248C919.941,424.248 919.695,424.225 919.422,424.172C919.558,425.032 920.392,425.427 921.288,425.427C921.646,425.427 922.013,425.364 922.35,425.243L914.592,433ZM818.777,429.894C818.434,429.894 818.249,430.13 818.22,431.004C818.707,431.102 819.09,431.258 819.369,431.258C819.713,431.258 819.899,431.021 819.927,430.147C819.439,430.051 819.056,429.894 818.777,429.894ZM826.788,430.077C826.543,430.077 826.355,430.203 826.332,430.579C826.502,430.658 827.14,431.078 827.588,431.078C827.832,431.078 828.02,430.953 828.043,430.579C827.873,430.497 827.235,430.077 826.788,430.077ZM870.316,428.015C870.108,428.915 870.351,429.366 871.045,429.366C871.205,429.366 871.389,429.342 871.596,429.294L871.596,428.015L870.316,428.015ZM902.553,425.022C901.912,425.022 901.402,425.152 901.061,425.45C901.295,426.465 901.421,427.59 902.666,427.59C902.699,427.59 902.732,427.589 902.767,427.588C902.422,426.109 903.564,425.784 902.767,425.026C902.694,425.023 902.623,425.022 902.553,425.022ZM835.852,426.235C835.692,426.235 835.509,426.259 835.301,426.307C835.005,427.454 836.182,427.13 836.581,427.588C836.789,426.686 836.546,426.235 835.852,426.235ZM844.345,425.371C844.243,425.371 844.08,425.506 843.842,425.88C843.964,426.159 844.079,426.263 844.178,426.263C844.322,426.263 844.429,426.04 844.468,425.817C844.506,425.594 844.476,425.371 844.345,425.371ZM915.579,424.599C915.235,425.55 915.802,425.951 916.447,425.951C917.186,425.951 918.026,425.425 917.714,424.599L915.579,424.599ZM852.571,424.253C852.329,424.253 852.211,424.461 852.209,424.669C852.206,424.878 852.318,425.086 852.535,425.086C852.705,425.086 852.94,424.958 853.234,424.599C852.955,424.347 852.735,424.253 852.571,424.253ZM819.02,420.29C818.029,420.29 817.619,420.873 817.792,422.037C818.018,422.11 818.203,422.142 818.356,422.143C819.343,422.143 818.982,420.796 819.502,420.329C819.328,420.303 819.168,420.29 819.02,420.29ZM856.678,421.108C856.433,421.108 856.246,421.233 856.223,421.607C856.394,421.689 857.03,422.109 857.477,422.109C857.721,422.11 857.909,421.984 857.933,421.607C857.763,421.528 857.125,421.108 856.678,421.108ZM778.485,420.322L778.497,420.344C778.501,420.339 778.505,420.334 778.509,420.329C778.501,420.327 778.493,420.325 778.485,420.322ZM842.042,419.09C841.944,419.09 841.828,419.195 841.704,419.475C841.943,419.848 842.105,419.983 842.207,419.983C842.339,419.983 842.37,419.76 842.332,419.537C842.294,419.313 842.187,419.09 842.042,419.09ZM838.208,418.987C838.041,418.987 837.886,419.11 837.861,419.475C838.061,419.521 838.217,419.54 838.336,419.54C838.655,419.54 838.712,419.402 838.644,419.263C838.577,419.125 838.385,418.987 838.208,418.987ZM855.215,418.134C855.045,418.134 854.81,418.263 854.515,418.623C854.795,418.874 855.014,418.969 855.177,418.969C855.42,418.969 855.538,418.76 855.541,418.552C855.544,418.343 855.432,418.134 855.215,418.134ZM889.264,415.623C887.926,415.623 887.304,416.339 887.394,417.767C887.786,418.05 888.272,418.237 888.946,418.237C889.128,418.237 889.322,418.223 889.532,418.194C890.114,417.647 890.114,416.177 889.532,415.632C889.44,415.626 889.35,415.623 889.264,415.623ZM891.586,416.425C891.418,416.425 891.263,416.549 891.238,416.913C891.438,416.959 891.594,416.978 891.714,416.978C892.033,416.978 892.089,416.84 892.022,416.702C891.954,416.564 891.763,416.425 891.586,416.425ZM818.053,414.31C817.384,414.31 816.901,414.496 816.513,414.78C816.309,416.12 817.044,416.524 817.792,416.913C817.587,415.568 818.402,415.245 818.646,414.353C818.433,414.324 818.236,414.31 818.053,414.31ZM826.679,415.571C826.511,415.571 826.357,415.695 826.332,416.059C826.532,416.105 826.689,416.124 826.808,416.124C827.127,416.124 827.183,415.986 827.115,415.848C827.048,415.709 826.856,415.571 826.679,415.571ZM842.56,412.216C842.587,413.343 842.69,414.393 843.846,414.393C843.974,414.393 844.113,414.38 844.267,414.353L844.267,412.216L842.56,412.216ZM881.936,408.326C881.003,408.326 880.059,409.006 879.282,409.228C879.202,410.935 880.698,412.766 881.814,412.766C881.977,412.766 882.132,412.727 882.272,412.643C879.99,411.51 882.734,409.894 883.125,408.8C882.741,408.453 882.339,408.326 881.936,408.326ZM898.265,411.771C898.207,411.771 898.143,411.777 898.072,411.789C897.685,412.402 898.243,412.728 898.741,412.728C899.097,412.728 899.422,412.562 899.35,412.216C898.863,412.195 898.775,411.771 898.265,411.771ZM863.483,411.362C863.275,412.264 863.519,412.715 864.213,412.715C864.372,412.715 864.556,412.691 864.763,412.643L864.763,411.362L863.483,411.362ZM833.372,409.645C833.306,409.645 833.237,409.648 833.165,409.654C832.957,410.556 833.201,411.006 833.894,411.006C834.054,411.006 834.238,410.982 834.445,410.935C834.519,410.076 834.16,409.645 833.372,409.645ZM931.387,408.332C931.255,408.332 931.11,408.346 930.951,408.373L930.951,409.228L932.232,409.228C932.278,408.602 931.967,408.332 931.387,408.332ZM842.051,407.885C841.884,407.885 841.729,408.009 841.704,408.373C841.904,408.419 842.06,408.438 842.18,408.438C842.499,408.438 842.555,408.3 842.487,408.162C842.42,408.024 842.228,407.885 842.051,407.885ZM897.778,406.341C897.523,406.341 897.285,406.434 897.219,406.668C897.079,407.153 897.479,407.383 897.876,407.383C898.287,407.383 898.695,407.136 898.497,406.668C898.418,406.478 898.086,406.341 897.778,406.341ZM949.747,397.845L940.916,382.549L953.464,370L977.592,370L949.747,397.845ZM946.323,378.485L946.323,379.337L947.177,379.337L947.177,378.485L946.323,378.485ZM974.35,370.739C974.179,370.739 973.944,370.868 973.65,371.226C973.931,371.479 974.151,371.573 974.315,371.573C974.557,371.573 974.675,371.365 974.677,371.156C974.679,370.947 974.567,370.739 974.35,370.739ZM938.192,377.832L933.671,370L946.025,370L938.192,377.832Z" style="fill:rgb(240,75,83);fill-rule:nonzero;"/>
            <path d="M886.245,405.652C885.502,404.28 884.786,402.885 884.102,401.479L890.418,401.479L886.245,405.652Z" style="fill:rgb(38,13,19);fill-rule:nonzero;"/>
            <path d="M899.095,424.37C897.952,423.031 896.837,421.659 895.76,420.265L896.76,419.264C896.968,420.62 898.312,422.606 899.78,422.891C899.633,420.894 896.73,419.831 899.35,418.623C898.802,418.307 898.351,418.12 897.988,418.037L914.546,401.479L921.986,401.479L920.355,403.109C920.513,402.629 920.482,401.96 920.703,401.543L918.995,401.543C918.819,402.571 919.774,402.468 919.422,403.676C919.484,403.683 919.542,403.687 919.597,403.687C919.67,403.687 919.736,403.68 919.797,403.668L899.095,424.37ZM900.552,420.268C900.385,420.268 900.23,420.391 900.205,420.756C900.404,420.801 900.56,420.821 900.679,420.821C900.998,420.821 901.055,420.682 900.988,420.544C900.92,420.406 900.729,420.268 900.552,420.268ZM940.916,382.549L938.192,377.832L946.025,370L953.464,370L940.916,382.549Z" style="fill:rgb(38,13,19);fill-rule:nonzero;"/>
            <path d="M922.032,433L914.592,433L922.35,425.243C922.996,425.01 923.53,424.561 923.665,423.927L946.114,401.479L951.402,401.479C951.551,401.54 951.718,401.583 951.928,401.583C952.039,401.583 952.162,401.571 952.301,401.543C952.366,400.817 951.795,400.38 951.296,400.38C951.268,400.38 951.24,400.382 951.213,400.384L949.747,397.845L977.592,370L985.032,370L957.512,397.52C956.844,397.094 956.424,396.419 955.331,396.419L955.292,396.419C954.56,397.404 954.268,399.077 955.022,400.01L945.707,409.325C945.494,409.28 945.273,409.258 945.046,409.258C942.622,409.258 939.581,411.737 939.064,413.497C939.08,413.496 939.095,413.496 939.111,413.496C939.68,413.496 940.157,413.967 940.583,414.449L922.032,433ZM941.051,413.981C940.955,413.823 940.867,413.657 940.773,413.497C941.612,412.753 942.645,411.79 943.842,411.19L941.051,413.981Z" style="fill:rgb(38,13,19);fill-rule:nonzero;"/>
            <path d="M953.6,433L946.16,433L952.969,426.192C953.17,426.296 953.362,426.383 953.53,426.383C953.732,426.383 953.9,426.256 954.009,425.88C953.926,425.674 953.888,425.471 953.889,425.271L975.772,403.388C975.815,404.016 976.013,404.489 976.643,404.53C976.323,403.216 977.812,403.711 977.494,402.398L976.763,402.398L1009.16,370L1016.6,370L1001.93,384.669C1000.15,385.124 998.99,386.209 997.138,386.599L997.138,388.733C997.262,388.818 997.426,388.901 997.621,388.979L953.6,433ZM953.539,430.961C953.539,430.961 953.551,430.973 953.582,431.004C953.651,431.072 953.675,431.097 953.675,431.097C953.676,431.097 953.641,431.063 953.607,431.029C953.574,430.995 953.539,430.961 953.539,430.961ZM955.049,426.223C954.692,426.223 954.365,426.389 954.435,426.734C954.696,426.758 954.942,426.795 954.863,427.161L955.717,427.161C956.105,426.548 955.547,426.223 955.049,426.223ZM959.064,426.485L959.098,426.502L959.064,426.485ZM959.027,426.467L959.064,426.485L959.027,426.467ZM958.79,426.348L958.942,426.424C958.9,426.401 958.851,426.378 958.79,426.348L958.706,426.307C958.737,426.322 958.764,426.336 958.79,426.348ZM958.706,426.307C958.398,426.152 958.02,425.962 957.985,425.945C958.014,425.96 958.213,426.061 958.706,426.307ZM977.162,405.05C977.162,405.05 977.138,405.026 977.069,404.957C977.038,404.926 977.026,404.914 977.026,404.914L977.162,405.05ZM986.418,393.143C986.12,393.143 985.778,393.436 985.686,393.729C985.593,394.022 985.75,394.315 986.45,394.315C986.578,394.315 986.724,394.306 986.89,394.284C986.964,393.429 986.712,393.143 986.418,393.143Z" style="fill:rgb(38,13,19);fill-rule:nonzero;"/>
            <path d="M985.168,433L977.728,433L1040.73,370L1048.17,370L1007.74,410.427C1007.87,410.135 1008,409.841 1008.24,409.654L1006.53,409.654L1006.53,411.362C1006.56,411.364 1006.59,411.365 1006.62,411.365C1006.69,411.365 1006.76,411.36 1006.82,411.351L985.168,433ZM988.598,425.026L988.598,425.88L989.452,425.88L989.452,425.026L988.598,425.026ZM1005.69,405.363C1005.56,405.363 1005.41,405.483 1005.25,405.813C1005.52,406.098 1005.71,406.203 1005.84,406.203C1006.02,406.203 1006.06,405.993 1006.02,405.783C1005.98,405.573 1005.86,405.363 1005.69,405.363ZM1010.02,402.316C1009.92,402.316 1009.76,402.45 1009.52,402.824C1009.64,403.104 1009.76,403.208 1009.86,403.208C1010,403.208 1010.11,402.985 1010.15,402.762C1010.19,402.539 1010.16,402.316 1010.02,402.316ZM1014.6,402.354C1014.6,402.354 1014.62,402.366 1014.65,402.398C1014.72,402.465 1014.74,402.489 1014.74,402.489C1014.74,402.489 1014.71,402.455 1014.67,402.421C1014.64,402.387 1014.6,402.354 1014.6,402.354Z" style="fill:rgb(38,13,19);fill-rule:nonzero;"/>
            <path d="M1016.74,433L1009.3,433L1072.3,370L1079.74,370L1016.74,433ZM1015.5,428.869L1015.5,430.147C1015.63,430.18 1015.73,430.195 1015.83,430.195C1016.59,430.195 1016.38,429.224 1016.78,428.869L1015.5,428.869ZM1068.38,379.3C1068.26,379.3 1068.15,379.312 1068.02,379.337C1067.54,379.832 1067.73,380.012 1067.91,380.381L1068.53,379.308C1068.48,379.303 1068.43,379.3 1068.38,379.3Z" style="fill:rgb(38,13,19);fill-rule:nonzero;"/>
            <path d="M1048.3,433L1040.86,433L1082.5,391.36C1080.82,395.982 1078.82,400.458 1076.54,404.76L1048.3,433Z" style="fill:rgb(38,13,19);fill-rule:nonzero;"/>
            <path d="M1037.52,433L1032.09,433C1032.59,431.604 1033.54,430.516 1034.79,430.516C1035.65,430.516 1036.63,431.023 1037.71,432.285C1037.67,432.55 1037.61,432.786 1037.52,433ZM1026.49,433L1025.82,433C1025.95,432.775 1026.08,432.69 1026.18,432.69C1026.32,432.69 1026.43,432.832 1026.49,433ZM911.353,433L911.017,433C910.682,432.767 910.514,432.367 910.028,432.285C910.08,431.964 910.252,431.834 910.456,431.834C910.892,431.834 911.477,432.426 911.353,433ZM850.754,433L848.644,433C847.789,431.221 850.369,428.553 853.016,428.553C853.521,428.553 854.029,428.65 854.515,428.869C853.791,430.746 850.803,430.977 850.754,433ZM834.873,433L833.793,433C833.6,432.746 833.516,432.381 833.165,432.285C833.251,431.91 833.672,431.872 834.132,431.872C834.191,431.872 834.251,431.872 834.311,431.873C834.37,431.874 834.429,431.874 834.488,431.874C834.622,431.874 834.753,431.871 834.873,431.857L834.873,433ZM823.628,433L822.892,433C822.803,432.237 823.562,432.325 824.2,432.285C824.087,432.602 823.91,432.854 823.628,433ZM1030.03,431.904C1029.46,431.904 1029.28,431.575 1029.32,431.245C1029.36,430.916 1029.62,430.587 1029.91,430.587C1030.09,430.587 1030.28,430.703 1030.45,431.004L1030.45,431.857C1030.29,431.889 1030.15,431.904 1030.03,431.904ZM1003.54,431.431C1002.94,430.91 1002.57,429.801 1003.12,429.294C1003.34,429.241 1003.53,429.219 1003.7,429.219C1004.11,429.219 1004.4,429.345 1004.68,429.47C1004.96,429.595 1005.25,429.721 1005.66,429.721L1005.68,429.721C1005.34,430.668 1003.04,429.641 1003.54,431.431ZM819.369,431.258C819.09,431.258 818.707,431.102 818.22,431.004C818.249,430.13 818.434,429.894 818.777,429.894C819.056,429.894 819.439,430.051 819.927,430.147C819.899,431.021 819.713,431.258 819.369,431.258ZM953.675,431.097C953.675,431.097 953.651,431.072 953.582,431.004C953.551,430.973 953.539,430.961 953.539,430.961C953.539,430.961 953.574,430.995 953.607,431.029C953.641,431.063 953.676,431.097 953.675,431.097ZM827.588,431.078C827.14,431.078 826.502,430.658 826.332,430.579C826.355,430.203 826.543,430.077 826.788,430.077C827.235,430.077 827.873,430.497 828.043,430.579C828.02,430.953 827.832,431.078 827.588,431.078ZM967.009,430.593C966.083,430.593 965.854,429.9 965.965,428.869C966.052,428.884 966.131,428.89 966.203,428.89C966.527,428.89 966.719,428.759 966.91,428.627C967.101,428.495 967.292,428.363 967.616,428.363C967.751,428.363 967.909,428.386 968.1,428.441C968.421,429.756 966.629,428.963 967.248,430.579C967.164,430.589 967.084,430.593 967.009,430.593ZM1015.83,430.195C1015.73,430.195 1015.63,430.18 1015.5,430.147L1015.5,428.869L1016.78,428.869C1016.38,429.224 1016.59,430.195 1015.83,430.195ZM937.448,429.814C937.448,429.814 937.414,429.78 937.38,429.746C937.346,429.712 937.312,429.678 937.312,429.678C937.313,429.678 937.324,429.69 937.355,429.721C937.424,429.79 937.448,429.814 937.448,429.814ZM871.045,429.366C870.351,429.366 870.108,428.915 870.316,428.015L871.596,428.015L871.596,429.294C871.389,429.342 871.205,429.366 871.045,429.366ZM1034.73,429.252C1034.21,429.252 1033.68,428.828 1033.86,428.015C1033.9,428.012 1033.93,428.011 1033.96,428.011C1034.27,428.011 1034.48,428.121 1034.68,428.231C1034.88,428.342 1035.08,428.452 1035.4,428.452C1035.45,428.452 1035.51,428.449 1035.57,428.441C1035.54,428.987 1035.14,429.252 1034.73,429.252ZM938.256,428.506C938.137,428.506 937.982,428.487 937.783,428.441C937.808,428.076 937.963,427.952 938.13,427.952C938.307,427.952 938.499,428.091 938.566,428.229C938.633,428.368 938.576,428.506 938.256,428.506ZM902.666,427.59C901.421,427.59 901.295,426.465 901.061,425.45C901.402,425.152 901.912,425.022 902.553,425.022C902.623,425.022 902.694,425.023 902.767,425.026C903.564,425.784 902.422,426.109 902.767,427.588C902.732,427.589 902.699,427.59 902.666,427.59ZM836.581,427.588C836.182,427.13 835.005,427.454 835.301,426.307C835.509,426.259 835.692,426.235 835.852,426.235C836.546,426.235 836.789,426.686 836.581,427.588ZM955.717,427.161L954.863,427.161C954.942,426.795 954.696,426.758 954.435,426.734C954.365,426.389 954.692,426.223 955.049,426.223C955.547,426.223 956.105,426.548 955.717,427.161ZM959.098,426.502L959.064,426.485L959.098,426.502ZM959.064,426.485L959.027,426.467L959.064,426.485ZM958.942,426.424L958.79,426.348C958.851,426.378 958.9,426.401 958.942,426.424ZM953.53,426.383C953.362,426.383 953.17,426.296 952.969,426.192C952.921,426.167 952.873,426.142 952.825,426.116C952.571,425.983 952.309,425.85 952.063,425.85C951.999,425.85 951.936,425.859 951.874,425.88C952.039,423.36 954.277,420.688 956.392,420.688C956.895,420.688 957.392,420.84 957.852,421.181C956.568,422.195 953.896,423.609 953.889,425.271C953.888,425.471 953.926,425.674 954.009,425.88C953.9,426.256 953.732,426.383 953.53,426.383ZM958.79,426.348C958.764,426.336 958.737,426.322 958.706,426.307L958.79,426.348ZM958.706,426.307C958.213,426.061 958.014,425.96 957.985,425.945C958.02,425.962 958.398,426.152 958.706,426.307ZM1002.14,426.277C1002.14,426.277 1002.18,426.061 1002.26,425.45C1002.31,425.147 1002.32,425.031 1002.32,425.031C1002.32,425.031 1002.28,425.342 1002.23,425.653C1002.19,425.965 1002.15,426.277 1002.14,426.277ZM844.178,426.263C844.079,426.263 843.964,426.159 843.842,425.88C844.08,425.506 844.243,425.371 844.345,425.371C844.476,425.371 844.506,425.594 844.468,425.817C844.429,426.04 844.322,426.263 844.178,426.263ZM1009.61,425.972C1009.61,425.972 1009.59,425.948 1009.52,425.88C1009.49,425.849 1009.48,425.836 1009.48,425.836C1009.48,425.836 1009.51,425.87 1009.55,425.904C1009.58,425.938 1009.61,425.972 1009.61,425.972ZM916.447,425.951C915.802,425.951 915.235,425.55 915.579,424.599L917.714,424.599C918.026,425.425 917.186,425.951 916.447,425.951ZM989.452,425.88L988.598,425.88L988.598,425.026L989.452,425.026L989.452,425.88ZM921.288,425.427C920.392,425.427 919.558,425.032 919.422,424.172C919.695,424.225 919.941,424.248 920.165,424.248C920.809,424.248 921.272,424.06 921.678,423.873C922.083,423.685 922.431,423.498 922.844,423.498C923.094,423.498 923.368,423.566 923.692,423.745C923.687,423.807 923.678,423.868 923.665,423.927C923.53,424.561 922.996,425.01 922.35,425.243C922.013,425.364 921.646,425.427 921.288,425.427ZM852.535,425.086C852.318,425.086 852.206,424.878 852.209,424.669C852.211,424.461 852.329,424.253 852.571,424.253C852.735,424.253 852.955,424.347 853.234,424.599C852.94,424.958 852.705,425.086 852.535,425.086ZM899.78,422.891C898.312,422.606 896.968,420.62 896.76,419.264C896.648,418.533 896.866,417.985 897.573,417.985C897.696,417.985 897.834,418.002 897.988,418.037C898.351,418.12 898.802,418.307 899.35,418.623C896.73,419.831 899.633,420.894 899.78,422.891ZM818.356,422.143C818.203,422.142 818.018,422.11 817.792,422.037C817.619,420.873 818.029,420.29 819.02,420.29C819.168,420.29 819.328,420.303 819.502,420.329C818.982,420.796 819.343,422.143 818.356,422.143ZM857.477,422.109C857.03,422.109 856.394,421.689 856.223,421.607C856.246,421.233 856.433,421.108 856.678,421.108C857.125,421.108 857.763,421.528 857.933,421.607C857.909,421.984 857.721,422.11 857.477,422.109ZM900.679,420.821C900.56,420.821 900.404,420.801 900.205,420.756C900.23,420.391 900.385,420.268 900.552,420.268C900.729,420.268 900.92,420.406 900.988,420.544C901.055,420.682 900.998,420.821 900.679,420.821ZM778.497,420.344L778.485,420.322C778.493,420.325 778.501,420.327 778.509,420.329C778.505,420.334 778.501,420.339 778.497,420.344ZM842.207,419.983C842.105,419.983 841.943,419.848 841.704,419.475C841.828,419.195 841.944,419.09 842.042,419.09C842.187,419.09 842.294,419.313 842.332,419.537C842.37,419.76 842.339,419.983 842.207,419.983ZM1032.03,419.973C1031.33,419.973 1031.09,419.523 1031.3,418.623L1032.58,418.623L1032.58,419.901C1032.37,419.949 1032.19,419.973 1032.03,419.973ZM838.336,419.54C838.217,419.54 838.061,419.521 837.861,419.475C837.886,419.11 838.041,418.987 838.208,418.987C838.385,418.987 838.577,419.125 838.644,419.263C838.712,419.402 838.655,419.54 838.336,419.54ZM945.781,419.048C945.176,419.048 944.746,417.481 945.042,416.486L946.75,416.486C947.116,417.481 945.258,418.325 946.323,418.623C946.137,418.923 945.952,419.048 945.781,419.048ZM855.177,418.969C855.014,418.969 854.795,418.874 854.515,418.623C854.81,418.263 855.045,418.134 855.215,418.134C855.432,418.134 855.544,418.343 855.541,418.552C855.538,418.76 855.42,418.969 855.177,418.969ZM888.946,418.237C888.272,418.237 887.786,418.05 887.394,417.767C887.304,416.339 887.926,415.623 889.264,415.623C889.35,415.623 889.44,415.626 889.532,415.632C890.114,416.177 890.114,417.647 889.532,418.194C889.322,418.223 889.128,418.237 888.946,418.237ZM992.415,416.987C991.968,416.987 991.33,416.566 991.16,416.486C991.183,416.11 991.37,415.984 991.614,415.984C992.061,415.984 992.698,416.404 992.868,416.486C992.846,416.862 992.659,416.987 992.415,416.987ZM891.714,416.978C891.594,416.978 891.438,416.959 891.238,416.913C891.263,416.549 891.418,416.425 891.586,416.425C891.763,416.425 891.954,416.564 892.022,416.702C892.089,416.84 892.033,416.978 891.714,416.978ZM817.792,416.913C817.044,416.524 816.309,416.12 816.513,414.78C816.901,414.496 817.384,414.31 818.053,414.31C818.236,414.31 818.433,414.324 818.646,414.353C818.402,415.245 817.587,415.568 817.792,416.913ZM982.922,416.558C982.229,416.558 981.985,416.107 982.193,415.205C982.265,415.199 982.333,415.196 982.398,415.196C983.186,415.196 983.546,415.626 983.472,416.486C983.265,416.534 983.081,416.558 982.922,416.558ZM826.808,416.124C826.689,416.124 826.532,416.105 826.332,416.059C826.357,415.695 826.511,415.571 826.679,415.571C826.856,415.571 827.048,415.709 827.115,415.848C827.183,415.986 827.127,416.124 826.808,416.124ZM941.795,415.47C941.426,415.47 941.046,414.976 940.612,414.483C940.603,414.472 940.593,414.461 940.583,414.449C940.157,413.967 939.68,413.496 939.111,413.496C939.095,413.496 939.08,413.496 939.064,413.497C939.581,411.737 942.622,409.258 945.046,409.258C945.273,409.258 945.494,409.28 945.707,409.325C946.488,409.494 947.162,409.987 947.604,410.935C947.062,410.72 946.538,410.626 946.034,410.626C945.254,410.626 944.522,410.85 943.842,411.19C942.645,411.79 941.612,412.753 940.773,413.497C940.867,413.657 940.955,413.823 941.051,413.981C941.315,414.414 941.643,414.785 942.341,414.785C942.386,414.785 942.432,414.783 942.48,414.78C942.249,415.279 942.024,415.47 941.795,415.47ZM843.846,414.393C842.69,414.393 842.587,413.343 842.56,412.216L844.267,412.216L844.267,414.353C844.113,414.38 843.974,414.393 843.846,414.393ZM800.094,413.94L797.821,410.005C798.358,409.546 799.02,409.238 799.681,409.238C800.798,409.238 801.913,410.119 802.42,412.643C801.878,412.313 801.495,412.183 801.223,412.183C800.237,412.183 800.697,413.886 800.285,413.924C800.22,413.93 800.156,413.936 800.094,413.94ZM977.248,413.085C976.331,413.085 976.102,412.392 976.215,411.362C976.603,411.176 976.914,411.092 977.154,411.092C977.923,411.092 977.961,411.957 977.494,413.07C977.407,413.08 977.325,413.085 977.248,413.085ZM881.814,412.766C880.698,412.766 879.202,410.935 879.282,409.228C880.059,409.006 881.003,408.326 881.936,408.326C882.339,408.326 882.741,408.453 883.125,408.8C882.734,409.894 879.99,411.51 882.272,412.643C882.132,412.727 881.977,412.766 881.814,412.766ZM898.741,412.728C898.243,412.728 897.685,412.402 898.072,411.789C898.143,411.777 898.207,411.771 898.265,411.771C898.775,411.771 898.863,412.195 899.35,412.216C899.422,412.562 899.097,412.728 898.741,412.728ZM864.213,412.715C863.519,412.715 863.275,412.264 863.483,411.362L864.763,411.362L864.763,412.643C864.556,412.691 864.372,412.715 864.213,412.715ZM984.917,412.606C984.792,412.606 984.601,412.501 984.328,412.216C984.484,411.887 984.636,411.768 984.763,411.768C984.932,411.768 985.06,411.977 985.1,412.187C985.14,412.397 985.094,412.606 984.917,412.606ZM1006.62,411.365C1006.59,411.365 1006.56,411.364 1006.53,411.362L1006.53,409.654L1008.24,409.654C1008,409.841 1007.87,410.135 1007.74,410.427C1007.55,410.85 1007.35,411.269 1006.82,411.351C1006.76,411.36 1006.69,411.365 1006.62,411.365ZM796.85,411.281C796.94,411.079 797.056,410.88 797.191,410.69L796.85,411.281ZM833.894,411.006C833.201,411.006 832.957,410.556 833.165,409.654C833.237,409.648 833.306,409.645 833.372,409.645C834.16,409.645 834.519,410.076 834.445,410.935C834.238,410.982 834.054,411.006 833.894,411.006ZM989.879,410.511L989.025,410.511L989.025,409.654L989.879,409.654L989.879,410.511ZM1026.88,409.953C1026.81,409.953 1026.83,409.756 1027.03,409.228L1027.03,408.8C1027.43,408.4 1027.65,408.247 1027.75,408.247C1027.92,408.247 1027.75,408.673 1027.52,409.1C1027.28,409.527 1026.98,409.953 1026.88,409.953ZM932.232,409.228L930.951,409.228L930.951,408.373C931.11,408.346 931.255,408.332 931.387,408.332C931.967,408.332 932.278,408.602 932.232,409.228ZM998.419,408.8C997.13,408.637 997.346,406.563 998.709,406.563C998.879,406.563 999.067,406.596 999.272,406.668C999.339,407.727 998.602,407.988 998.419,408.8ZM842.18,408.438C842.06,408.438 841.904,408.419 841.704,408.373C841.729,408.009 841.884,407.885 842.051,407.885C842.228,407.885 842.42,408.024 842.487,408.162C842.555,408.3 842.499,408.438 842.18,408.438ZM1018.25,407.979C1018.2,407.979 1018.25,407.859 1018.49,407.519C1018.75,407.33 1018.88,407.258 1018.93,407.258C1019,407.258 1018.86,407.439 1018.69,407.619C1018.52,407.799 1018.31,407.979 1018.25,407.979ZM1001.83,407.946C1001.37,407.841 1001.55,407.097 1000.98,407.092C1001.05,406.593 1001.76,406.73 1002.26,406.668C1002.38,407.355 1001.86,407.401 1001.83,407.946ZM987.849,407.467C986.737,407.467 986.097,404.945 987.317,404.53C987.456,404.52 987.584,404.515 987.703,404.515C988.414,404.515 988.805,404.685 989.123,404.854C989.442,405.024 989.689,405.194 990.111,405.194C990.373,405.194 990.703,405.128 991.16,404.957C991.107,406.21 986.709,405.312 988.598,407.092C988.336,407.356 988.082,407.467 987.849,407.467ZM897.876,407.383C897.479,407.383 897.079,407.153 897.219,406.668C897.285,406.434 897.523,406.341 897.778,406.341C898.086,406.341 898.418,406.478 898.497,406.668C898.695,407.136 898.287,407.383 897.876,407.383ZM1005.84,406.203C1005.71,406.203 1005.52,406.098 1005.25,405.813C1005.41,405.483 1005.56,405.363 1005.69,405.363C1005.86,405.363 1005.98,405.573 1006.02,405.783C1006.06,405.993 1006.02,406.203 1005.84,406.203ZM977.162,405.05C977.162,405.05 977.128,405.016 977.094,404.982C977.06,404.948 977.026,404.914 977.026,404.914C977.026,404.914 977.038,404.926 977.069,404.957C977.138,405.026 977.162,405.05 977.162,405.05ZM976.643,404.53C976.013,404.489 975.815,404.016 975.772,403.388C975.751,403.084 975.766,402.743 975.786,402.398L977.494,402.398C977.812,403.711 976.323,403.216 976.643,404.53ZM919.597,403.687C919.542,403.687 919.484,403.683 919.422,403.676C919.774,402.468 918.819,402.571 918.995,401.543L920.703,401.543C920.482,401.96 920.513,402.629 920.355,403.109C920.263,403.389 920.106,403.605 919.797,403.668C919.736,403.68 919.67,403.687 919.597,403.687ZM924.117,403.676C923.366,403.19 922.864,402.455 922.604,401.479L924.712,401.479C924.37,402.126 924.223,402.592 924.117,403.676ZM1009.86,403.208C1009.76,403.208 1009.64,403.104 1009.52,402.824C1009.76,402.45 1009.92,402.316 1010.02,402.316C1010.16,402.316 1010.19,402.539 1010.15,402.762C1010.11,402.985 1010,403.208 1009.86,403.208ZM1014.74,402.489C1014.74,402.489 1014.72,402.465 1014.65,402.398C1014.62,402.366 1014.6,402.354 1014.6,402.354C1014.6,402.354 1014.64,402.387 1014.67,402.421C1014.71,402.455 1014.74,402.489 1014.74,402.489ZM1036,402.398C1034.29,401.817 1034.85,400.206 1036.07,400.206C1036.43,400.206 1036.85,400.345 1037.28,400.69C1036.85,401.257 1036.12,401.527 1036,402.398ZM1055.61,401.688C1055.07,399.617 1056.08,396.966 1057.82,396.966C1057.97,396.966 1058.13,396.987 1058.3,397.032L1055.61,401.688ZM951.928,401.583C951.718,401.583 951.551,401.54 951.402,401.479L951.845,401.479L951.213,400.384C951.24,400.382 951.268,400.38 951.296,400.38C951.795,400.38 952.366,400.817 952.301,401.543C952.162,401.571 952.039,401.583 951.928,401.583ZM1004.44,400.754C1004.32,400.754 1004.17,400.735 1003.97,400.69C1003.99,400.325 1004.15,400.201 1004.32,400.201C1004.49,400.201 1004.68,400.34 1004.75,400.478C1004.82,400.616 1004.76,400.754 1004.44,400.754ZM963.818,400.721C963.119,400.721 962.962,400.427 963.054,400.134C963.147,399.841 963.488,399.548 963.786,399.548C964.08,399.548 964.331,399.834 964.257,400.69C964.091,400.711 963.946,400.721 963.818,400.721ZM956.571,400.69C955.84,400.664 955.339,400.403 955.022,400.01C954.268,399.077 954.56,397.404 955.292,396.419L955.331,396.419C956.424,396.419 956.844,397.094 957.512,397.52C957.618,397.588 957.73,397.649 957.852,397.7C955.886,398.069 957.303,399.606 956.571,400.69ZM1034.38,399.5C1034.38,399.5 1034.35,399.465 1034.31,399.431C1034.28,399.397 1034.25,399.364 1034.25,399.364C1034.25,399.364 1034.26,399.375 1034.29,399.406C1034.36,399.475 1034.38,399.5 1034.38,399.5ZM999.783,398.174C998.96,398.173 998.5,396.394 998.846,395.137C999.121,395.122 999.393,395.11 999.654,395.11C1000.39,395.11 1001.04,395.201 1001.41,395.563C1001.29,396.208 999.573,397.36 1000.55,397.7C1000.27,398.033 1000.01,398.174 999.783,398.174ZM1032.42,397.277C1031.37,397.277 1031.14,396.586 1031.73,395.99C1032.25,396.178 1032.6,396.539 1032.58,397.271C1032.52,397.275 1032.47,397.277 1032.42,397.277ZM1023.28,395.23C1023.28,395.23 1023.25,395.206 1023.18,395.137C1023.15,395.106 1023.14,395.094 1023.14,395.094C1023.14,395.094 1023.18,395.128 1023.21,395.162C1023.24,395.196 1023.28,395.23 1023.28,395.23ZM1026.18,394.712L1025.32,394.712C1025.4,394.348 1025.16,394.306 1024.89,394.284C1024.82,393.938 1025.15,393.772 1025.51,393.772C1026,393.772 1026.56,394.097 1026.18,394.712ZM978.442,394.376C978.442,394.376 978.418,394.352 978.35,394.284C978.319,394.253 978.307,394.241 978.307,394.241C978.308,394.241 978.342,394.274 978.375,394.308C978.409,394.342 978.443,394.376 978.442,394.376ZM986.45,394.315C985.75,394.315 985.593,394.022 985.686,393.729C985.778,393.436 986.12,393.143 986.418,393.143C986.712,393.143 986.964,393.429 986.89,394.284C986.724,394.306 986.578,394.315 986.45,394.315ZM1011.55,392.717C1010.26,392.717 1010.06,391.721 1010.45,390.725C1010.84,389.73 1011.8,388.734 1012.84,388.734C1013.45,388.734 1014.09,389.09 1014.65,390.015C1013.68,390.351 1011.22,391.394 1012.51,392.576C1012.14,392.673 1011.82,392.717 1011.55,392.717ZM967.673,390.868C966.84,390.465 966.54,389.144 967.84,389.144C967.92,389.144 968.007,389.149 968.1,389.16C968.28,390.052 967.809,390.292 967.673,390.868ZM972.431,390.542C971.757,390.542 971.003,390.044 971.516,389.16C971.567,389.163 971.619,389.164 971.673,389.164C971.79,389.164 971.912,389.159 972.034,389.154C972.155,389.149 972.277,389.144 972.394,389.144C972.82,389.144 973.179,389.211 973.226,389.588C973.429,390.242 972.954,390.542 972.431,390.542ZM1037.35,390.495C1036.6,390.495 1036.74,389.591 1036,389.588C1036.08,389.249 1036.34,389.107 1036.64,389.107C1037.25,389.107 1038.01,389.713 1037.71,390.441C1037.57,390.478 1037.45,390.495 1037.35,390.495ZM1044.96,390.441C1042.01,390.085 1043.72,386.73 1045.11,386.73C1045.61,386.73 1046.06,387.159 1046.25,388.306C1046.14,388.297 1046.04,388.293 1045.94,388.293C1044.43,388.293 1044.62,389.43 1044.96,390.441ZM1001,389.579C999.865,389.579 998.462,389.318 997.621,388.979C997.426,388.901 997.262,388.818 997.138,388.733L997.138,386.599C998.99,386.209 1000.15,385.124 1001.93,384.669C1002.41,384.546 1002.94,384.469 1003.54,384.464C1004.08,385.496 1004.6,386.538 1004.82,387.877L1002.26,387.877C1003.48,389.144 1002.47,389.579 1001,389.579ZM1041.12,387.877L1040.27,387.877L1040.27,387.023L1041.12,387.023L1041.12,387.877ZM1052.22,387.45C1051.72,387.382 1051.86,386.674 1051.8,386.172C1051.95,386.14 1052.08,386.125 1052.19,386.125C1053.06,386.125 1052.45,387.097 1052.22,387.45ZM1055.44,381.127C1055.28,381.127 1055.06,381.104 1054.79,381.048C1054.93,380.685 1055.17,380.561 1055.39,380.561C1055.62,380.561 1055.84,380.702 1055.9,380.844C1055.95,380.986 1055.85,381.127 1055.44,381.127ZM1067.91,380.381C1067.73,380.012 1067.54,379.832 1068.02,379.337C1068.15,379.312 1068.26,379.3 1068.38,379.3C1068.43,379.3 1068.48,379.303 1068.53,379.308L1067.91,380.381ZM947.177,379.337L946.323,379.337L946.323,378.485L947.177,378.485L947.177,379.337ZM1064.52,375.452C1064.42,375.452 1064.3,375.347 1064.18,375.067C1064.42,374.694 1064.58,374.56 1064.68,374.56C1064.81,374.56 1064.84,374.783 1064.81,375.006C1064.77,375.229 1064.66,375.452 1064.52,375.452ZM1005.84,371.617C1005.72,371.617 1005.52,371.511 1005.25,371.226C1005.41,370.897 1005.56,370.777 1005.69,370.777C1005.86,370.777 1005.98,370.987 1006.02,371.197C1006.06,371.407 1006.02,371.617 1005.84,371.617ZM974.315,371.573C974.151,371.573 973.931,371.479 973.65,371.226C973.944,370.868 974.179,370.739 974.35,370.739C974.567,370.739 974.679,370.947 974.677,371.156C974.675,371.365 974.557,371.573 974.315,371.573Z" style="fill:rgb(38,13,21);fill-rule:nonzero;"/>
            <path d="M946.114,401.479L924.712,401.479C924.885,401.152 925.108,400.78 925.4,400.26C925.115,399.955 924.511,399.803 923.906,399.803C923.821,399.803 923.737,399.806 923.653,399.812L940.916,382.549L949.747,397.845L946.114,401.479ZM922.604,401.479L921.986,401.479L922.494,400.971C922.524,401.147 922.561,401.316 922.604,401.479ZM914.546,401.479L890.418,401.479L895.576,396.321C895.816,397.016 896.621,397.581 897.261,397.581C897.821,397.581 898.255,397.148 898.072,395.99L895.906,395.99L921.896,370L923.267,370C923.47,370.179 923.75,370.311 924.117,370.373C924.08,370.24 924.052,370.115 924.033,370L924.559,370C924.898,371.348 925.745,372.186 927.108,372.508C926.98,371.511 926.195,370.668 927.535,370.373C927.535,370.51 927.651,370.651 927.764,370.651C927.847,370.651 927.927,370.577 927.962,370.373C927.868,370.23 927.777,370.106 927.69,370L933.671,370L938.192,377.832L936.513,379.512C936.193,379.446 935.882,379.415 935.582,379.415C933.143,379.415 931.513,381.432 933.204,382.821L914.546,401.479ZM911.646,396.036C911.548,396.036 911.432,396.14 911.31,396.419C911.548,396.793 911.71,396.928 911.812,396.928C911.943,396.928 911.973,396.705 911.935,396.482C911.897,396.259 911.79,396.036 911.646,396.036ZM905.759,393.001C905.685,393.863 906.046,394.293 906.837,394.293C906.901,394.293 906.968,394.29 907.037,394.284L907.037,393.001L905.759,393.001ZM920.971,389.649C920.767,389.649 920.553,389.74 920.274,390.015C920.066,390.874 920.705,391.303 921.343,391.303C921.982,391.303 922.62,390.874 922.411,390.015C921.713,389.984 921.361,389.649 920.971,389.649ZM904.904,388.306C904.349,388.874 904.342,389.897 905.331,390.015C905.885,389.447 905.894,388.426 904.904,388.306ZM912.937,383.976C912.77,383.976 912.615,384.099 912.591,384.464C912.791,384.51 912.946,384.529 913.066,384.529C913.384,384.529 913.44,384.391 913.373,384.252C913.305,384.114 913.114,383.976 912.937,383.976ZM884.102,401.479L699.511,401.479L715,370L882.889,370L875.714,377.175C876.147,379.187 876.636,381.181 877.18,383.149L890.329,370L914.457,370L883.737,400.72C883.858,400.976 883.978,401.224 884.102,401.479ZM841.189,400.305C841.09,400.305 840.975,400.41 840.852,400.69C841.09,401.063 841.253,401.198 841.355,401.198C841.486,401.198 841.517,400.975 841.478,400.752C841.44,400.528 841.333,400.305 841.189,400.305ZM879.094,394.615C875.65,394.615 871.335,399.206 876.722,400.26C877.736,396.302 880.058,399.09 881.846,396.419C881.28,395.118 880.234,394.615 879.094,394.615ZM795.593,396.911C794.966,396.911 794.517,397.536 794.481,398.161C794.446,398.786 794.823,399.411 795.848,399.411C795.902,399.411 795.957,399.41 796.015,399.406C795.841,398.379 796.794,398.479 796.442,397.271C796.14,397.016 795.852,396.911 795.593,396.911ZM840.499,396.873C839.202,396.873 838.112,398.133 839.144,399.406C839.2,399.409 839.256,399.411 839.309,399.411C840.819,399.411 841.111,398.189 841.704,397.271C841.32,396.994 840.9,396.873 840.499,396.873ZM842.986,398.128C842.987,398.555 842.642,398.634 842.56,398.98C842.987,398.98 843.068,399.326 843.414,399.406C843.411,398.98 843.76,398.899 843.842,398.555C843.411,398.555 843.332,398.207 842.986,398.128ZM825.248,396.828C825.189,396.828 825.124,396.834 825.053,396.847C824.665,397.458 825.223,397.783 825.721,397.783C826.078,397.783 826.404,397.617 826.332,397.271C825.845,397.252 825.757,396.828 825.248,396.828ZM775,391.279C773.189,391.279 772.065,392.778 771.989,394.277C771.914,395.777 772.889,397.276 775.278,397.276C775.357,397.276 775.437,397.275 775.519,397.271C774.155,394.841 777.126,394.39 776.798,391.721C776.144,391.413 775.541,391.279 775,391.279ZM849.491,390.438C849.459,390.438 849.426,390.439 849.392,390.441C848.494,391.383 848.999,393.027 850.367,393.027C850.464,393.027 850.566,393.018 850.672,393.001C850.32,391.798 851.274,391.896 851.101,390.868C851.04,390.875 850.982,390.878 850.929,390.878C850.614,390.878 850.411,390.768 850.209,390.658C850.006,390.548 849.803,390.438 849.491,390.438ZM837.009,390.015C836.112,390.957 836.618,392.601 837.986,392.601C838.082,392.601 838.183,392.593 838.288,392.576C839.05,391.164 839.404,390.057 837.009,390.015ZM849.618,375.912C848.435,375.912 847.253,376.313 846.402,377.205C848.055,380.9 851.958,388.086 857.077,388.306C856.418,386.346 854.414,385.163 856.65,383.607C856.579,383.603 856.509,383.6 856.443,383.6C855.939,383.6 855.565,383.728 855.19,383.856C854.815,383.983 854.44,384.111 853.936,384.111C853.727,384.111 853.497,384.089 853.234,384.036C852.81,382.751 851.725,382.129 851.954,380.193C852.713,379.957 853.727,379.973 854.09,379.337C853.903,377.228 851.759,375.912 849.618,375.912ZM758.374,385.49L759.794,387.949C759.898,387.939 760.014,387.916 760.146,387.877C759.774,386.227 761.189,386.359 761.427,385.317C760.999,385.012 760.474,384.862 759.962,384.862C759.355,384.862 758.765,385.074 758.374,385.49ZM803.7,384.024C803.196,384.024 802.692,384.17 802.42,384.464C802.411,386.306 800.512,386.256 799.857,387.45C800.317,387.693 800.813,387.803 801.309,387.803C803.123,387.803 804.94,386.328 804.983,384.464C804.709,384.17 804.204,384.024 803.7,384.024ZM833.511,386.964C833.344,386.964 833.19,387.087 833.165,387.45C833.366,387.497 833.523,387.516 833.642,387.516C833.96,387.516 834.016,387.378 833.948,387.24C833.88,387.102 833.689,386.964 833.511,386.964ZM874.505,381.84C874.338,381.84 874.184,381.964 874.159,382.329C874.358,382.374 874.513,382.394 874.632,382.394C874.951,382.394 875.008,382.255 874.941,382.117C874.874,381.978 874.682,381.84 874.505,381.84ZM793.035,375.475C792.908,375.475 792.756,375.594 792.6,375.924C792.873,376.209 793.064,376.314 793.189,376.314C793.367,376.314 793.413,376.104 793.372,375.894C793.332,375.685 793.204,375.475 793.035,375.475ZM753.791,373.768C753.571,373.768 753.516,373.976 753.573,374.184C753.631,374.392 753.801,374.6 754.032,374.6C754.196,374.6 754.389,374.496 754.595,374.216C754.217,373.888 753.957,373.768 753.791,373.768ZM934.458,381.566C934.524,381.39 934.654,381.244 934.878,381.146L934.458,381.566ZM924.997,370.034C924.908,370.034 924.815,370.023 924.719,370L925.282,370C925.19,370.021 925.096,370.034 924.997,370.034Z" style="fill:rgb(240,73,35);fill-rule:nonzero;"/>
            <path d="M877.18,383.149C876.636,381.181 876.147,379.187 875.714,377.175L882.889,370L890.329,370L877.18,383.149ZM881.922,373.803C879.186,373.803 876.278,378.454 881.417,378.485C880.84,375.914 883.449,376.531 883.98,375.067C883.423,374.159 882.679,373.803 881.922,373.803ZM876.343,376.757C876.123,376.757 876.069,376.965 876.126,377.173C876.184,377.38 876.355,377.588 876.586,377.588C876.749,377.588 876.942,377.484 877.148,377.205C876.77,376.876 876.509,376.757 876.343,376.757Z" style="fill:rgb(38,16,10);fill-rule:nonzero;"/>
            <path d="M890.418,401.479L884.102,401.479C883.978,401.224 883.858,400.976 883.737,400.72L914.457,370L921.896,370L895.906,395.99L895.508,395.99C895.515,396.102 895.539,396.213 895.576,396.321L890.418,401.479ZM905.157,383.577C905.083,383.577 904.999,383.587 904.904,383.607C904.881,384.344 905.233,384.705 905.759,384.891C905.72,384.29 905.795,383.577 905.157,383.577Z" style="fill:rgb(38,16,10);fill-rule:nonzero;"/>
            <path d="M921.986,401.479L914.546,401.479L933.204,382.821C933.57,383.122 934.091,383.393 934.794,383.607C934.667,382.958 934.254,382.113 934.458,381.566L934.878,381.146C934.974,381.104 935.087,381.071 935.221,381.048C935.956,381.139 936.616,381.362 937.133,381.362C937.68,381.362 938.065,381.113 938.21,380.193C937.638,379.844 937.064,379.625 936.513,379.512L938.192,377.832L940.916,382.549L923.653,399.812C923.138,399.848 922.656,399.998 922.411,400.26C922.428,400.508 922.455,400.745 922.494,400.971L921.986,401.479ZM932.232,387.023L932.232,387.877L933.086,387.877L933.086,387.023L932.232,387.023Z" style="fill:rgb(38,16,10);fill-rule:nonzero;"/>
            <path d="M951.402,401.479L946.114,401.479L949.747,397.845L951.213,400.384C950.888,400.417 950.613,400.646 950.593,401.114C950.91,401.189 951.125,401.365 951.402,401.479Z" style="fill:rgb(38,16,10);fill-rule:nonzero;"/>
            <path d="M951.845,401.479L951.402,401.479C951.125,401.365 950.91,401.189 950.593,401.114C950.613,400.646 950.888,400.417 951.213,400.384L951.845,401.479ZM924.712,401.479L922.604,401.479C922.561,401.316 922.524,401.147 922.494,400.971C922.455,400.745 922.428,400.508 922.411,400.26C922.656,399.998 923.138,399.848 923.653,399.812C923.737,399.806 923.821,399.803 923.906,399.803C924.511,399.803 925.115,399.955 925.4,400.26C925.108,400.78 924.885,401.152 924.712,401.479ZM841.355,401.198C841.253,401.198 841.09,401.063 840.852,400.69C840.975,400.41 841.09,400.305 841.189,400.305C841.333,400.305 841.44,400.528 841.478,400.752C841.517,400.975 841.486,401.198 841.355,401.198ZM876.722,400.26C871.335,399.206 875.65,394.615 879.094,394.615C880.234,394.615 881.28,395.118 881.846,396.419C880.058,399.09 877.736,396.302 876.722,400.26ZM795.848,399.411C794.823,399.411 794.446,398.786 794.481,398.161C794.517,397.536 794.966,396.911 795.593,396.911C795.852,396.911 796.14,397.016 796.442,397.271C796.794,398.479 795.841,398.379 796.015,399.406C795.957,399.41 795.902,399.411 795.848,399.411ZM839.309,399.411C839.256,399.411 839.2,399.409 839.144,399.406C838.112,398.133 839.202,396.873 840.499,396.873C840.9,396.873 841.32,396.994 841.704,397.271C841.111,398.189 840.819,399.411 839.309,399.411ZM843.414,399.406C843.068,399.326 842.987,398.98 842.56,398.98C842.642,398.634 842.987,398.555 842.986,398.128C843.332,398.207 843.411,398.555 843.842,398.555C843.76,398.899 843.411,398.98 843.414,399.406ZM825.721,397.783C825.223,397.783 824.665,397.458 825.053,396.847C825.124,396.834 825.189,396.828 825.248,396.828C825.757,396.828 825.845,397.252 826.332,397.271C826.404,397.617 826.078,397.783 825.721,397.783ZM897.261,397.581C896.621,397.581 895.816,397.016 895.576,396.321C895.539,396.213 895.515,396.102 895.508,395.99L898.072,395.99C898.255,397.148 897.821,397.581 897.261,397.581ZM775.278,397.276C772.889,397.276 771.914,395.777 771.989,394.277C772.065,392.778 773.189,391.279 775,391.279C775.541,391.279 776.144,391.413 776.798,391.721C777.126,394.39 774.155,394.841 775.519,397.271C775.437,397.275 775.357,397.276 775.278,397.276ZM911.812,396.928C911.71,396.928 911.548,396.793 911.31,396.419C911.432,396.14 911.548,396.036 911.646,396.036C911.79,396.036 911.897,396.259 911.935,396.482C911.973,396.705 911.943,396.928 911.812,396.928ZM906.837,394.293C906.046,394.293 905.685,393.863 905.759,393.001L907.037,393.001L907.037,394.284C906.968,394.29 906.901,394.293 906.837,394.293ZM850.367,393.027C848.999,393.027 848.494,391.383 849.392,390.441C849.426,390.439 849.459,390.438 849.491,390.438C849.803,390.438 850.006,390.548 850.209,390.658C850.411,390.768 850.614,390.878 850.929,390.878C850.982,390.878 851.04,390.875 851.101,390.868C851.274,391.896 850.32,391.798 850.672,393.001C850.566,393.018 850.464,393.027 850.367,393.027ZM837.986,392.601C836.618,392.601 836.112,390.957 837.009,390.015C839.404,390.057 839.05,391.164 838.288,392.576C838.183,392.593 838.082,392.601 837.986,392.601ZM921.343,391.303C920.705,391.303 920.066,390.874 920.274,390.015C920.553,389.74 920.767,389.649 920.971,389.649C921.361,389.649 921.713,389.984 922.411,390.015C922.62,390.874 921.982,391.303 921.343,391.303ZM905.331,390.015C904.342,389.897 904.349,388.874 904.904,388.306C905.894,388.426 905.885,389.447 905.331,390.015ZM857.077,388.306C851.958,388.086 848.055,380.9 846.402,377.205C847.253,376.313 848.435,375.912 849.618,375.912C851.759,375.912 853.903,377.228 854.09,379.337C853.727,379.973 852.713,379.957 851.954,380.193C851.725,382.129 852.81,382.751 853.234,384.036C853.497,384.089 853.727,384.111 853.936,384.111C854.44,384.111 854.815,383.983 855.19,383.856C855.565,383.728 855.939,383.6 856.443,383.6C856.509,383.6 856.579,383.603 856.65,383.607C854.414,385.163 856.418,386.346 857.077,388.306ZM759.794,387.949L758.374,385.49C758.765,385.074 759.355,384.862 759.962,384.862C760.474,384.862 760.999,385.012 761.427,385.317C761.189,386.359 759.774,386.227 760.146,387.877C760.014,387.916 759.898,387.939 759.794,387.949ZM933.086,387.877L932.232,387.877L932.232,387.023L933.086,387.023L933.086,387.877ZM801.309,387.803C800.813,387.803 800.317,387.693 799.857,387.45C800.512,386.256 802.411,386.306 802.42,384.464C802.692,384.17 803.196,384.024 803.7,384.024C804.204,384.024 804.709,384.17 804.983,384.464C804.94,386.328 803.123,387.803 801.309,387.803ZM833.642,387.516C833.523,387.516 833.366,387.497 833.165,387.45C833.19,387.087 833.344,386.964 833.511,386.964C833.689,386.964 833.88,387.102 833.948,387.24C834.016,387.378 833.96,387.516 833.642,387.516ZM905.759,384.891C905.233,384.705 904.881,384.344 904.904,383.607C904.999,383.587 905.083,383.577 905.157,383.577C905.795,383.577 905.72,384.29 905.759,384.891ZM913.066,384.529C912.946,384.529 912.791,384.51 912.591,384.464C912.615,384.099 912.77,383.976 912.937,383.976C913.114,383.976 913.305,384.114 913.373,384.252C913.44,384.391 913.384,384.529 913.066,384.529ZM934.794,383.607C934.091,383.393 933.57,383.122 933.204,382.821C931.513,381.432 933.143,379.415 935.582,379.415C935.882,379.415 936.193,379.446 936.513,379.512C937.064,379.625 937.638,379.844 938.21,380.193C938.065,381.113 937.68,381.362 937.133,381.362C936.616,381.362 935.956,381.139 935.221,381.048C935.087,381.071 934.974,381.104 934.878,381.146C934.654,381.244 934.524,381.39 934.458,381.566C934.254,382.113 934.667,382.958 934.794,383.607ZM874.632,382.394C874.513,382.394 874.358,382.374 874.159,382.329C874.184,381.964 874.338,381.84 874.505,381.84C874.682,381.84 874.874,381.978 874.941,382.117C875.008,382.255 874.951,382.394 874.632,382.394ZM881.417,378.485C876.278,378.454 879.186,373.803 881.922,373.803C882.679,373.803 883.423,374.159 883.98,375.067C883.449,376.531 880.84,375.914 881.417,378.485ZM876.586,377.588C876.355,377.588 876.184,377.38 876.126,377.173C876.069,376.965 876.123,376.757 876.343,376.757C876.509,376.757 876.77,376.876 877.148,377.205C876.942,377.484 876.749,377.588 876.586,377.588ZM793.189,376.314C793.064,376.314 792.873,376.209 792.6,375.924C792.756,375.594 792.908,375.475 793.035,375.475C793.204,375.475 793.332,375.685 793.372,375.894C793.413,376.104 793.367,376.314 793.189,376.314ZM754.032,374.6C753.801,374.6 753.631,374.392 753.573,374.184C753.516,373.976 753.571,373.768 753.791,373.768C753.957,373.768 754.217,373.888 754.595,374.216C754.389,374.496 754.196,374.6 754.032,374.6ZM927.108,372.508C925.745,372.186 924.898,371.348 924.559,370L924.719,370C924.815,370.023 924.908,370.034 924.997,370.034C925.096,370.034 925.19,370.021 925.282,370L927.69,370C927.777,370.106 927.868,370.23 927.962,370.373C927.927,370.577 927.847,370.651 927.764,370.651C927.651,370.651 927.535,370.51 927.535,370.373C926.195,370.668 926.98,371.511 927.108,372.508ZM924.117,370.373C923.75,370.311 923.47,370.179 923.267,370L924.033,370C924.052,370.115 924.08,370.24 924.117,370.373Z" style="fill:rgb(38,15,10);fill-rule:nonzero;"/>
            <path d="M811.098,433L784.311,433L796.85,411.281C796.803,411.387 796.763,411.495 796.73,411.602C796.371,412.785 796.951,413.968 799.411,413.968C799.625,413.968 799.852,413.959 800.094,413.94L811.098,433ZM797.191,410.69L797.704,409.802L797.821,410.005C797.583,410.208 797.37,410.441 797.191,410.69Z" style="fill:rgb(240,73,35);fill-rule:nonzero;"/>
            <path d="M799.411,413.968C796.951,413.968 796.371,412.785 796.73,411.602C796.763,411.495 796.803,411.387 796.85,411.281L797.191,410.69C797.37,410.441 797.583,410.208 797.821,410.005L800.094,413.94C799.852,413.959 799.625,413.968 799.411,413.968Z" style="fill:rgb(38,15,10);fill-rule:nonzero;"/>
        </g>
    </g>
</svg>
