<?xml version="1.0" encoding="UTF-8" standalone="no"?>
<!DOCTYPE svg PUBLIC "-//W3C//DTD SVG 1.1//EN" "http://www.w3.org/Graphics/SVG/1.1/DTD/svg11.dtd">
<svg width="100%" height="100%" viewBox="0 0 339 339" version="1.1" xmlns="http://www.w3.org/2000/svg" xmlns:xlink="http://www.w3.org/1999/xlink" xml:space="preserve" xmlns:serif="http://www.serif.com/" style="fill-rule:evenodd;clip-rule:evenodd;stroke-linejoin:round;stroke-miterlimit:2;">
    <g transform="matrix(1,0,0,1,-2580,-596)">
        <g transform="matrix(4.16667,0,0,4.16667,0,0)">
            <path d="M671.718,210.885L624.588,210.885C622.335,210.885 620.502,209.052 620.502,206.799L620.502,179.337C620.502,177.088 622.335,175.259 624.588,175.259L664.636,175.259C664.995,175.259 665.286,175.55 665.286,175.909C665.286,176.268 664.995,176.559 664.636,176.559L624.588,176.559C623.052,176.559 621.803,177.805 621.803,179.337L621.803,206.799C621.803,208.335 623.052,209.585 624.588,209.585L671.718,209.585C672.077,209.585 672.368,209.876 672.368,210.235C672.368,210.594 672.077,210.885 671.718,210.885Z" style="fill:rgb(239,158,32);fill-rule:nonzero;"/>
            <path d="M668.069,151.029C666.534,151.029 665.286,152.275 665.286,153.807L665.286,206.799C665.286,208.335 666.534,209.585 668.069,209.585L695.529,209.585C697.063,209.585 698.312,208.335 698.312,206.799L698.312,153.807C698.312,152.275 697.063,151.029 695.529,151.029L668.069,151.029ZM695.529,210.885L668.069,210.885C665.817,210.885 663.985,209.052 663.985,206.799L663.985,153.807C663.985,151.558 665.817,149.729 668.069,149.729L695.529,149.729C697.78,149.729 699.612,151.558 699.612,153.807L699.612,206.799C699.612,209.052 697.78,210.885 695.529,210.885Z" style="fill:rgb(239,158,32);fill-rule:nonzero;"/>
            <path d="M681.798,202.917C680.876,202.917 680.127,203.671 680.127,204.597C680.127,205.52 680.876,206.27 681.798,206.27C682.721,206.27 683.471,205.52 683.471,204.597C683.471,203.671 682.721,202.917 681.798,202.917ZM681.798,207.57C680.159,207.57 678.826,206.236 678.826,204.597C678.826,202.954 680.159,201.618 681.798,201.618C683.438,201.618 684.771,202.954 684.771,204.597C684.771,206.236 683.438,207.57 681.798,207.57Z" style="fill:rgb(239,158,32);fill-rule:nonzero;"/>
            <path d="M668.374,198.12L695.224,198.12L695.224,159.198L668.374,159.198L668.374,198.12ZM695.874,199.419L667.724,199.419C667.364,199.419 667.073,199.128 667.073,198.77L667.073,158.548C667.073,158.189 667.364,157.898 667.724,157.898L695.874,157.898C696.233,157.898 696.524,158.189 696.524,158.548L696.524,198.77C696.524,199.128 696.233,199.419 695.874,199.419Z" style="fill:rgb(239,158,32);fill-rule:nonzero;"/>
            <path d="M683.448,155.43L676.905,155.43C676.546,155.43 676.255,155.139 676.255,154.78C676.255,154.421 676.546,154.13 676.905,154.13L683.448,154.13C683.808,154.13 684.099,154.421 684.099,154.78C684.099,155.139 683.808,155.43 683.448,155.43ZM686.695,155.43L684.804,155.43C684.444,155.43 684.153,155.139 684.153,154.78C684.153,154.421 684.444,154.13 684.804,154.13L686.695,154.13C687.055,154.13 687.346,154.421 687.346,154.78C687.346,155.139 687.055,155.43 686.695,155.43Z" style="fill:rgb(239,158,32);fill-rule:nonzero;"/>
            <path d="M629.974,206.497L663.985,206.497L663.985,179.648L629.974,179.648L629.974,206.497ZM664.636,207.796L629.323,207.796C628.964,207.796 628.673,207.505 628.673,207.146L628.673,178.998C628.673,178.639 628.964,178.348 629.323,178.348L664.636,178.348C664.995,178.348 665.286,178.639 665.286,178.998L665.286,207.146C665.286,207.505 664.995,207.796 664.636,207.796Z" style="fill:rgb(239,158,32);fill-rule:nonzero;"/>
            <path d="M625.558,190.712C625.198,190.712 624.907,190.421 624.907,190.063L624.907,188.176C624.907,187.817 625.198,187.526 625.558,187.526C625.917,187.526 626.208,187.817 626.208,188.176L626.208,190.063C626.208,190.421 625.917,190.712 625.558,190.712ZM625.558,198.62C625.198,198.62 624.907,198.329 624.907,197.97L624.907,191.419C624.907,191.06 625.198,190.769 625.558,190.769C625.917,190.769 626.208,191.06 626.208,191.419L626.208,197.97C626.208,198.329 625.917,198.62 625.558,198.62Z" style="fill:rgb(239,158,32);fill-rule:nonzero;"/>
            <path d="M673.749,166.331L671.065,166.331C670.706,166.331 670.415,166.04 670.415,165.681C670.415,165.322 670.706,165.031 671.065,165.031L673.749,165.031C674.108,165.031 674.399,165.322 674.399,165.681C674.399,166.04 674.108,166.331 673.749,166.331ZM692.538,166.331L677.148,166.331C676.789,166.331 676.498,166.04 676.498,165.681C676.498,165.322 676.789,165.031 677.148,165.031L692.538,165.031C692.897,165.031 693.188,165.322 693.188,165.681C693.188,166.04 692.897,166.331 692.538,166.331Z" style="fill:rgb(239,158,32);fill-rule:nonzero;"/>
            <path d="M675.45,164.634C674.87,164.634 674.399,165.104 674.399,165.681C674.399,166.262 674.87,166.735 675.45,166.735C676.028,166.735 676.498,166.262 676.498,165.681C676.498,165.104 676.028,164.634 675.45,164.634ZM675.45,168.035C674.153,168.035 673.099,166.979 673.099,165.681C673.099,164.387 674.153,163.334 675.45,163.334C676.745,163.334 677.799,164.387 677.799,165.681C677.799,166.979 676.745,168.035 675.45,168.035Z" style="fill:rgb(239,158,32);fill-rule:nonzero;"/>
            <path d="M680.099,173.228L671.065,173.228C670.706,173.228 670.415,172.937 670.415,172.578C670.415,172.219 670.706,171.928 671.065,171.928L680.099,171.928C680.458,171.928 680.749,172.219 680.749,172.578C680.749,172.937 680.458,173.228 680.099,173.228ZM692.538,173.228L683.499,173.228C683.14,173.228 682.849,172.937 682.849,172.578C682.849,172.219 683.14,171.928 683.499,171.928L692.538,171.928C692.897,171.928 693.188,172.219 693.188,172.578C693.188,172.937 692.897,173.228 692.538,173.228Z" style="fill:rgb(239,158,32);fill-rule:nonzero;"/>
            <path d="M681.798,171.532C681.22,171.532 680.749,172.001 680.749,172.578C680.749,173.16 681.22,173.633 681.798,173.633C682.378,173.633 682.849,173.16 682.849,172.578C682.849,172.001 682.378,171.532 681.798,171.532ZM681.798,174.933C680.503,174.933 679.448,173.877 679.448,172.578C679.448,171.284 680.503,170.232 681.798,170.232C683.095,170.232 684.149,171.284 684.149,172.578C684.149,173.877 683.095,174.933 681.798,174.933Z" style="fill:rgb(239,158,32);fill-rule:nonzero;"/>
            <path d="M681.798,177.517C676.969,177.517 673.041,181.444 673.041,186.271C673.041,191.102 676.969,195.033 681.798,195.033C686.629,195.033 690.56,191.102 690.56,186.271C690.56,181.444 686.629,177.517 681.798,177.517ZM681.798,196.333C676.252,196.333 671.74,191.819 671.74,186.271C671.74,180.727 676.252,176.217 681.798,176.217C687.346,176.217 691.86,180.727 691.86,186.271C691.86,191.819 687.346,196.333 681.798,196.333Z" style="fill:rgb(239,158,32);fill-rule:nonzero;"/>
            <path d="M681.798,177.517C679.54,177.517 677.634,181.526 677.634,186.271C677.634,191.02 679.54,195.033 681.798,195.033C684.059,195.033 685.969,191.02 685.969,186.271C685.969,181.526 684.059,177.517 681.798,177.517ZM681.798,196.333C678.733,196.333 676.333,191.913 676.333,186.271C676.333,180.633 678.733,176.217 681.798,176.217C684.866,176.217 687.27,180.633 687.27,186.271C687.27,191.913 684.866,196.333 681.798,196.333Z" style="fill:rgb(239,158,32);fill-rule:nonzero;"/>
            <path d="M691.21,186.92L672.391,186.92C672.031,186.92 671.74,186.629 671.74,186.271C671.74,185.912 672.031,185.621 672.391,185.621L691.21,185.621C691.569,185.621 691.86,185.912 691.86,186.271C691.86,186.629 691.569,186.92 691.21,186.92Z" style="fill:rgb(239,158,32);fill-rule:nonzero;"/>
            <path d="M681.798,196.333C681.438,196.333 681.147,196.042 681.147,195.683L681.147,176.857C681.147,176.499 681.438,176.208 681.798,176.208C682.157,176.208 682.448,176.499 682.448,176.857L682.448,195.683C682.448,196.042 682.157,196.333 681.798,196.333Z" style="fill:rgb(239,158,32);fill-rule:nonzero;"/>
            <path d="M681.83,182.688C679.212,182.688 676.584,182.249 673.964,181.371C673.623,181.257 673.439,180.889 673.554,180.548C673.667,180.208 674.036,180.025 674.376,180.139C679.343,181.802 684.337,181.802 689.218,180.14C689.562,180.023 689.928,180.206 690.043,180.545C690.159,180.885 689.977,181.254 689.638,181.37C687.058,182.249 684.449,182.688 681.83,182.688Z" style="fill:rgb(239,158,32);fill-rule:nonzero;"/>
            <path d="M674.17,192.236C673.897,192.236 673.645,192.064 673.554,191.792C673.439,191.451 673.624,191.083 673.964,190.969C679.206,189.221 684.479,189.222 689.637,190.97C689.977,191.085 690.158,191.455 690.043,191.794C689.928,192.135 689.559,192.317 689.219,192.202C684.336,190.546 679.341,190.547 674.376,192.203C674.308,192.225 674.238,192.236 674.17,192.236Z" style="fill:rgb(239,158,32);fill-rule:nonzero;"/>
        </g>
    </g>
</svg>
