<?xml version="1.0" encoding="UTF-8" standalone="no"?>
<!DOCTYPE svg PUBLIC "-//W3C//DTD SVG 1.1//EN" "http://www.w3.org/Graphics/SVG/1.1/DTD/svg11.dtd">
<svg width="100%" height="100%" viewBox="0 0 330 330" version="1.1" xmlns="http://www.w3.org/2000/svg" xmlns:xlink="http://www.w3.org/1999/xlink" xml:space="preserve" xmlns:serif="http://www.serif.com/" style="fill-rule:evenodd;clip-rule:evenodd;stroke-linejoin:round;stroke-miterlimit:2;">
    <g transform="matrix(1,0,0,1,-2028,-1128)">
        <g transform="matrix(4.16667,0,0,4.16667,0,0)">
            <path d="M536.439,339.452L512.737,339.452C512.378,339.452 512.086,339.161 512.086,338.802L512.086,323.229C506.461,319.19 503.111,312.686 503.111,305.758C503.111,293.142 514.055,283.074 526.953,284.408C527.311,284.445 527.57,284.765 527.533,285.121C527.497,285.479 527.172,285.732 526.82,285.701C514.68,284.449 504.412,293.902 504.412,305.758C504.412,312.374 507.663,318.579 513.107,322.358C513.283,322.48 513.388,322.68 513.388,322.893L513.388,338.151L535.789,338.151L535.789,322.893C535.789,322.68 535.894,322.479 536.069,322.358C541.518,318.58 544.77,312.374 544.77,305.758C544.77,304.75 544.691,303.719 544.538,302.694C544.484,302.339 544.729,302.008 545.084,301.955C545.44,301.899 545.771,302.146 545.823,302.501C545.987,303.589 546.07,304.686 546.07,305.758C546.07,312.687 542.72,319.191 537.09,323.229L537.09,338.802C537.09,339.161 536.799,339.452 536.439,339.452Z" style="fill:rgb(239,158,32);fill-rule:nonzero;"/>
            <path d="M539.491,330.568L509.685,330.568C509.325,330.568 509.034,330.277 509.034,329.918C509.034,329.559 509.325,329.268 509.685,329.268L539.491,329.268C539.851,329.268 540.142,329.559 540.142,329.918C540.142,330.277 539.851,330.568 539.491,330.568Z" style="fill:rgb(239,158,32);fill-rule:nonzero;"/>
            <path d="M539.491,334.546L509.685,334.546C509.325,334.546 509.034,334.255 509.034,333.896C509.034,333.536 509.325,333.245 509.685,333.245L539.491,333.245C539.851,333.245 540.142,333.536 540.142,333.896C540.142,334.255 539.851,334.546 539.491,334.546Z" style="fill:rgb(239,158,32);fill-rule:nonzero;"/>
            <path d="M517.521,345.15L531.66,345.15L531.66,339.452L517.521,339.452L517.521,345.15ZM532.311,346.451L516.87,346.451C516.511,346.451 516.219,346.16 516.219,345.801L516.219,338.802C516.219,338.442 516.511,338.151 516.87,338.151L532.311,338.151C532.67,338.151 532.961,338.442 532.961,338.802L532.961,345.801C532.961,346.16 532.67,346.451 532.311,346.451Z" style="fill:rgb(239,158,32);fill-rule:nonzero;"/>
            <path d="M522.762,348.581L526.42,348.581L526.42,346.451L522.762,346.451L522.762,348.581ZM527.07,349.882L522.111,349.882C521.752,349.882 521.461,349.591 521.461,349.231L521.461,345.801C521.461,345.441 521.752,345.15 522.111,345.15L527.07,345.15C527.43,345.15 527.721,345.441 527.721,345.801L527.721,349.231C527.721,349.591 527.43,349.882 527.07,349.882Z" style="fill:rgb(239,158,32);fill-rule:nonzero;"/>
            <path d="M524.517,329.268L524.661,329.268L528.895,311.675L527.223,312.023C526.908,312.086 526.598,311.918 526.483,311.619L524.519,306.498L522.593,311.638C522.479,311.942 522.169,312.118 521.841,312.044L520.286,311.693L524.517,329.268ZM525.173,330.568L524.005,330.568C523.703,330.568 523.443,330.362 523.373,330.07L518.776,310.981C518.724,310.763 518.788,310.533 518.945,310.373C519.104,310.212 519.334,310.147 519.552,310.195L521.573,310.651L523.901,304.437C523.997,304.184 524.237,304.016 524.508,304.014L524.511,304.014C524.78,304.014 525.021,304.18 525.117,304.432L527.499,310.638L529.634,310.192C529.852,310.149 530.078,310.217 530.233,310.377C530.389,310.536 530.45,310.765 530.398,310.981L525.805,330.07C525.734,330.362 525.474,330.568 525.173,330.568Z" style="fill:rgb(239,158,32);fill-rule:nonzero;"/>
            <path d="M538.983,283.03C535.835,283.03 533.273,285.594 533.273,288.745C533.273,291.893 535.835,294.453 538.983,294.453C542.131,294.453 544.69,291.893 544.69,288.745C544.69,285.594 542.131,283.03 538.983,283.03ZM538.983,295.754C535.118,295.754 531.973,292.609 531.973,288.745C531.973,284.877 535.118,281.729 538.983,281.729C542.848,281.729 545.991,284.877 545.991,288.745C545.991,292.609 542.848,295.754 538.983,295.754ZM538.299,305.422L539.669,305.422L540.303,301.182C540.345,300.899 540.565,300.678 540.847,300.635C541.688,300.506 542.52,300.284 543.322,299.976C543.588,299.875 543.888,299.955 544.064,300.177L546.73,303.525L547.913,302.845L546.347,298.857C546.243,298.595 546.321,298.296 546.539,298.117C547.228,297.554 547.837,296.943 548.351,296.303C548.528,296.081 548.83,295.999 549.096,296.104L553.082,297.672L553.768,296.486L550.421,293.823C550.199,293.647 550.117,293.349 550.217,293.085C550.53,292.258 550.752,291.426 550.876,290.61C550.919,290.329 551.141,290.108 551.422,290.066L555.659,289.429L555.659,288.056L551.422,287.418C551.141,287.376 550.919,287.155 550.876,286.874C550.75,286.056 550.528,285.223 550.217,284.399C550.117,284.136 550.199,283.837 550.42,283.661L553.768,280.997L553.082,279.812L549.096,281.379C548.831,281.485 548.531,281.404 548.353,281.184C547.816,280.522 547.207,279.914 546.543,279.378C546.322,279.199 546.242,278.898 546.347,278.635L547.913,274.646L546.729,273.959L544.064,277.306C543.889,277.526 543.591,277.608 543.328,277.509C542.486,277.194 541.651,276.972 540.847,276.849C540.565,276.806 540.345,276.584 540.303,276.302L539.67,272.071L538.299,272.071L537.663,276.303C537.621,276.584 537.4,276.806 537.119,276.849C536.312,276.973 535.479,277.195 534.644,277.509C534.384,277.608 534.083,277.527 533.906,277.306L531.239,273.959L530.055,274.646L531.621,278.635C531.725,278.898 531.645,279.199 531.425,279.377C530.76,279.916 530.151,280.523 529.616,281.184C529.438,281.404 529.134,281.482 528.874,281.38L524.883,279.812L524.2,280.996L527.553,283.661C527.775,283.838 527.857,284.139 527.755,284.404C527.445,285.206 527.221,286.038 527.09,286.876C527.045,287.156 526.824,287.376 526.544,287.418L522.31,288.056L522.31,289.429L526.544,290.066C526.825,290.108 527.046,290.328 527.09,290.608C527.22,291.443 527.443,292.274 527.755,293.08C527.857,293.346 527.775,293.646 527.553,293.823L524.2,296.487L524.883,297.672L528.874,296.104C529.138,296.001 529.44,296.081 529.618,296.303C530.131,296.942 530.74,297.553 531.428,298.118C531.646,298.297 531.724,298.596 531.621,298.857L530.056,302.845L531.238,303.525L533.906,300.177C534.084,299.954 534.387,299.874 534.649,299.976C535.445,300.283 536.276,300.505 537.119,300.635C537.4,300.678 537.621,300.899 537.663,301.181L538.299,305.422ZM540.229,306.723L537.739,306.723C537.418,306.723 537.145,306.487 537.097,306.169L536.447,301.838C535.832,301.72 535.225,301.558 534.632,301.354L531.907,304.773C531.706,305.024 531.351,305.092 531.074,304.932L528.922,303.691C528.643,303.53 528.523,303.19 528.641,302.891L530.241,298.815C529.758,298.392 529.313,297.947 528.913,297.485L524.837,299.087C524.54,299.205 524.197,299.086 524.036,298.806L522.794,296.651C522.633,296.373 522.701,296.019 522.953,295.818L526.377,293.098C526.17,292.501 526.007,291.894 525.888,291.282L521.563,290.631C521.244,290.583 521.008,290.31 521.008,289.988L521.008,287.496C521.008,287.175 521.244,286.901 521.563,286.854L525.889,286.202C526.008,285.589 526.171,284.981 526.377,284.387L522.953,281.665C522.701,281.465 522.633,281.11 522.794,280.832L524.036,278.678C524.195,278.398 524.538,278.278 524.837,278.396L528.914,279.999C529.324,279.528 529.768,279.086 530.24,278.675L528.641,274.602C528.523,274.303 528.643,273.963 528.92,273.802L531.072,272.553C531.353,272.394 531.706,272.459 531.907,272.71L534.634,276.132C535.241,275.925 535.849,275.763 536.447,275.646L537.097,271.324C537.145,271.006 537.418,270.771 537.739,270.771L540.229,270.771C540.552,270.771 540.825,271.007 540.872,271.325L541.519,275.646C542.116,275.762 542.725,275.925 543.337,276.132L546.062,272.71C546.264,272.458 546.616,272.394 546.896,272.553L549.049,273.802C549.326,273.963 549.445,274.303 549.327,274.602L547.728,278.675C548.2,279.085 548.644,279.527 549.055,279.999L553.126,278.397C553.423,278.279 553.766,278.397 553.927,278.677L555.174,280.831C555.335,281.109 555.269,281.464 555.017,281.665L551.595,284.389C551.8,284.991 551.962,285.599 552.079,286.202L556.406,286.854C556.725,286.901 556.96,287.175 556.96,287.496L556.96,289.988C556.96,290.31 556.725,290.583 556.406,290.631L552.079,291.282C551.963,291.884 551.801,292.491 551.595,293.096L555.016,295.818C555.269,296.02 555.335,296.374 555.174,296.652L553.927,298.807C553.766,299.086 553.423,299.206 553.126,299.086L549.056,297.485C548.655,297.948 548.21,298.394 547.727,298.815L549.327,302.891C549.445,303.189 549.326,303.53 549.047,303.691L546.895,304.932C546.618,305.092 546.264,305.024 546.062,304.773L543.339,301.353C542.742,301.558 542.134,301.721 541.519,301.838L540.872,306.168C540.825,306.486 540.552,306.723 540.229,306.723Z" style="fill:rgb(239,158,32);fill-rule:nonzero;"/>
        </g>
    </g>
</svg>
