<?xml version="1.0" encoding="UTF-8" standalone="no"?>
<!DOCTYPE svg PUBLIC "-//W3C//DTD SVG 1.1//EN" "http://www.w3.org/Graphics/SVG/1.1/DTD/svg11.dtd">
<svg width="100%" height="100%" viewBox="0 0 2180 2458" version="1.1" xmlns="http://www.w3.org/2000/svg" xmlns:xlink="http://www.w3.org/1999/xlink" xml:space="preserve" xmlns:serif="http://www.serif.com/" style="fill-rule:evenodd;clip-rule:evenodd;stroke-linejoin:round;stroke-miterlimit:2;">
    <g transform="matrix(1,0,0,1,-2869,-424)">
        <g transform="matrix(4.16667,0,0,4.16667,0,0)">
            <path d="M935.054,595.926C876.078,595.926 828.268,548.117 828.268,489.141C828.268,430.165 876.078,382.355 935.054,382.355C994.029,382.355 1041.84,430.165 1041.84,489.141C1041.84,548.117 994.029,595.926 935.054,595.926Z" style="fill:rgb(240,75,83);fill-rule:nonzero;"/>
            <path d="M1166.92,415.102L1164.92,415.102C1164.92,424.079 1161.28,432.187 1155.4,438.073C1149.52,443.955 1141.41,447.587 1132.43,447.588C1123.45,447.587 1115.34,443.955 1109.46,438.073C1103.58,432.187 1099.95,424.079 1099.94,415.102C1099.95,406.125 1103.58,398.016 1109.46,392.131C1115.34,386.249 1123.45,382.617 1132.43,382.616C1141.41,382.617 1149.52,386.249 1155.4,392.131C1161.28,398.016 1164.92,406.125 1164.92,415.102L1168.92,415.102C1168.92,394.95 1152.58,378.617 1132.43,378.616C1112.28,378.617 1095.95,394.95 1095.94,415.102C1095.95,435.253 1112.28,451.587 1132.43,451.588C1152.58,451.587 1168.92,435.253 1168.92,415.102L1166.92,415.102Z" style="fill:rgb(240,76,88);fill-rule:nonzero;"/>
            <path d="M1132.43,433.798L1132.43,431.798C1127.82,431.797 1123.66,429.929 1120.63,426.901C1117.6,423.871 1115.74,419.708 1115.74,415.102C1115.74,410.495 1117.6,406.333 1120.63,403.302C1123.66,400.275 1127.82,398.407 1132.43,398.406C1137.04,398.407 1141.2,400.275 1144.23,403.302C1147.26,406.333 1149.13,410.495 1149.13,415.102C1149.13,419.708 1147.26,423.871 1144.23,426.901C1141.2,429.929 1137.04,431.797 1132.43,431.798L1132.43,435.798C1143.85,435.794 1153.12,426.519 1153.13,415.102C1153.12,403.685 1143.85,394.41 1132.43,394.406C1121.01,394.41 1111.74,403.685 1111.74,415.102C1111.74,426.519 1121.01,435.794 1132.43,435.798L1132.43,433.798Z" style="fill:rgb(240,76,88);fill-rule:nonzero;"/>
            <path d="M939.323,688.816L1086.22,541.917L1083.39,539.089L936.495,685.987" style="fill:rgb(240,76,88);fill-rule:nonzero;"/>
            <path d="M1016.95,323.361L1213.41,126.899L1210.59,124.071L1014.12,320.533L1016.95,323.361Z" style="fill:rgb(37,42,59);fill-rule:nonzero;"/>
            <g>
                <clipPath id="_clip1">
                    <path d="M958.212,252.678C958.212,327.211 897.79,387.633 823.257,387.633C748.723,387.633 688.301,327.211 688.301,252.678C688.301,178.143 748.723,117.722 823.257,117.722C897.79,117.722 958.212,178.143 958.212,252.678Z"/>
                </clipPath>
                <g clip-path="url(#_clip1)">
                    <path d="M839.855,53.678L624.256,269.277L628.911,273.932L844.511,58.332L839.855,53.678Z" style="fill:rgb(37,42,59);fill-rule:nonzero;"/>
                    <path d="M859.605,73.427L644.006,289.026L648.66,293.681L864.26,78.082L859.605,73.427Z" style="fill:rgb(37,42,59);fill-rule:nonzero;"/>
                    <path d="M879.355,93.177L663.756,308.776L668.41,313.431L884.01,97.832L879.355,93.177Z" style="fill:rgb(37,42,59);fill-rule:nonzero;"/>
                    <path d="M899.104,112.926L683.505,328.526L688.159,333.18L903.76,117.581L899.104,112.926Z" style="fill:rgb(37,42,59);fill-rule:nonzero;"/>
                    <path d="M918.854,132.676L703.255,348.275L707.909,352.93L923.509,137.33L918.854,132.676Z" style="fill:rgb(37,42,59);fill-rule:nonzero;"/>
                    <path d="M938.603,152.425L723.004,368.024L727.659,372.68L943.259,157.08L938.603,152.425Z" style="fill:rgb(37,42,59);fill-rule:nonzero;"/>
                    <path d="M958.353,172.175L742.754,387.774L747.408,392.429L963.008,176.83L958.353,172.175Z" style="fill:rgb(37,42,59);fill-rule:nonzero;"/>
                    <path d="M978.104,191.924L762.503,407.524L767.158,412.179L982.758,196.579L978.104,191.924Z" style="fill:rgb(37,42,59);fill-rule:nonzero;"/>
                    <path d="M997.853,211.674L782.253,427.273L786.907,431.929L1002.51,216.329L997.853,211.674Z" style="fill:rgb(37,42,59);fill-rule:nonzero;"/>
                    <path d="M1017.6,231.423L802.003,447.023L806.657,451.678L1022.26,236.078L1017.6,231.423Z" style="fill:rgb(37,42,59);fill-rule:nonzero;"/>
                </g>
            </g>
            <path d="M1071.89,319.778L1157.28,234.386L1154.45,231.558L1069.06,316.95L1071.89,319.778Z" style="fill:rgb(37,42,59);fill-rule:nonzero;"/>
            <path d="M1010.78,346.005C983.102,346.005 957.576,336.769 937.121,321.214L942.61,315.725C945.46,310.342 947.956,304.742 950.067,298.958L931.961,317.065C926.53,312.45 921.507,307.366 916.959,301.877L957.968,260.868C958.13,258.156 958.212,255.43 958.212,252.678C958.212,252.223 958.21,251.775 958.205,251.321L912.867,296.659C908.518,290.79 904.684,284.518 901.431,277.906L955.19,224.146C954.648,221.629 954.036,219.135 953.356,216.672L898.513,271.514C895.413,264.165 893.011,256.443 891.396,248.441L945.152,194.686C944.157,192.599 943.11,190.541 942.013,188.515L890.061,240.467C889.351,235.147 888.985,229.722 888.985,224.208C888.985,219.61 889.241,215.068 889.737,210.602L930.108,170.231C928.76,168.487 927.364,166.769 925.935,165.094L891.484,199.545C902.886,144.102 951.965,102.412 1010.78,102.412C1071.09,102.412 1121.16,146.239 1130.87,203.783L1014.12,320.533L1016.95,323.361L1131.6,208.711C1132.25,213.787 1132.58,218.957 1132.58,224.208C1132.58,236.024 1130.9,247.451 1127.76,258.255L1069.06,316.95L1071.89,319.778L1124.96,266.71C1107.71,313.02 1063.1,346.005 1010.78,346.005Z" style="fill:rgb(250,235,22);fill-rule:nonzero;"/>
        </g>
    </g>
</svg>
