<?xml version="1.0" encoding="UTF-8" standalone="no"?>
<!DOCTYPE svg PUBLIC "-//W3C//DTD SVG 1.1//EN" "http://www.w3.org/Graphics/SVG/1.1/DTD/svg11.dtd">
<svg width="100%" height="100%" viewBox="0 0 2044 2044" version="1.1" xmlns="http://www.w3.org/2000/svg" xmlns:xlink="http://www.w3.org/1999/xlink" xml:space="preserve" xmlns:serif="http://www.serif.com/" style="fill-rule:evenodd;clip-rule:evenodd;stroke-linecap:round;stroke-linejoin:round;stroke-miterlimit:2;">
    <g transform="matrix(1,0,0,1,-14838,-9459)">
        <g transform="matrix(4.16667,0,0,4.16667,0,0)">
            <path d="M3734.52,2553.29L3684.13,2504.98L3673.91,2514.57L3690.62,2570.99L3734.52,2553.29Z" style="fill:white;fill-rule:nonzero;"/>
            <path d="M3724.73,2568.29L3732.18,2588.18L3757.58,2588.18L3765,2568.3C3765.15,2567.91 3765.4,2567.59 3765.65,2567.27L3745.18,2559.02C3745.03,2558.96 3744.88,2558.89 3744.74,2558.82C3744.6,2558.89 3744.45,2558.96 3744.3,2559.02L3724.03,2567.19C3724.3,2567.53 3724.57,2567.87 3724.73,2568.29Z" style="fill:rgb(251,240,188);fill-rule:nonzero;"/>
            <path d="M3823.75,2509.91C3825,2511.07 3825.48,2512.83 3825,2514.46L3822.13,2524.13C3822.34,2524.14 3822.54,2524.1 3822.76,2524.15C3824.46,2524.56 3846.33,2529.87 3868.15,2539.84C3874.47,2540.61 3880.67,2541.19 3886.81,2541.67C3886.82,2541.63 3886.81,2541.59 3886.82,2541.55L3902.09,2477.46L3891.62,2450.84C3876.24,2452.42 3866.83,2454.87 3866.62,2454.92C3852.63,2458.24 3815.61,2470.34 3810.71,2486.64C3810.17,2488.44 3809,2491.79 3807.78,2495.18C3807.98,2495.31 3808.19,2495.38 3808.36,2495.54L3823.75,2509.91Z" style="fill:white;fill-rule:nonzero;"/>
            <path d="M3925.44,2472.55L3934.97,2450.19C3922.28,2449.3 3910.79,2449.44 3900.97,2450.07L3909.8,2472.55L3925.44,2472.55Z" style="fill:rgb(175,220,202);fill-rule:nonzero;"/>
            <path d="M3815.61,2514.57L3805.35,2504.98L3802.99,2507.25L3754.96,2553.29L3798.88,2570.99L3815.61,2514.57Z" style="fill:white;fill-rule:nonzero;"/>
            <path d="M3910.28,2481.77L3895.86,2542.33C3911.33,2543.25 3926.07,2543.35 3939.76,2542.93L3924.88,2481.77L3910.28,2481.77Z" style="fill:rgb(175,220,202);fill-rule:nonzero;"/>
            <path d="M4024.94,2486.64C4020.05,2470.31 3983.02,2458.24 3969.16,2454.96C3960.58,2453.12 3952.31,2451.88 3944.36,2451.03L3933.07,2477.53L3948.62,2541.41C3948.71,2541.79 3948.67,2542.17 3948.66,2542.55C3990.58,2540.46 4021.37,2533.65 4031.29,2531.2C4030.88,2522.86 4029.42,2501.6 4024.94,2486.64Z" style="fill:white;fill-rule:nonzero;"/>
            <path d="M3820.7,2532.88C3820.32,2532.79 3820,2532.58 3819.68,2532.41L3806.08,2578.27C3805.72,2579.48 3804.86,2580.47 3803.73,2581.03C3802.58,2581.58 3801.26,2581.64 3800.1,2581.15L3773.57,2570.46C3773.53,2570.78 3773.53,2571.11 3773.41,2571.44L3765.28,2593.19L3788.26,2714.31C3788.54,2715.77 3788.07,2717.28 3787.01,2718.33L3754.38,2750.59C3810.82,2749.61 3864.23,2720.57 3913.19,2664.12C3912.91,2654.4 3911.18,2605.65 3903.65,2580.54C3896.24,2555.76 3841.26,2537.73 3820.7,2532.88Z" style="fill:rgb(177,212,233);fill-rule:nonzero;"/>
            <path d="M3701.92,2714.49L3724.48,2593.19L3716.33,2571.45C3716.2,2571.09 3716.2,2570.73 3716.16,2570.36L3689.4,2581.15C3688.86,2581.37 3688.29,2581.48 3687.72,2581.48C3687.06,2581.48 3686.39,2581.33 3685.77,2581.03C3684.63,2580.47 3683.78,2579.48 3683.42,2578.26L3669.96,2532.82C3669.91,2532.83 3669.87,2532.87 3669.82,2532.88C3649.24,2537.74 3594.24,2555.78 3586.84,2580.54L3577.46,2664.26C3587.14,2674.9 3650.82,2741.54 3734.45,2749.83L3703.16,2718.49C3702.12,2717.44 3701.65,2715.95 3701.92,2714.49Z" style="fill:rgb(177,212,233);fill-rule:nonzero;"/>
            <path d="M3756.98,2597.52L3732.8,2597.52L3711.17,2713.82L3744.77,2747.48L3779,2713.64L3756.98,2597.52Z" style="fill:rgb(251,240,188);fill-rule:nonzero;"/>
            <path d="M3669.21,2511.43L3684.56,2497.05L3743.02,2553.1L3688.12,2575.23L3669.21,2511.43ZM3802.17,2575.23L3747.25,2553.1L3805.7,2497.05L3821.09,2511.43L3802.17,2575.23Z" style="fill:none;stroke:rgb(78,123,159);stroke-width:20.63px;"/>
            <path d="M3769.6,2568.11L3761.09,2590.9L3729.46,2590.9L3720.92,2568.11" style="fill:none;stroke:rgb(78,123,159);stroke-width:20.63px;"/>
            <path d="M3784.25,2713.38L3761.09,2591.27L3729.46,2591.27L3706.72,2713.56L3745.14,2752.05L3784.25,2713.38Z" style="fill:none;stroke:rgb(78,123,159);stroke-width:20.63px;"/>
            <path d="M3669.18,2526.75C3669.18,2526.75 3592.71,2544.8 3582.93,2577.49L3573.18,2663.99" style="fill:none;stroke:rgb(78,123,159);stroke-width:20.63px;"/>
            <path d="M3822.12,2526.75C3822.12,2526.75 3898.56,2544.8 3908.34,2577.49C3916.96,2606.25 3918.11,2663.99 3918.11,2663.99" style="fill:none;stroke:rgb(78,123,159);stroke-width:20.63px;"/>
            <path d="M3830.6,2624.66L3865.33,2624.66" style="fill:none;stroke:rgb(78,123,159);stroke-width:20.63px;"/>
            <path d="M3819.74,2378.72C3819.72,2399.99 3816.5,2420.77 3808.56,2440.58C3800.86,2459.84 3786.62,2476.56 3768.73,2487.99C3758.42,2494.61 3750.1,2497.8 3737.82,2495.79C3726.82,2493.99 3720.23,2488.83 3711.79,2481.7C3698.1,2470.14 3686.37,2455.37 3680.31,2438.75C3675.73,2426.04 3673.12,2412.95 3671.67,2399.5C3670.72,2390.91 3670.35,2382.31 3670.55,2373.68C3670.8,2361.62 3674.26,2350.39 3680.13,2339.98C3687.87,2326.27 3698.79,2315.71 3712.89,2308.61C3723.73,2303.09 3735.28,2300.46 3747.44,2300.9C3759.98,2301.3 3771.65,2304.94 3782.41,2311.48C3793.09,2318.02 3801.82,2326.62 3808.42,2337.26C3815.13,2348.06 3819.14,2359.8 3819.74,2372.61C3819.85,2374.69 3819.74,2376.71 3819.74,2378.72Z" style="fill:rgb(248,238,226);fill-rule:nonzero;"/>
            <path d="M3819.74,2378.72C3819.72,2399.99 3816.5,2420.77 3808.56,2440.58C3800.86,2459.84 3786.62,2476.56 3768.73,2487.99C3758.42,2494.61 3750.1,2497.8 3737.82,2495.79C3726.82,2493.99 3720.23,2488.83 3711.79,2481.7C3698.1,2470.14 3686.37,2455.37 3680.31,2438.75C3675.73,2426.04 3673.12,2412.95 3671.67,2399.5C3670.72,2390.91 3670.35,2382.31 3670.55,2373.68C3670.8,2361.62 3674.26,2350.39 3680.13,2339.98C3687.87,2326.27 3698.79,2315.71 3712.89,2308.61C3723.73,2303.09 3735.28,2300.46 3747.44,2300.9C3759.98,2301.3 3771.65,2304.94 3782.41,2311.48C3793.09,2318.02 3801.82,2326.62 3808.42,2337.26C3815.13,2348.06 3819.14,2359.8 3819.74,2372.61C3819.85,2374.69 3819.74,2376.71 3819.74,2378.72Z" style="fill:none;stroke:rgb(78,123,159);stroke-width:20.63px;"/>
            <path d="M3934.63,2459.66L3928.79,2475.27L3907.14,2475.27L3901.3,2459.66" style="fill:none;stroke:rgb(78,123,159);stroke-width:20.63px;"/>
            <path d="M3944.66,2540.71L3928.79,2475.53L3907.14,2475.53L3891.57,2540.83" style="fill:none;stroke:rgb(78,123,159);stroke-width:20.63px;"/>
            <path d="M3865.85,2448.84C3865.85,2448.84 3813.5,2461.21 3806.81,2483.6C3800.12,2505.96 3801.61,2500.97 3801.61,2500.97" style="fill:none;stroke:rgb(78,123,159);stroke-width:20.63px;"/>
            <path d="M3970.58,2448.84C3970.58,2448.84 4022.93,2461.21 4029.63,2483.6C4035.53,2503.29 4036.32,2532.87 4036.32,2532.87" style="fill:none;stroke:rgb(78,123,159);stroke-width:20.63px;"/>
            <path d="M3976.39,2515.89L4000.17,2515.89" style="fill:none;stroke:rgb(78,123,159);stroke-width:20.63px;"/>
            <path d="M3968.96,2347.49C3968.94,2362.05 3966.73,2376.29 3961.3,2389.85C3956.03,2403.04 3946.29,2414.47 3934.03,2422.31C3926.96,2426.85 3921.28,2429.04 3912.87,2427.64C3905.32,2426.43 3900.82,2422.88 3895.04,2418.02C3885.67,2410.1 3877.64,2399.97 3873.49,2388.59C3870.35,2379.9 3868.57,2370.93 3867.56,2361.71C3866.92,2355.83 3866.66,2349.94 3866.8,2344.04C3866.98,2335.78 3869.34,2328.08 3873.37,2320.95C3878.66,2311.57 3886.14,2304.34 3895.79,2299.48C3903.22,2295.69 3911.12,2293.89 3919.45,2294.19C3928.05,2294.47 3936.03,2296.96 3943.39,2301.46C3950.72,2305.91 3956.69,2311.81 3961.21,2319.09C3965.8,2326.49 3968.55,2334.52 3968.96,2343.3C3969.03,2344.72 3968.96,2346.11 3968.96,2347.49Z" style="fill:none;stroke:rgb(78,123,159);stroke-width:20.63px;"/>
        </g>
    </g>
</svg>
