<?xml version="1.0" encoding="UTF-8" standalone="no"?>
<!DOCTYPE svg PUBLIC "-//W3C//DTD SVG 1.1//EN" "http://www.w3.org/Graphics/SVG/1.1/DTD/svg11.dtd">
<svg width="100%" height="100%" viewBox="0 0 2095 2095" version="1.1" xmlns="http://www.w3.org/2000/svg" xmlns:xlink="http://www.w3.org/1999/xlink" xml:space="preserve" xmlns:serif="http://www.serif.com/" style="fill-rule:evenodd;clip-rule:evenodd;stroke-linecap:round;stroke-linejoin:round;stroke-miterlimit:2;">
    <g transform="matrix(1,0,0,1,-6706,-6668)">
        <g transform="matrix(4.16667,0,0,4.16667,0,0)">
            <path d="M1929.06,1905.03C1922.69,1859.34 1895.76,1820.24 1857.89,1797.35C1821.02,1819.63 1794.56,1857.21 1787.27,1901.31C1809.24,1913.88 1834.58,1921.2 1861.66,1921.2C1885.9,1921.2 1908.77,1915.29 1929.06,1905.03Z" style="fill:white;fill-rule:nonzero;"/>
            <path d="M1780.52,1766.46C1808.59,1766.46 1834.97,1773.82 1857.89,1786.64C1880.81,1773.82 1907.19,1766.46 1935.26,1766.46C1962.67,1766.46 1988.51,1773.43 2011.06,1785.68C2011.53,1780.86 2011.8,1775.99 2011.8,1771.05C2011.8,1688.26 1944.45,1620.89 1861.66,1620.89C1778.85,1620.89 1711.49,1688.26 1711.49,1771.05C1711.49,1774.8 1711.77,1778.46 1712.05,1782.14C1732.83,1772.2 1756,1766.46 1780.52,1766.46Z" style="fill:rgb(241,173,171);fill-rule:nonzero;"/>
            <path d="M1780.52,1775.63C1756.28,1775.63 1733.4,1781.52 1713.09,1791.8C1719.14,1835.3 1743.75,1872.9 1778.82,1896.17C1787.03,1852.7 1812.91,1815.46 1848.74,1792.19C1828.25,1781.68 1805.1,1775.63 1780.52,1775.63Z" style="fill:rgb(251,240,188);fill-rule:nonzero;"/>
            <path d="M1775.94,1925.8C1775.94,1919.04 1776.49,1912.47 1777.31,1905.95C1739.21,1882.07 1712.01,1842.59 1704.54,1796.48C1660.23,1822.61 1630.35,1870.72 1630.35,1925.8C1630.35,2008.6 1697.72,2075.96 1780.52,2075.96C1805.1,2075.96 1828.25,2069.9 1848.74,2059.4C1805,2030.98 1775.94,1981.75 1775.94,1925.8Z" style="fill:rgb(175,220,202);fill-rule:nonzero;"/>
            <path d="M2018.1,1800.66C2009.21,1847.75 1979.58,1887.54 1939.03,1910.19C1939.55,1915.33 1939.83,1920.53 1939.83,1925.8C1939.83,1981.75 1910.78,2030.98 1867.04,2059.4C1887.53,2069.9 1910.68,2075.96 1935.26,2075.96C2018.05,2075.96 2085.43,2008.6 2085.43,1925.8C2085.43,1873.6 2058.64,1827.59 2018.1,1800.66Z" style="fill:rgb(177,212,233);fill-rule:nonzero;"/>
            <path d="M2009.63,1795.51C1987.68,1782.93 1962.32,1775.63 1935.26,1775.63C1910.68,1775.63 1887.52,1781.68 1867.04,1792.19C1904,1816.21 1930.3,1855.1 1937.59,1900.36C1975.2,1878.18 2002.26,1840.17 2009.63,1795.51Z" style="fill:rgb(215,193,183);fill-rule:nonzero;"/>
            <path d="M1930.68,1925.8C1930.68,1922.04 1930.37,1918.37 1930.1,1914.68C1909.32,1924.63 1886.18,1930.34 1861.66,1930.34C1834.22,1930.34 1808.41,1923.39 1785.85,1911.14C1785.38,1915.97 1785.09,1920.85 1785.09,1925.8C1785.09,1980.28 1814.36,2027.93 1857.89,2054.25C1901.42,2027.93 1930.68,1980.28 1930.68,1925.8Z" style="fill:rgb(215,224,232);fill-rule:nonzero;"/>
            <path d="M2012.71,1796.3C2002.11,1870.77 1938.09,1928.01 1860.69,1928.01C1775.85,1928.01 1707.13,1859.27 1707.13,1774.44C1707.13,1689.61 1775.85,1620.89 1860.69,1620.89C1937.47,1620.89 2001.09,1677.21 2012.45,1750.82" style="fill:none;stroke:rgb(78,123,159);stroke-width:20.63px;"/>
            <path d="M1856.95,2061.05C1834.37,2074.12 1808.15,2081.6 1780.18,2081.6C1695.35,2081.6 1626.6,2012.83 1626.6,1928.03C1626.6,1843.23 1695.35,1774.44 1780.18,1774.44C1865,1774.44 1933.73,1843.23 1933.73,1928.03C1933.73,1970.63 1916.39,2009.16 1888.39,2036.98" style="fill:none;stroke:rgb(78,123,159);stroke-width:20.63px;"/>
            <path d="M1793.04,1866.36C1816.79,1812.25 1870.85,1774.44 1933.73,1774.44C2018.56,1774.44 2087.31,1843.23 2087.31,1928.03C2087.31,2012.83 2018.56,2081.6 1933.73,2081.6C1848.92,2081.6 1780.17,2012.83 1780.17,1928.03C1780.17,1920.61 1780.7,1913.31 1781.72,1906.17" style="fill:none;stroke:rgb(78,123,159);stroke-width:20.63px;"/>
        </g>
    </g>
</svg>
