<?xml version="1.0" encoding="UTF-8" standalone="no"?>
<!DOCTYPE svg PUBLIC "-//W3C//DTD SVG 1.1//EN" "http://www.w3.org/Graphics/SVG/1.1/DTD/svg11.dtd">
<svg width="100%" height="100%" viewBox="0 0 2093 2093" version="1.1" xmlns="http://www.w3.org/2000/svg" xmlns:xlink="http://www.w3.org/1999/xlink" xml:space="preserve" xmlns:serif="http://www.serif.com/" style="fill-rule:evenodd;clip-rule:evenodd;stroke-linecap:round;stroke-linejoin:round;stroke-miterlimit:2;">
    <g transform="matrix(1,0,0,1,-17468,-9383)">
        <g transform="matrix(4.16667,0,0,4.16667,0,0)">
            <path d="M4618.61,2571.05C4652.33,2570.16 4678.88,2538.41 4678.08,2500.12C4677.36,2464.2 4652.86,2435.77 4622.21,2432.93L4622.21,2432.15C4620.59,2354.36 4563.93,2292.69 4495.56,2294.54C4445.7,2295.86 4403.57,2330.76 4385.02,2379.75C4372.81,2373.07 4359.25,2369.09 4344.76,2369.49C4295.95,2370.78 4257.25,2416.99 4258.4,2472.77C4259.55,2528.39 4300.09,2572.56 4348.88,2571.26L4618.61,2571.05Z" style="fill:rgb(177,212,233);fill-rule:nonzero;"/>
            <path d="M4606.52,2571.01C4643.64,2570.02 4672.87,2535.08 4671.98,2492.91C4671.19,2453.36 4644.22,2422.07 4610.48,2418.95L4610.47,2418.08C4608.7,2332.44 4546.31,2264.55 4471.05,2266.58C4416.16,2268.04 4369.77,2306.46 4349.35,2360.4C4335.9,2353.04 4320.97,2348.65 4305.01,2349.11C4251.28,2350.52 4208.67,2401.39 4209.95,2462.81C4211.21,2524.05 4255.85,2572.67 4309.56,2571.24" style="fill:none;stroke:rgb(78,123,159);stroke-width:20.63px;"/>
            <path d="M4349.35,2360.4C4360.52,2366.73 4369.35,2375.31 4373.9,2383.65" style="fill:none;stroke:rgb(78,123,159);stroke-width:20.63px;"/>
            <path d="M4610.43,2418.96C4600.43,2418.96 4590.62,2418.9 4577.21,2424.2" style="fill:none;stroke:rgb(78,123,159);stroke-width:20.63px;"/>
            <path d="M4475.69,2488.8L4356.29,2488.8L4356.29,2725.86L4530.79,2725.86C4548.46,2725.86 4562.9,2711.4 4562.9,2693.74L4562.9,2572.45L4475.69,2488.8Z" style="fill:rgb(251,240,188);fill-rule:nonzero;"/>
            <path d="M4475.69,2488.8L4356.29,2488.8L4356.29,2725.86L4530.79,2725.86C4548.46,2725.86 4562.9,2711.4 4562.9,2693.74L4562.9,2572.45L4475.69,2488.8Z" style="fill:none;stroke:rgb(78,123,159);stroke-width:20.63px;"/>
            <path d="M4562.9,2572.45L4475.69,2488.8L4475.69,2544.47C4475.69,2559.86 4488.3,2572.45 4503.68,2572.45L4562.9,2572.45Z" style="fill:rgb(175,220,202);fill-rule:nonzero;"/>
            <path d="M4562.9,2572.45L4475.69,2488.8L4475.69,2544.47C4475.69,2559.86 4488.3,2572.45 4503.68,2572.45L4562.9,2572.45Z" style="fill:none;stroke:rgb(78,123,159);stroke-width:20.63px;"/>
            <path d="M4411.88,2609.89L4470.7,2609.89" style="fill:none;stroke:rgb(78,123,159);stroke-width:20.63px;"/>
            <path d="M4411.88,2654.65L4445.4,2654.65" style="fill:none;stroke:rgb(78,123,159);stroke-width:20.63px;"/>
            <path d="M4485.33,2654.65L4506.69,2654.65" style="fill:none;stroke:rgb(78,123,159);stroke-width:20.63px;"/>
        </g>
    </g>
</svg>
