<?xml version="1.0" encoding="UTF-8" standalone="no"?>
<!DOCTYPE svg PUBLIC "-//W3C//DTD SVG 1.1//EN" "http://www.w3.org/Graphics/SVG/1.1/DTD/svg11.dtd">
<svg width="100%" height="100%" viewBox="0 0 2035 2035" version="1.1" xmlns="http://www.w3.org/2000/svg" xmlns:xlink="http://www.w3.org/1999/xlink" xml:space="preserve" xmlns:serif="http://www.serif.com/" style="fill-rule:evenodd;clip-rule:evenodd;stroke-linecap:round;stroke-linejoin:round;stroke-miterlimit:2;">
    <g transform="matrix(1,0,0,1,-6716,-1322)">
        <g transform="matrix(4.16667,0,0,4.16667,0,0)">
            <path d="M1782.41,652.482L1847.96,749.023C1856.98,762.285 1853.56,780.4 1840.26,789.414C1826.97,798.446 1808.86,794.986 1799.85,781.698L1727.11,674.609" style="fill:rgb(175,220,202);fill-rule:nonzero;"/>
            <path d="M1782.41,652.482L1847.96,749.023C1856.98,762.285 1853.56,780.4 1840.26,789.414C1826.97,798.446 1808.86,794.986 1799.85,781.698L1727.11,674.609" style="fill:none;stroke:rgb(78,123,159);stroke-width:20.63px;"/>
            <path d="M1763.34,647.778L1718.75,678.087C1695.48,693.907 1663.75,687.862 1647.91,664.562L1646,661.75C1630.18,638.457 1636.25,606.721 1659.54,590.918L1704.14,560.6" style="fill:rgb(215,224,232);fill-rule:nonzero;"/>
            <path d="M1763.34,647.778L1718.75,678.087C1695.48,693.907 1663.75,687.862 1647.91,664.562L1646,661.75C1630.18,638.457 1636.25,606.721 1659.54,590.918L1704.14,560.6" style="fill:none;stroke:rgb(78,123,159);stroke-width:20.63px;"/>
            <path d="M1935.83,634.148L1763.37,647.769L1704.16,560.592L1780.38,405.272" style="fill:rgb(175,220,202);fill-rule:nonzero;"/>
            <path d="M1935.83,634.148L1763.37,647.769L1704.16,560.592L1780.38,405.272" style="fill:none;stroke:rgb(78,123,159);stroke-width:20.63px;"/>
            <path d="M1918.39,478.784C1962.01,542.993 1974.31,610.663 1945.92,629.943C1917.51,649.232 1859.18,612.835 1815.56,548.626C1771.94,484.443 1759.59,416.782 1787.99,397.476C1816.4,378.197 1874.78,414.575 1918.39,478.784Z" style="fill:white;fill-rule:nonzero;"/>
            <path d="M1918.39,478.784C1962.01,542.993 1974.31,610.663 1945.92,629.943C1917.51,649.232 1859.18,612.835 1815.56,548.626C1771.94,484.443 1759.59,416.782 1787.99,397.476C1816.4,378.197 1874.78,414.575 1918.39,478.784Z" style="fill:none;stroke:rgb(78,123,159);stroke-width:20.63px;"/>
            <path d="M1826.62,491.11C1845.51,478.26 1871.24,483.199 1884.1,502.103C1896.92,520.972 1892.01,546.691 1873.09,559.541" style="fill:none;stroke:rgb(78,123,159);stroke-width:20.63px;"/>
            <path d="M1945.79,329.176L1938.64,399.289" style="fill:none;stroke:rgb(78,123,159);stroke-width:20.63px;"/>
            <path d="M1985.54,442.186L2050.63,399.289" style="fill:none;stroke:rgb(78,123,159);stroke-width:20.63px;"/>
            <path d="M2001.04,503.803L2076.72,517.432" style="fill:none;stroke:rgb(78,123,159);stroke-width:20.63px;"/>
        </g>
    </g>
</svg>
