<?xml version="1.0" encoding="UTF-8" standalone="no"?>
<!DOCTYPE svg PUBLIC "-//W3C//DTD SVG 1.1//EN" "http://www.w3.org/Graphics/SVG/1.1/DTD/svg11.dtd">
<svg width="100%" height="100%" viewBox="0 0 2095 2095" version="1.1" xmlns="http://www.w3.org/2000/svg" xmlns:xlink="http://www.w3.org/1999/xlink" xml:space="preserve" xmlns:serif="http://www.serif.com/" style="fill-rule:evenodd;clip-rule:evenodd;stroke-linecap:round;stroke-linejoin:round;stroke-miterlimit:2;">
    <g transform="matrix(1,0,0,1,-12065,-6648)">
        <g transform="matrix(4.16667,0,0,4.16667,0,0)">
            <path d="M3266.52,1963.23L3310.03,1917.46L3372.85,1911.43L3256.33,1807.26L3266.52,1963.23Z" style="fill:rgb(241,173,171);fill-rule:nonzero;"/>
            <path d="M3266.52,1963.23L3310.03,1917.46L3372.85,1911.43L3256.33,1807.26L3266.52,1963.23Z" style="fill:none;stroke:rgb(78,123,159);stroke-width:20.63px;"/>
            <path d="M3311.04,1919.47L3356.29,2008.13" style="fill:none;stroke:rgb(78,123,159);stroke-width:20.63px;"/>
            <path d="M3265.54,1729.16L3265.54,1766.37" style="fill:none;stroke:rgb(78,123,159);stroke-width:20.63px;"/>
            <path d="M3356.29,1819.91L3319.08,1819.9" style="fill:none;stroke:rgb(78,123,159);stroke-width:20.63px;"/>
            <path d="M3212.02,1819.89L3174.81,1819.89" style="fill:none;stroke:rgb(78,123,159);stroke-width:20.63px;"/>
            <path d="M3201.39,1755.73L3227.7,1782.05" style="fill:none;stroke:rgb(78,123,159);stroke-width:20.63px;"/>
            <path d="M3329.72,1755.73L3303.4,1782.04" style="fill:none;stroke:rgb(78,123,159);stroke-width:20.63px;"/>
            <path d="M3227.7,1857.75L3201.39,1884.05" style="fill:none;stroke:rgb(78,123,159);stroke-width:20.63px;"/>
            <path d="M3129,1847.45L2991.7,1847.45C2952.08,1847.45 2919.97,1815.34 2919.97,1775.72L2919.97,1766.1C2919.97,1726.48 2952.08,1694.36 2991.7,1694.36L3380.99,1694.36" style="fill:none;stroke:rgb(78,123,159);stroke-width:20.63px;"/>
            <path d="M2988.36,1742.16L3015.39,1805.54L3049.63,1741.53L3080.01,1805.54L3112.81,1743.36L3143.53,1805.54" style="fill:none;stroke:rgb(175,220,202);stroke-width:20.63px;"/>
        </g>
    </g>
</svg>
