<?xml version="1.0" encoding="UTF-8" standalone="no"?>
<!DOCTYPE svg PUBLIC "-//W3C//DTD SVG 1.1//EN" "http://www.w3.org/Graphics/SVG/1.1/DTD/svg11.dtd">
<svg width="100%" height="100%" viewBox="0 0 5334 3000" version="1.1" xmlns="http://www.w3.org/2000/svg" xmlns:xlink="http://www.w3.org/1999/xlink" xml:space="preserve" xmlns:serif="http://www.serif.com/" style="fill-rule:evenodd;clip-rule:evenodd;stroke-linejoin:round;stroke-miterlimit:2;">
    <g transform="matrix(4.16667,0,0,4.16667,0,0)">
        <path d="M1275.93,540.071L735.857,0L852.642,0L1275.93,423.286L1275.93,540.071Z" style="fill:rgb(240,241,241);fill-rule:nonzero;"/>
        <path d="M951.093,494.925L880.168,424L722.88,425.772L588.682,291.574L817.168,289L1009.31,481.138C989.053,483.319 969.537,488.022 951.093,494.925Z" style="fill:rgb(240,241,241);fill-rule:nonzero;"/>
        <path d="M826.233,601.125L651.681,426.574L722.88,425.772L856.499,559.392C844.993,572.146 834.83,586.13 826.233,601.125Z" style="fill:rgb(240,241,241);fill-rule:nonzero;"/>
        <path d="M856.499,559.392L722.88,425.772L880.168,424L951.093,494.925C914.543,508.606 882.179,530.926 856.499,559.392Z" style="fill:rgb(224,225,224);fill-rule:nonzero;"/>
        <path d="M734.168,720L662.168,720L316.168,374L158.879,375.772L24.681,241.574L253.168,239L734.168,720Z" style="fill:rgb(240,241,241);fill-rule:nonzero;"/>
        <path d="M503.108,720L431.108,720L87.681,376.574L158.879,375.772L503.108,720Z" style="fill:rgb(240,241,241);fill-rule:nonzero;"/>
        <path d="M662.168,720L503.108,720L158.879,375.772L316.168,374L662.168,720Z" style="fill:rgb(224,225,224);fill-rule:nonzero;"/>
        <path d="M1276,720L1248.17,720L1009.31,481.138C1017.83,480.22 1026.48,479.75 1035.25,479.75C1167.83,479.75 1275.72,587.484 1276,720ZM885.939,720L794.501,720C794.591,676.786 806.13,636.19 826.233,601.125L894.804,669.697C889.12,685.407 885.997,702.343 885.939,720Z" style="fill:rgb(240,241,241);fill-rule:nonzero;"/>
        <path d="M1248.17,720L1184.56,720C1184.29,637.767 1117.55,571.189 1035.25,571.189C1032.67,571.189 1030.1,571.254 1027.55,571.384L951.093,494.925C969.537,488.022 989.053,483.319 1009.31,481.138L1248.17,720Z" style="fill:rgb(224,225,224);fill-rule:nonzero;"/>
        <path d="M894.804,669.697L826.233,601.125C834.83,586.13 844.993,572.146 856.499,559.392L921.217,624.109C909.892,637.492 900.884,652.891 894.804,669.697Z" style="fill:rgb(224,225,224);fill-rule:nonzero;"/>
        <path d="M921.217,624.109L856.499,559.392C882.179,530.926 914.543,508.606 951.093,494.925L1027.55,571.384C984.951,573.547 947.059,593.57 921.217,624.109Z" style="fill:rgb(196,196,196);fill-rule:nonzero;"/>
        <path d="M945.107,720L885.939,720C885.997,702.343 889.12,685.407 894.804,669.697L945.107,720Z" style="fill:rgb(224,225,224);fill-rule:nonzero;"/>
        <path d="M1184.56,720L1176.17,720L1027.55,571.384C1030.1,571.254 1032.67,571.189 1035.25,571.189C1117.55,571.189 1184.29,637.767 1184.56,720Z" style="fill:rgb(196,196,196);fill-rule:nonzero;"/>
        <path d="M1017.11,720L945.107,720L894.804,669.697C900.884,652.891 909.892,637.492 921.217,624.109L1017.11,720Z" style="fill:rgb(196,196,196);fill-rule:nonzero;"/>
        <path d="M1176.17,720L1017.11,720L921.217,624.109C947.059,593.57 984.951,573.547 1027.55,571.384L1176.17,720Z" style="fill:rgb(151,150,150);fill-rule:nonzero;"/>
        <path d="M890,452C874.561,452 862,464.561 862,480C862,495.439 874.561,508 890,508C905.439,508 918,495.439 918,480C918,464.561 905.439,452 890,452ZM890,512C872.355,512 858,497.645 858,480C858,462.355 872.355,448 890,448C907.645,448 922,462.355 922,480C922,497.645 907.645,512 890,512Z" style="fill:rgb(35,31,32);fill-rule:nonzero;"/>
        <path d="M890,467C882.831,467 877,472.831 877,480C877,487.169 882.831,493 890,493C897.169,493 903,487.169 903,480C903,472.831 897.169,467 890,467ZM890,497C880.626,497 873,489.374 873,480C873,470.626 880.626,463 890,463C899.374,463 907,470.626 907,480C907,489.374 899.374,497 890,497Z" style="fill:rgb(35,31,32);fill-rule:nonzero;"/>
        <path d="M1003,154C987.561,154 975,166.561 975,182C975,197.439 987.561,210 1003,210C1018.44,210 1031,197.439 1031,182C1031,166.561 1018.44,154 1003,154ZM1003,214C985.355,214 971,199.645 971,182C971,164.355 985.355,150 1003,150C1020.64,150 1035,164.355 1035,182C1035,199.645 1020.64,214 1003,214Z" style="fill:rgb(35,31,32);fill-rule:nonzero;"/>
        <path d="M1003,169C995.831,169 990,174.832 990,182C990,189.168 995.831,195 1003,195C1010.17,195 1016,189.168 1016,182C1016,174.832 1010.17,169 1003,169ZM1003,199C993.626,199 986,191.374 986,182C986,172.626 993.626,165 1003,165C1012.37,165 1020,172.626 1020,182C1020,191.374 1012.37,199 1003,199Z" style="fill:rgb(35,31,32);fill-rule:nonzero;"/>
        <path d="M1280,251.25C1147.36,251.118 1039.5,143.169 1039.5,10.5C1039.5,6.984 1039.58,3.481 1039.73,0L1131.3,0C1131.06,3.468 1130.94,6.972 1130.94,10.5C1130.94,92.877 1197.66,159.673 1280,159.811L1280,251.25Z" style="fill:rgb(240,241,241);fill-rule:nonzero;"/>
        <path d="M1280,159.811C1197.66,159.673 1130.94,92.877 1130.94,10.5C1130.94,6.972 1131.06,3.468 1131.3,0L1280,0L1280,159.811Z" style="fill:rgb(224,225,224);fill-rule:nonzero;"/>
        <g>
            <clipPath id="_clip1">
                <path d="M1144,352C1144,414.408 1093.41,465 1031,465C968.592,465 918,414.408 918,352C918,289.592 968.592,239 1031,239C1093.41,239 1144,289.592 1144,352Z"/>
            </clipPath>
            <g clip-path="url(#_clip1)">
                <path d="M1044.9,185.375L864.374,365.898L868.271,369.796L1048.8,189.272L1044.9,185.375Z" style="fill:rgb(35,31,32);fill-rule:nonzero;"/>
                <path d="M1061.44,201.911L880.911,382.436L884.809,386.333L1065.33,205.809L1061.44,201.911Z" style="fill:rgb(35,31,32);fill-rule:nonzero;"/>
                <path d="M1077.97,218.448L897.447,398.972L901.345,402.869L1081.87,222.345L1077.97,218.448Z" style="fill:rgb(35,31,32);fill-rule:nonzero;"/>
                <path d="M1094.51,234.984L913.984,415.509L917.882,419.406L1098.41,238.882L1094.51,234.984Z" style="fill:rgb(35,31,32);fill-rule:nonzero;"/>
                <path d="M1111.04,251.521L930.521,432.045L934.418,435.942L1114.94,255.418L1111.04,251.521Z" style="fill:rgb(35,31,32);fill-rule:nonzero;"/>
                <path d="M1127.58,268.058L947.058,448.582L950.955,452.479L1131.48,271.955L1127.58,268.058Z" style="fill:rgb(35,31,32);fill-rule:nonzero;"/>
                <path d="M1144.12,284.594L963.594,465.118L967.491,469.016L1148.02,288.491L1144.12,284.594Z" style="fill:rgb(35,31,32);fill-rule:nonzero;"/>
                <path d="M1160.66,301.13L980.131,481.655L984.028,485.553L1164.55,305.028L1160.66,301.13Z" style="fill:rgb(35,31,32);fill-rule:nonzero;"/>
                <path d="M1177.19,317.667L996.667,498.191L1000.56,502.089L1181.09,321.564L1177.19,317.667Z" style="fill:rgb(35,31,32);fill-rule:nonzero;"/>
                <path d="M1193.73,334.204L1013.2,514.729L1017.1,518.625L1197.63,338.101L1193.73,334.204Z" style="fill:rgb(35,31,32);fill-rule:nonzero;"/>
            </g>
        </g>
        <path d="M1259,412C1259,437.405 1238.41,458 1213,458C1187.59,458 1167,437.405 1167,412C1167,386.595 1187.59,366 1213,366C1238.41,366 1259,386.595 1259,412Z" style="fill:rgb(255,204,35);fill-rule:nonzero;"/>
        <path d="M922,215C922,240.405 901.405,261 876,261C850.595,261 830,240.405 830,215C830,189.595 850.595,169 876,169C901.405,169 922,189.595 922,215Z" style="fill:rgb(255,204,27);fill-rule:nonzero;"/>
        <path d="M1095.18,81.633C1095.18,84.535 1097.54,86.887 1100.44,86.887C1103.34,86.887 1105.69,84.535 1105.69,81.633C1105.69,78.732 1103.34,76.38 1100.44,76.38C1097.54,76.38 1095.18,78.732 1095.18,81.633Z" style="fill:rgb(35,31,32);fill-rule:nonzero;"/>
        <path d="M1075.75,81.633C1075.75,84.535 1078.1,86.887 1081,86.887C1083.9,86.887 1086.25,84.535 1086.25,81.633C1086.25,78.732 1083.9,76.38 1081,76.38C1078.1,76.38 1075.75,78.732 1075.75,81.633Z" style="fill:rgb(35,31,32);fill-rule:nonzero;"/>
        <path d="M1056.31,81.633C1056.31,84.535 1058.66,86.887 1061.56,86.887C1064.46,86.887 1066.82,84.535 1066.82,81.633C1066.82,78.732 1064.46,76.38 1061.56,76.38C1058.66,76.38 1056.31,78.732 1056.31,81.633Z" style="fill:rgb(35,31,32);fill-rule:nonzero;"/>
        <path d="M1036.87,81.633C1036.87,84.535 1039.23,86.887 1042.13,86.887C1045.03,86.887 1047.38,84.535 1047.38,81.633C1047.38,78.732 1045.03,76.38 1042.13,76.38C1039.23,76.38 1036.87,78.732 1036.87,81.633Z" style="fill:rgb(35,31,32);fill-rule:nonzero;"/>
        <path d="M1017.44,81.633C1017.44,84.535 1019.79,86.887 1022.69,86.887C1025.59,86.887 1027.94,84.535 1027.94,81.633C1027.94,78.732 1025.59,76.38 1022.69,76.38C1019.79,76.38 1017.44,78.732 1017.44,81.633Z" style="fill:rgb(35,31,32);fill-rule:nonzero;"/>
        <path d="M998,81.633C998,84.535 1000.35,86.887 1003.25,86.887C1006.15,86.887 1008.51,84.535 1008.51,81.633C1008.51,78.732 1006.15,76.38 1003.25,76.38C1000.35,76.38 998,78.732 998,81.633Z" style="fill:rgb(35,31,32);fill-rule:nonzero;"/>
        <path d="M1114.62,100.544C1114.62,103.445 1116.97,105.797 1119.87,105.797C1122.77,105.797 1125.13,103.445 1125.13,100.544C1125.13,97.644 1122.77,95.291 1119.87,95.291C1116.97,95.291 1114.62,97.644 1114.62,100.544Z" style="fill:rgb(35,31,32);fill-rule:nonzero;"/>
        <path d="M1095.18,100.544C1095.18,103.445 1097.54,105.797 1100.44,105.797C1103.34,105.797 1105.69,103.445 1105.69,100.544C1105.69,97.644 1103.34,95.291 1100.44,95.291C1097.54,95.291 1095.18,97.644 1095.18,100.544Z" style="fill:rgb(35,31,32);fill-rule:nonzero;"/>
        <path d="M1075.75,100.544C1075.75,103.445 1078.1,105.797 1081,105.797C1083.9,105.797 1086.25,103.445 1086.25,100.544C1086.25,97.644 1083.9,95.291 1081,95.291C1078.1,95.291 1075.75,97.644 1075.75,100.544Z" style="fill:rgb(35,31,32);fill-rule:nonzero;"/>
        <path d="M1056.31,100.544C1056.31,103.445 1058.66,105.797 1061.56,105.797C1064.46,105.797 1066.82,103.445 1066.82,100.544C1066.82,97.644 1064.46,95.291 1061.56,95.291C1058.66,95.291 1056.31,97.644 1056.31,100.544Z" style="fill:rgb(35,31,32);fill-rule:nonzero;"/>
        <path d="M1036.87,100.544C1036.87,103.445 1039.23,105.797 1042.13,105.797C1045.03,105.797 1047.38,103.445 1047.38,100.544C1047.38,97.644 1045.03,95.291 1042.13,95.291C1039.23,95.291 1036.87,97.644 1036.87,100.544Z" style="fill:rgb(35,31,32);fill-rule:nonzero;"/>
        <path d="M1017.44,100.544C1017.44,103.445 1019.79,105.797 1022.69,105.797C1025.59,105.797 1027.94,103.445 1027.94,100.544C1027.94,97.644 1025.59,95.291 1022.69,95.291C1019.79,95.291 1017.44,97.644 1017.44,100.544Z" style="fill:rgb(35,31,32);fill-rule:nonzero;"/>
        <path d="M1134.06,119.456C1134.06,122.357 1136.41,124.709 1139.31,124.709C1142.21,124.709 1144.56,122.357 1144.56,119.456C1144.56,116.555 1142.21,114.203 1139.31,114.203C1136.41,114.203 1134.06,116.555 1134.06,119.456Z" style="fill:rgb(35,31,32);fill-rule:nonzero;"/>
        <path d="M1114.62,119.456C1114.62,122.357 1116.97,124.709 1119.87,124.709C1122.77,124.709 1125.13,122.357 1125.13,119.456C1125.13,116.555 1122.77,114.203 1119.87,114.203C1116.97,114.203 1114.62,116.555 1114.62,119.456Z" style="fill:rgb(35,31,32);fill-rule:nonzero;"/>
        <path d="M1095.18,119.456C1095.18,122.357 1097.54,124.709 1100.44,124.709C1103.34,124.709 1105.69,122.357 1105.69,119.456C1105.69,116.555 1103.34,114.203 1100.44,114.203C1097.54,114.203 1095.18,116.555 1095.18,119.456Z" style="fill:rgb(35,31,32);fill-rule:nonzero;"/>
        <path d="M1075.75,119.456C1075.75,122.357 1078.1,124.709 1081,124.709C1083.9,124.709 1086.25,122.357 1086.25,119.456C1086.25,116.555 1083.9,114.203 1081,114.203C1078.1,114.203 1075.75,116.555 1075.75,119.456Z" style="fill:rgb(35,31,32);fill-rule:nonzero;"/>
        <path d="M1056.31,119.456C1056.31,122.357 1058.66,124.709 1061.56,124.709C1064.46,124.709 1066.82,122.357 1066.82,119.456C1066.82,116.555 1064.46,114.203 1061.56,114.203C1058.66,114.203 1056.31,116.555 1056.31,119.456Z" style="fill:rgb(35,31,32);fill-rule:nonzero;"/>
        <path d="M1036.87,119.456C1036.87,122.357 1039.23,124.709 1042.13,124.709C1045.03,124.709 1047.38,122.357 1047.38,119.456C1047.38,116.555 1045.03,114.203 1042.13,114.203C1039.23,114.203 1036.87,116.555 1036.87,119.456Z" style="fill:rgb(35,31,32);fill-rule:nonzero;"/>
        <path d="M1153.49,138.367C1153.49,141.269 1155.85,143.62 1158.75,143.62C1161.65,143.62 1164,141.269 1164,138.367C1164,135.466 1161.65,133.114 1158.75,133.114C1155.85,133.114 1153.49,135.466 1153.49,138.367Z" style="fill:rgb(35,31,32);fill-rule:nonzero;"/>
        <path d="M1134.06,138.367C1134.06,141.269 1136.41,143.62 1139.31,143.62C1142.21,143.62 1144.56,141.269 1144.56,138.367C1144.56,135.466 1142.21,133.114 1139.31,133.114C1136.41,133.114 1134.06,135.466 1134.06,138.367Z" style="fill:rgb(35,31,32);fill-rule:nonzero;"/>
        <path d="M1114.62,138.367C1114.62,141.269 1116.97,143.62 1119.87,143.62C1122.77,143.62 1125.13,141.269 1125.13,138.367C1125.13,135.466 1122.77,133.114 1119.87,133.114C1116.97,133.114 1114.62,135.466 1114.62,138.367Z" style="fill:rgb(35,31,32);fill-rule:nonzero;"/>
        <path d="M1095.18,138.367C1095.18,141.269 1097.54,143.62 1100.44,143.62C1103.34,143.62 1105.69,141.269 1105.69,138.367C1105.69,135.466 1103.34,133.114 1100.44,133.114C1097.54,133.114 1095.18,135.466 1095.18,138.367Z" style="fill:rgb(35,31,32);fill-rule:nonzero;"/>
        <path d="M1075.75,138.367C1075.75,141.269 1078.1,143.62 1081,143.62C1083.9,143.62 1086.25,141.269 1086.25,138.367C1086.25,135.466 1083.9,133.114 1081,133.114C1078.1,133.114 1075.75,135.466 1075.75,138.367Z" style="fill:rgb(35,31,32);fill-rule:nonzero;"/>
        <path d="M1056.31,138.367C1056.31,141.269 1058.66,143.62 1061.56,143.62C1064.46,143.62 1066.82,141.269 1066.82,138.367C1066.82,135.466 1064.46,133.114 1061.56,133.114C1058.66,133.114 1056.31,135.466 1056.31,138.367Z" style="fill:rgb(35,31,32);fill-rule:nonzero;"/>
        <path d="M1045.18,536.633C1045.18,539.534 1047.54,541.886 1050.44,541.886C1053.34,541.886 1055.69,539.534 1055.69,536.633C1055.69,533.731 1053.34,531.38 1050.44,531.38C1047.54,531.38 1045.18,533.731 1045.18,536.633Z" style="fill:rgb(35,31,32);fill-rule:nonzero;"/>
        <path d="M1025.75,536.633C1025.75,539.534 1028.1,541.886 1031,541.886C1033.9,541.886 1036.25,539.534 1036.25,536.633C1036.25,533.731 1033.9,531.38 1031,531.38C1028.1,531.38 1025.75,533.731 1025.75,536.633Z" style="fill:rgb(35,31,32);fill-rule:nonzero;"/>
        <path d="M1006.31,536.633C1006.31,539.534 1008.66,541.886 1011.56,541.886C1014.46,541.886 1016.82,539.534 1016.82,536.633C1016.82,533.731 1014.46,531.38 1011.56,531.38C1008.66,531.38 1006.31,533.731 1006.31,536.633Z" style="fill:rgb(35,31,32);fill-rule:nonzero;"/>
        <path d="M986.873,536.633C986.873,539.534 989.226,541.886 992.127,541.886C995.027,541.886 997.38,539.534 997.38,536.633C997.38,533.731 995.027,531.38 992.127,531.38C989.226,531.38 986.873,533.731 986.873,536.633Z" style="fill:rgb(35,31,32);fill-rule:nonzero;"/>
        <path d="M967.437,536.633C967.437,539.534 969.789,541.886 972.689,541.886C975.591,541.886 977.943,539.534 977.943,536.633C977.943,533.731 975.591,531.38 972.689,531.38C969.789,531.38 967.437,533.731 967.437,536.633Z" style="fill:rgb(35,31,32);fill-rule:nonzero;"/>
        <path d="M948,536.633C948,539.534 950.352,541.886 953.253,541.886C956.154,541.886 958.506,539.534 958.506,536.633C958.506,533.731 956.154,531.38 953.253,531.38C950.352,531.38 948,533.731 948,536.633Z" style="fill:rgb(35,31,32);fill-rule:nonzero;"/>
        <path d="M1064.62,555.544C1064.62,558.445 1066.97,560.798 1069.87,560.798C1072.77,560.798 1075.13,558.445 1075.13,555.544C1075.13,552.643 1072.77,550.291 1069.87,550.291C1066.97,550.291 1064.62,552.643 1064.62,555.544Z" style="fill:rgb(35,31,32);fill-rule:nonzero;"/>
        <path d="M1045.18,555.544C1045.18,558.445 1047.54,560.798 1050.44,560.798C1053.34,560.798 1055.69,558.445 1055.69,555.544C1055.69,552.643 1053.34,550.291 1050.44,550.291C1047.54,550.291 1045.18,552.643 1045.18,555.544Z" style="fill:rgb(35,31,32);fill-rule:nonzero;"/>
        <path d="M1025.75,555.544C1025.75,558.445 1028.1,560.798 1031,560.798C1033.9,560.798 1036.25,558.445 1036.25,555.544C1036.25,552.643 1033.9,550.291 1031,550.291C1028.1,550.291 1025.75,552.643 1025.75,555.544Z" style="fill:rgb(35,31,32);fill-rule:nonzero;"/>
        <path d="M1006.31,555.544C1006.31,558.445 1008.66,560.798 1011.56,560.798C1014.46,560.798 1016.82,558.445 1016.82,555.544C1016.82,552.643 1014.46,550.291 1011.56,550.291C1008.66,550.291 1006.31,552.643 1006.31,555.544Z" style="fill:rgb(35,31,32);fill-rule:nonzero;"/>
        <path d="M986.873,555.544C986.873,558.445 989.226,560.798 992.127,560.798C995.027,560.798 997.38,558.445 997.38,555.544C997.38,552.643 995.027,550.291 992.127,550.291C989.226,550.291 986.873,552.643 986.873,555.544Z" style="fill:rgb(35,31,32);fill-rule:nonzero;"/>
        <path d="M967.437,555.544C967.437,558.445 969.789,560.798 972.689,560.798C975.591,560.798 977.943,558.445 977.943,555.544C977.943,552.643 975.591,550.291 972.689,550.291C969.789,550.291 967.437,552.643 967.437,555.544Z" style="fill:rgb(35,31,32);fill-rule:nonzero;"/>
        <path d="M1084.06,574.456C1084.06,577.357 1086.41,579.709 1089.31,579.709C1092.21,579.709 1094.56,577.357 1094.56,574.456C1094.56,571.555 1092.21,569.202 1089.31,569.202C1086.41,569.202 1084.06,571.555 1084.06,574.456Z" style="fill:rgb(35,31,32);fill-rule:nonzero;"/>
        <path d="M1064.62,574.456C1064.62,577.357 1066.97,579.709 1069.87,579.709C1072.77,579.709 1075.13,577.357 1075.13,574.456C1075.13,571.555 1072.77,569.202 1069.87,569.202C1066.97,569.202 1064.62,571.555 1064.62,574.456Z" style="fill:rgb(35,31,32);fill-rule:nonzero;"/>
        <path d="M1045.18,574.456C1045.18,577.357 1047.54,579.709 1050.44,579.709C1053.34,579.709 1055.69,577.357 1055.69,574.456C1055.69,571.555 1053.34,569.202 1050.44,569.202C1047.54,569.202 1045.18,571.555 1045.18,574.456Z" style="fill:rgb(35,31,32);fill-rule:nonzero;"/>
        <path d="M1025.75,574.456C1025.75,577.357 1028.1,579.709 1031,579.709C1033.9,579.709 1036.25,577.357 1036.25,574.456C1036.25,571.555 1033.9,569.202 1031,569.202C1028.1,569.202 1025.75,571.555 1025.75,574.456Z" style="fill:rgb(35,31,32);fill-rule:nonzero;"/>
        <path d="M1006.31,574.456C1006.31,577.357 1008.66,579.709 1011.56,579.709C1014.46,579.709 1016.82,577.357 1016.82,574.456C1016.82,571.555 1014.46,569.202 1011.56,569.202C1008.66,569.202 1006.31,571.555 1006.31,574.456Z" style="fill:rgb(35,31,32);fill-rule:nonzero;"/>
        <path d="M986.873,574.456C986.873,577.357 989.226,579.709 992.127,579.709C995.027,579.709 997.38,577.357 997.38,574.456C997.38,571.555 995.027,569.202 992.127,569.202C989.226,569.202 986.873,571.555 986.873,574.456Z" style="fill:rgb(35,31,32);fill-rule:nonzero;"/>
        <path d="M1103.49,593.367C1103.49,596.269 1105.85,598.62 1108.75,598.62C1111.65,598.62 1114,596.269 1114,593.367C1114,590.466 1111.65,588.114 1108.75,588.114C1105.85,588.114 1103.49,590.466 1103.49,593.367Z" style="fill:rgb(35,31,32);fill-rule:nonzero;"/>
        <path d="M1084.06,593.367C1084.06,596.269 1086.41,598.62 1089.31,598.62C1092.21,598.62 1094.56,596.269 1094.56,593.367C1094.56,590.466 1092.21,588.114 1089.31,588.114C1086.41,588.114 1084.06,590.466 1084.06,593.367Z" style="fill:rgb(35,31,32);fill-rule:nonzero;"/>
        <path d="M1064.62,593.367C1064.62,596.269 1066.97,598.62 1069.87,598.62C1072.77,598.62 1075.13,596.269 1075.13,593.367C1075.13,590.466 1072.77,588.114 1069.87,588.114C1066.97,588.114 1064.62,590.466 1064.62,593.367Z" style="fill:rgb(35,31,32);fill-rule:nonzero;"/>
        <path d="M1045.18,593.367C1045.18,596.269 1047.54,598.62 1050.44,598.62C1053.34,598.62 1055.69,596.269 1055.69,593.367C1055.69,590.466 1053.34,588.114 1050.44,588.114C1047.54,588.114 1045.18,590.466 1045.18,593.367Z" style="fill:rgb(35,31,32);fill-rule:nonzero;"/>
        <path d="M1025.75,593.367C1025.75,596.269 1028.1,598.62 1031,598.62C1033.9,598.62 1036.25,596.269 1036.25,593.367C1036.25,590.466 1033.9,588.114 1031,588.114C1028.1,588.114 1025.75,590.466 1025.75,593.367Z" style="fill:rgb(35,31,32);fill-rule:nonzero;"/>
        <path d="M1006.31,593.367C1006.31,596.269 1008.66,598.62 1011.56,598.62C1014.46,598.62 1016.82,596.269 1016.82,593.367C1016.82,590.466 1014.46,588.114 1011.56,588.114C1008.66,588.114 1006.31,590.466 1006.31,593.367Z" style="fill:rgb(35,31,32);fill-rule:nonzero;"/>
        <g>
            <clipPath id="_clip2">
                <path d="M1280,472C1217.59,472 1167,522.592 1167,585C1167,647.408 1217.59,698 1280,698L1280,472Z"/>
            </clipPath>
            <g clip-path="url(#_clip2)">
                <path d="M1293.9,418.374L1113.37,598.898L1117.27,602.796L1297.8,422.271L1293.9,418.374Z" style="fill:rgb(35,31,32);fill-rule:nonzero;"/>
                <path d="M1310.44,434.911L1129.91,615.436L1133.81,619.333L1314.33,438.809L1310.44,434.911Z" style="fill:rgb(35,31,32);fill-rule:nonzero;"/>
                <path d="M1326.97,451.447L1146.45,631.972L1150.34,635.869L1330.87,455.345L1326.97,451.447Z" style="fill:rgb(35,31,32);fill-rule:nonzero;"/>
                <path d="M1343.51,467.984L1162.98,648.509L1166.88,652.406L1347.41,471.882L1343.51,467.984Z" style="fill:rgb(35,31,32);fill-rule:nonzero;"/>
                <path d="M1360.04,484.521L1179.52,665.045L1183.42,668.942L1363.94,488.418L1360.04,484.521Z" style="fill:rgb(35,31,32);fill-rule:nonzero;"/>
                <path d="M1376.58,501.058L1196.06,681.582L1199.96,685.479L1380.48,504.955L1376.58,501.058Z" style="fill:rgb(35,31,32);fill-rule:nonzero;"/>
                <path d="M1393.12,517.594L1212.59,698.118L1216.49,702.016L1397.02,521.492L1393.12,517.594Z" style="fill:rgb(35,31,32);fill-rule:nonzero;"/>
                <path d="M1409.66,534.131L1229.13,714.655L1233.03,718.553L1413.55,538.028L1409.66,534.131Z" style="fill:rgb(35,31,32);fill-rule:nonzero;"/>
                <path d="M1426.19,550.667L1245.67,731.191L1249.56,735.089L1430.09,554.564L1426.19,550.667Z" style="fill:rgb(35,31,32);fill-rule:nonzero;"/>
                <path d="M1442.73,567.204L1262.2,747.729L1266.1,751.625L1446.63,571.102L1442.73,567.204Z" style="fill:rgb(35,31,32);fill-rule:nonzero;"/>
            </g>
        </g>
    </g>
</svg>
