<?xml version="1.0" encoding="UTF-8" standalone="no"?>
<!DOCTYPE svg PUBLIC "-//W3C//DTD SVG 1.1//EN" "http://www.w3.org/Graphics/SVG/1.1/DTD/svg11.dtd">
<svg width="100%" height="100%" viewBox="0 0 330 330" version="1.1" xmlns="http://www.w3.org/2000/svg" xmlns:xlink="http://www.w3.org/1999/xlink" xml:space="preserve" xmlns:serif="http://www.serif.com/" style="fill-rule:evenodd;clip-rule:evenodd;stroke-linejoin:round;stroke-miterlimit:2;">
    <g transform="matrix(1,0,0,1,-419,-1128)">
        <g transform="matrix(4.16667,0,0,4.16667,0,0)">
            <path d="M137.802,348.578L142.266,348.578L143.797,338.378C143.839,338.097 144.061,337.875 144.342,337.832C146.281,337.537 148.206,337.024 150.063,336.309C150.327,336.207 150.627,336.287 150.805,336.51L157.229,344.568L161.094,342.343L157.317,332.735C157.213,332.471 157.293,332.169 157.514,331.99C159.049,330.756 160.458,329.348 161.702,327.807C161.88,327.585 162.184,327.504 162.445,327.61L172.047,331.388L174.282,327.519L166.213,321.093C165.99,320.915 165.909,320.614 166.012,320.35C166.729,318.495 167.244,316.573 167.542,314.638C167.585,314.356 167.807,314.136 168.088,314.094L178.29,312.559L178.29,308.094L168.088,306.559C167.807,306.517 167.585,306.296 167.542,306.015C167.244,304.08 166.729,302.157 166.011,300.302C165.909,300.037 165.991,299.736 166.213,299.559L174.282,293.134L172.047,289.265L162.445,293.042C162.184,293.147 161.88,293.067 161.702,292.846C160.458,291.305 159.049,289.896 157.514,288.662C157.293,288.483 157.213,288.182 157.317,287.917L161.095,278.309L157.229,276.076L150.805,284.143C150.627,284.364 150.327,284.445 150.063,284.344C148.214,283.631 146.289,283.116 144.34,282.813C144.059,282.77 143.839,282.549 143.797,282.268L142.266,272.073L137.802,272.073L136.271,282.268C136.229,282.549 136.009,282.77 135.728,282.813C133.775,283.116 131.851,283.632 130.009,284.344C129.746,284.445 129.444,284.365 129.267,284.143L122.842,276.076L118.973,278.309L122.75,287.917C122.854,288.182 122.774,288.483 122.553,288.662C121.029,289.887 119.621,291.295 118.369,292.846C118.191,293.067 117.889,293.147 117.625,293.042L108.021,289.265L105.789,293.134L113.854,299.55C114.076,299.727 114.158,300.027 114.056,300.292C113.344,302.144 112.828,304.069 112.523,306.017C112.479,306.297 112.259,306.517 111.978,306.559L101.781,308.094L101.781,312.559L111.978,314.094C112.259,314.136 112.479,314.355 112.523,314.636C112.829,316.588 113.344,318.511 114.056,320.35C114.158,320.614 114.077,320.915 113.854,321.093L105.789,327.519L108.021,331.388L117.625,327.61C117.889,327.504 118.191,327.585 118.369,327.807C119.621,329.357 121.029,330.766 122.553,331.99C122.774,332.169 122.854,332.471 122.75,332.735L118.973,342.344L122.841,344.576L129.267,336.503C129.444,336.279 129.746,336.198 130.011,336.303C131.851,337.021 133.773,337.535 135.726,337.832C136.007,337.875 136.229,338.097 136.271,338.378L137.802,348.578ZM142.825,349.879L137.243,349.879C136.921,349.879 136.647,349.644 136.6,349.325L135.056,339.041C133.33,338.748 131.629,338.293 129.988,337.685L123.51,345.824C123.31,346.075 122.955,346.143 122.677,345.982L117.838,343.189C117.56,343.029 117.44,342.688 117.558,342.389L121.367,332.7C120.034,331.59 118.79,330.346 117.661,328.993L107.976,332.802C107.677,332.922 107.336,332.801 107.175,332.522L104.383,327.684C104.223,327.404 104.29,327.051 104.541,326.85L112.674,320.37C112.071,318.731 111.616,317.032 111.317,315.309L101.034,313.761C100.716,313.713 100.481,313.439 100.481,313.118L100.481,307.534C100.481,307.213 100.716,306.939 101.034,306.892L111.317,305.344C111.615,303.623 112.071,301.922 112.674,300.272L104.542,293.803C104.29,293.603 104.223,293.248 104.383,292.969L107.175,288.13C107.336,287.852 107.677,287.732 107.976,287.851L117.661,291.659C118.79,290.307 120.034,289.063 121.367,287.952L117.558,278.264C117.44,277.964 117.56,277.623 117.838,277.463L122.677,274.67C122.954,274.51 123.31,274.578 123.51,274.828L129.989,282.962C131.63,282.358 133.331,281.903 135.056,281.606L136.6,271.326C136.647,271.008 136.921,270.772 137.243,270.772L142.825,270.772C143.147,270.772 143.42,271.008 143.468,271.326L145.012,281.606C146.735,281.903 148.436,282.358 150.083,282.963L156.562,274.828C156.761,274.577 157.115,274.508 157.395,274.671L162.229,277.463C162.508,277.623 162.627,277.964 162.509,278.264L158.7,287.952C160.042,289.069 161.286,290.313 162.41,291.659L172.092,287.851C172.388,287.73 172.731,287.851 172.893,288.13L175.688,292.969C175.849,293.247 175.782,293.602 175.53,293.803L167.393,300.281C168.001,301.933 168.456,303.632 168.75,305.344L179.037,306.892C179.354,306.939 179.59,307.213 179.59,307.534L179.59,313.118C179.59,313.439 179.354,313.713 179.037,313.761L168.75,315.309C168.456,317.021 168,318.72 167.393,320.37L175.53,326.85C175.782,327.051 175.849,327.405 175.688,327.684L172.893,332.522C172.732,332.802 172.39,332.922 172.092,332.802L162.41,328.993C161.286,330.339 160.042,331.583 158.7,332.7L162.509,342.389C162.627,342.688 162.508,343.029 162.229,343.19L157.394,345.974C157.115,346.134 156.762,346.065 156.562,345.815L150.083,337.689C148.43,338.296 146.728,338.75 145.012,339.041L143.468,349.325C143.42,349.644 143.147,349.879 142.825,349.879Z" style="fill:rgb(239,158,32);fill-rule:nonzero;"/>
            <path d="M140.033,292.257C130.071,292.257 121.965,300.362 121.965,310.326C121.965,320.29 130.071,328.396 140.033,328.396C149.999,328.396 158.106,320.29 158.106,310.326C158.106,300.362 149.999,292.257 140.033,292.257ZM140.033,329.696C129.354,329.696 120.666,321.007 120.666,310.326C120.666,299.646 129.354,290.956 140.033,290.956C150.715,290.956 159.406,299.646 159.406,310.326C159.406,321.007 150.715,329.696 140.033,329.696Z" style="fill:rgb(239,158,32);fill-rule:nonzero;"/>
            <path d="M140.033,309.152C139.387,309.152 138.86,309.679 138.86,310.326C138.86,310.974 139.387,311.5 140.033,311.5C140.681,311.5 141.208,310.974 141.208,310.326C141.208,309.679 140.681,309.152 140.033,309.152ZM140.033,312.801C138.67,312.801 137.561,311.69 137.561,310.326C137.561,308.962 138.67,307.852 140.033,307.852C141.397,307.852 142.507,308.962 142.507,310.326C142.507,311.69 141.397,312.801 140.033,312.801Z" style="fill:rgb(239,158,32);fill-rule:nonzero;"/>
            <path d="M138.832,309.606C138.651,309.606 138.471,309.531 138.343,309.385L134.485,304.992C134.248,304.723 134.274,304.312 134.544,304.075C134.814,303.839 135.226,303.865 135.461,304.135L139.319,308.527C139.556,308.797 139.53,309.208 139.26,309.444C139.137,309.553 138.983,309.606 138.832,309.606ZM149.676,311.774C149.658,311.774 149.64,311.773 149.622,311.771L141.799,311.129C141.441,311.1 141.175,310.786 141.205,310.429C141.234,310.071 141.543,309.793 141.906,309.834L149.729,310.477C150.086,310.506 150.353,310.819 150.323,311.177C150.295,311.517 150.011,311.774 149.676,311.774Z" style="fill:rgb(239,158,32);fill-rule:nonzero;"/>
        </g>
    </g>
</svg>
