<?xml version="1.0" encoding="UTF-8" standalone="no"?>
<!DOCTYPE svg PUBLIC "-//W3C//DTD SVG 1.1//EN" "http://www.w3.org/Graphics/SVG/1.1/DTD/svg11.dtd">
<svg width="100%" height="100%" viewBox="0 0 339 339" version="1.1" xmlns="http://www.w3.org/2000/svg" xmlns:xlink="http://www.w3.org/1999/xlink" xml:space="preserve" xmlns:serif="http://www.serif.com/" style="fill-rule:evenodd;clip-rule:evenodd;stroke-linejoin:round;stroke-miterlimit:2;">
    <g transform="matrix(1,0,0,1,-2580,-1127)">
        <g transform="matrix(4.16667,0,0,4.16667,0,0)">
            <path d="M621.803,342.09L698.312,342.09L698.312,278.524L621.803,278.524L621.803,342.09ZM698.962,343.391L621.152,343.391C620.793,343.391 620.502,343.1 620.502,342.74L620.502,277.874C620.502,277.515 620.793,277.224 621.152,277.224L698.962,277.224C699.321,277.224 699.612,277.515 699.612,277.874L699.612,342.74C699.612,343.1 699.321,343.391 698.962,343.391Z" style="fill:rgb(239,158,32);fill-rule:nonzero;"/>
            <path d="M665.502,342.09L698.312,342.09L698.312,319.36C698.011,319.078 697.674,318.783 697.288,318.465C697.071,318.286 696.994,317.986 697.098,317.725L698.312,314.658L698.312,311.217L697.324,310.647L693.395,315.587C693.217,315.811 692.916,315.892 692.649,315.788C691.533,315.353 690.333,315.029 689.08,314.828C688.801,314.783 688.583,314.563 688.541,314.283L687.604,308.043L685.196,308.043L684.253,314.283C684.211,314.563 683.992,314.783 683.714,314.828C682.462,315.029 681.265,315.353 680.153,315.788C679.891,315.892 679.585,315.813 679.407,315.587L675.476,310.647L673.384,311.853L675.696,317.726C675.8,317.989 675.722,318.289 675.503,318.468C674.527,319.263 673.647,320.143 672.889,321.082C672.709,321.302 672.41,321.384 672.145,321.277L666.272,318.969L665.065,321.059L669.995,324.99C670.216,325.166 670.298,325.465 670.197,325.729C669.748,326.909 669.429,328.11 669.247,329.301C669.204,329.583 668.982,329.804 668.7,329.846L662.461,330.778L662.461,332.718L668.7,333.651C668.982,333.693 669.204,333.914 669.247,334.196C669.428,335.384 669.748,336.586 670.197,337.769C670.298,338.033 670.216,338.332 669.995,338.508L665.502,342.09ZM698.962,343.391L664.483,343.391C664.249,343.391 664.033,343.265 663.918,343.061L663.657,342.6C663.5,342.321 663.567,341.97 663.817,341.771L668.818,337.784C668.477,336.816 668.217,335.839 668.041,334.867L661.715,333.92C661.396,333.873 661.16,333.6 661.16,333.277L661.16,330.219C661.16,329.896 661.396,329.623 661.715,329.576L668.041,328.63C668.217,327.656 668.478,326.679 668.818,325.714L663.817,321.726C663.566,321.525 663.499,321.171 663.66,320.893L665.427,317.834C665.588,317.556 665.928,317.435 666.228,317.555L672.184,319.896C672.826,319.143 673.54,318.429 674.315,317.766L671.969,311.808C671.851,311.508 671.97,311.167 672.249,311.006L675.312,309.241C675.589,309.082 675.944,309.148 676.145,309.4L680.13,314.408C681.055,314.075 682.029,313.813 683.038,313.626L683.994,307.296C684.042,306.978 684.315,306.742 684.637,306.742L688.163,306.742C688.484,306.742 688.758,306.978 688.806,307.296L689.757,313.626C690.767,313.813 691.743,314.075 692.671,314.408L696.655,309.4C696.855,309.147 697.212,309.081 697.488,309.241L699.286,310.277C699.488,310.394 699.612,310.608 699.612,310.841L699.612,314.782C699.612,314.864 699.597,314.945 699.566,315.021L698.479,317.768C698.825,318.063 699.134,318.344 699.415,318.615C699.541,318.738 699.612,318.906 699.612,319.082L699.612,342.74C699.612,343.1 699.321,343.391 698.962,343.391Z" style="fill:rgb(239,158,32);fill-rule:nonzero;"/>
            <path d="M698.962,291.672L621.152,291.672C620.793,291.672 620.502,291.381 620.502,291.021C620.502,290.662 620.793,290.371 621.152,290.371L698.962,290.371C699.321,290.371 699.612,290.662 699.612,291.021C699.612,291.381 699.321,291.672 698.962,291.672Z" style="fill:rgb(239,158,32);fill-rule:nonzero;"/>
            <path d="M629.008,282.742C628.147,282.742 627.447,283.444 627.447,284.309C627.447,285.167 628.147,285.864 629.008,285.864C629.872,285.864 630.574,285.167 630.574,284.309C630.574,283.444 629.872,282.742 629.008,282.742ZM629.008,287.165C627.431,287.165 626.146,285.884 626.146,284.309C626.146,282.728 627.431,281.441 629.008,281.441C630.589,281.441 631.875,282.728 631.875,284.309C631.875,285.884 630.589,287.165 629.008,287.165Z" style="fill:rgb(239,158,32);fill-rule:nonzero;"/>
            <path d="M638.608,282.742C637.732,282.742 637.047,283.43 637.047,284.309C637.047,285.167 637.747,285.864 638.608,285.864C639.471,285.864 640.172,285.167 640.172,284.309C640.172,283.444 639.471,282.742 638.608,282.742ZM638.608,287.165C637.03,287.165 635.746,285.884 635.746,284.309C635.746,282.728 637.03,281.441 638.608,281.441C640.188,281.441 641.473,282.728 641.473,284.309C641.473,285.884 640.188,287.165 638.608,287.165Z" style="fill:rgb(239,158,32);fill-rule:nonzero;"/>
            <path d="M698.962,284.959L655.734,284.959C655.375,284.959 655.084,284.668 655.084,284.309C655.084,283.949 655.375,283.658 655.734,283.658L698.962,283.658C699.321,283.658 699.612,283.949 699.612,284.309C699.612,284.668 699.321,284.959 698.962,284.959Z" style="fill:rgb(239,158,32);fill-rule:nonzero;"/>
            <path d="M631.161,300.604L688.955,300.604L688.955,297.851L631.161,297.851L631.161,300.604ZM689.605,301.905L630.511,301.905C630.151,301.905 629.86,301.614 629.86,301.255L629.86,297.2C629.86,296.841 630.151,296.55 630.511,296.55L689.605,296.55C689.965,296.55 690.256,296.841 690.256,297.2L690.256,301.255C690.256,301.614 689.965,301.905 689.605,301.905Z" style="fill:rgb(239,158,32);fill-rule:nonzero;"/>
            <path d="M664.418,310.393L630.26,310.393C629.9,310.393 629.609,310.102 629.609,309.742C629.609,309.383 629.9,309.092 630.26,309.092L664.418,309.092C664.777,309.092 665.068,309.383 665.068,309.742C665.068,310.102 664.777,310.393 664.418,310.393Z" style="fill:rgb(239,158,32);fill-rule:nonzero;"/>
            <path d="M642.688,314.479L630.26,314.479C629.9,314.479 629.609,314.188 629.609,313.828C629.609,313.469 629.9,313.178 630.26,313.178L642.688,313.178C643.048,313.178 643.339,313.469 643.339,313.828C643.339,314.188 643.048,314.479 642.688,314.479Z" style="fill:rgb(239,158,32);fill-rule:nonzero;"/>
            <path d="M657.639,318.573L630.26,318.573C629.9,318.573 629.609,318.282 629.609,317.923C629.609,317.563 629.9,317.272 630.26,317.272L657.639,317.272C657.998,317.272 658.289,317.563 658.289,317.923C658.289,318.282 657.998,318.573 657.639,318.573Z" style="fill:rgb(239,158,32);fill-rule:nonzero;"/>
            <path d="M650.306,322.659L630.26,322.659C629.9,322.659 629.609,322.368 629.609,322.009C629.609,321.649 629.9,321.358 630.26,321.358L650.306,321.358C650.665,321.358 650.956,321.649 650.956,322.009C650.956,322.368 650.665,322.659 650.306,322.659Z" style="fill:rgb(239,158,32);fill-rule:nonzero;"/>
            <path d="M657.496,326.744L630.26,326.744C629.9,326.744 629.609,326.453 629.609,326.094C629.609,325.734 629.9,325.443 630.26,325.443L657.496,325.443C657.855,325.443 658.146,325.734 658.146,326.094C658.146,326.453 657.855,326.744 657.496,326.744Z" style="fill:rgb(239,158,32);fill-rule:nonzero;"/>
            <path d="M649.668,330.839L630.26,330.839C629.9,330.839 629.609,330.548 629.609,330.188C629.609,329.829 629.9,329.538 630.26,329.538L649.668,329.538C650.027,329.538 650.318,329.829 650.318,330.188C650.318,330.548 650.027,330.839 649.668,330.839Z" style="fill:rgb(239,158,32);fill-rule:nonzero;"/>
        </g>
    </g>
</svg>
