<?xml version="1.0" encoding="UTF-8" standalone="no"?>
<!DOCTYPE svg PUBLIC "-//W3C//DTD SVG 1.1//EN" "http://www.w3.org/Graphics/SVG/1.1/DTD/svg11.dtd">
<svg width="100%" height="100%" viewBox="0 0 330 330" version="1.1" xmlns="http://www.w3.org/2000/svg" xmlns:xlink="http://www.w3.org/1999/xlink" xml:space="preserve" xmlns:serif="http://www.serif.com/" style="fill-rule:evenodd;clip-rule:evenodd;stroke-linejoin:round;stroke-miterlimit:2;">
    <g transform="matrix(1,0,0,1,-1501,-1128)">
        <g transform="matrix(4.16667,0,0,4.16667,0,0)">
            <path d="M368.236,316.469L431.834,316.469L431.834,272.071L368.236,272.071L368.236,316.469ZM432.484,317.77L367.586,317.77C367.227,317.77 366.936,317.479 366.936,317.119L366.936,271.421C366.936,271.062 367.227,270.771 367.586,270.771L432.484,270.771C432.844,270.771 433.135,271.062 433.135,271.421L433.135,317.119C433.135,317.479 432.844,317.77 432.484,317.77Z" style="fill:rgb(239,158,32);fill-rule:nonzero;"/>
            <path d="M372.652,312.048L427.419,312.048L427.419,276.492L372.652,276.492L372.652,312.048ZM428.069,313.349L372.002,313.349C371.643,313.349 371.352,313.058 371.352,312.698L371.352,275.842C371.352,275.482 371.643,275.191 372.002,275.191L428.069,275.191C428.429,275.191 428.72,275.482 428.72,275.842L428.72,312.698C428.72,313.058 428.429,313.349 428.069,313.349Z" style="fill:rgb(239,158,32);fill-rule:nonzero;"/>
            <path d="M390.94,325.68L409.126,325.68L406.592,317.77L393.472,317.77L390.94,325.68ZM410.036,326.98C410.031,326.981 410.024,326.981 410.017,326.98L390.05,326.98C389.842,326.98 389.647,326.881 389.524,326.713C389.402,326.546 389.367,326.33 389.431,326.132L392.378,316.921C392.464,316.651 392.715,316.469 392.997,316.469L407.066,316.469C407.349,316.469 407.6,316.651 407.686,316.921L410.59,325.988C410.651,326.088 410.687,326.205 410.687,326.33C410.687,326.689 410.396,326.98 410.036,326.98Z" style="fill:rgb(239,158,32);fill-rule:nonzero;"/>
            <path d="M400.033,320.979C399.624,320.979 399.292,321.314 399.292,321.726C399.292,322.137 399.624,322.471 400.033,322.471C400.443,322.471 400.776,322.137 400.776,321.726C400.776,321.314 400.443,320.979 400.033,320.979ZM400.033,323.771C398.907,323.771 397.991,322.854 397.991,321.726C397.991,320.597 398.907,319.679 400.033,319.679C401.16,319.679 402.077,320.597 402.077,321.726C402.077,322.854 401.16,323.771 400.033,323.771Z" style="fill:rgb(239,158,32);fill-rule:nonzero;"/>
            <path d="M372.095,348.581L427.976,348.581L425.235,331.644L374.83,331.644L372.095,348.581ZM428.759,349.882C428.755,349.883 428.747,349.883 428.739,349.882L371.331,349.882C371.141,349.882 370.96,349.798 370.836,349.653C370.713,349.508 370.659,349.315 370.689,349.128L373.635,330.89C373.686,330.574 373.957,330.343 374.276,330.343L425.789,330.343C426.108,330.343 426.38,330.574 426.431,330.89L429.355,348.974C429.391,349.053 429.409,349.14 429.409,349.231C429.409,349.591 429.118,349.882 428.759,349.882Z" style="fill:rgb(239,158,32);fill-rule:nonzero;"/>
            <path d="M421.648,335.431L378.421,335.431C378.062,335.431 377.771,335.14 377.771,334.78C377.771,334.421 378.062,334.13 378.421,334.13L421.648,334.13C422.008,334.13 422.299,334.421 422.299,334.78C422.299,335.14 422.008,335.431 421.648,335.431Z" style="fill:rgb(239,158,32);fill-rule:nonzero;"/>
            <path d="M421.648,340.855L378.421,340.855C378.062,340.855 377.771,340.564 377.771,340.205C377.771,339.846 378.062,339.555 378.421,339.555L421.648,339.555C422.008,339.555 422.299,339.846 422.299,340.205C422.299,340.564 422.008,340.855 421.648,340.855Z" style="fill:rgb(239,158,32);fill-rule:nonzero;"/>
            <path d="M389.239,345.917L378.421,345.917C378.062,345.917 377.771,345.626 377.771,345.267C377.771,344.907 378.062,344.616 378.421,344.616L389.239,344.616C389.599,344.616 389.89,344.907 389.89,345.267C389.89,345.626 389.599,345.917 389.239,345.917ZM420.614,345.917L409.636,345.917C409.276,345.917 408.985,345.626 408.985,345.267C408.985,344.907 409.276,344.616 409.636,344.616L420.614,344.616C420.974,344.616 421.265,344.907 421.265,345.267C421.265,345.626 420.974,345.917 420.614,345.917Z" style="fill:rgb(239,158,32);fill-rule:nonzero;"/>
            <path d="M405.802,345.917L391.616,345.917C391.257,345.917 390.966,345.626 390.966,345.267C390.966,344.907 391.257,344.616 391.616,344.616L405.802,344.616C406.161,344.616 406.452,344.907 406.452,345.267C406.452,345.626 406.161,345.917 405.802,345.917Z" style="fill:rgb(239,158,32);fill-rule:nonzero;"/>
            <path d="M399.187,287.531C399.216,287.531 399.245,287.534 399.275,287.538C399.777,287.519 401.001,287.258 402.771,285.494C403.175,285.09 403.201,284.555 403.212,283.715C403.223,283.018 403.234,282.226 403.516,281.402C403.313,281.455 403.112,281.518 402.914,281.589C402.003,281.925 401.174,282.459 400.454,283.178C398.662,284.971 398.422,286.203 398.408,286.685C398.411,286.711 398.413,286.735 398.413,286.756C398.413,286.941 398.445,287.196 398.598,287.353C398.701,287.453 398.885,287.521 399.11,287.536C399.136,287.533 399.161,287.531 399.187,287.531ZM399.21,288.84C399.195,288.841 399.18,288.84 399.162,288.84C399.157,288.84 399.151,288.84 399.146,288.839C398.554,288.824 398.047,288.629 397.681,288.273C397.314,287.9 397.122,287.396 397.113,286.801C397.109,286.772 397.107,286.744 397.107,286.716C397.114,285.401 397.977,283.818 399.535,282.258C400.389,281.405 401.376,280.77 402.47,280.367C403.18,280.112 403.908,279.953 404.641,279.893C404.886,279.861 405.138,280.001 405.262,280.223C405.386,280.445 405.369,280.721 405.218,280.926C404.54,281.846 404.526,282.747 404.513,283.701C404.501,284.613 404.488,285.613 403.689,286.414C402.119,287.979 400.529,288.84 399.21,288.84Z" style="fill:rgb(239,158,32);fill-rule:nonzero;"/>
            <path d="M397.854,291.082C397.688,291.082 397.52,291.018 397.393,290.889C397.14,290.634 397.142,290.223 397.397,289.97C397.697,289.673 398.003,289.369 398.313,289.054C398.411,288.956 398.484,288.849 398.533,288.731C398.235,288.607 397.966,288.43 397.738,288.205C397.506,287.968 397.328,287.702 397.205,287.409C397.086,287.458 396.981,287.531 396.889,287.625C396.575,287.934 396.271,288.236 395.978,288.539C395.729,288.798 395.315,288.804 395.059,288.554C394.801,288.305 394.794,287.893 395.044,287.635C395.344,287.324 395.655,287.014 395.972,286.703C396.261,286.413 396.611,286.208 396.981,286.115C397.193,286.05 397.445,286.018 397.705,286.031C398.016,286.046 398.271,286.278 398.316,286.586C398.358,286.865 398.47,287.095 398.659,287.287C398.834,287.46 399.079,287.579 399.358,287.622C399.664,287.67 399.895,287.927 399.908,288.235C399.919,288.485 399.889,288.744 399.82,288.983C399.714,289.357 399.517,289.69 399.235,289.971C398.925,290.285 398.615,290.593 398.312,290.894C398.186,291.019 398.02,291.082 397.854,291.082Z" style="fill:rgb(239,158,32);fill-rule:nonzero;"/>
            <path d="M395.757,293.13C395.59,293.13 395.424,293.065 395.297,292.938L393.002,290.639C392.75,290.387 392.748,289.979 392.998,289.725L393.44,289.272C393.99,288.709 394.833,287.846 395.051,287.628C395.305,287.375 395.716,287.372 395.97,287.627C396.224,287.88 396.225,288.292 395.971,288.546C395.756,288.762 394.923,289.615 394.375,290.175L395.763,291.564C395.955,291.377 396.183,291.155 396.406,290.937L397.397,289.969C397.653,289.717 398.063,289.719 398.317,289.975C398.569,290.23 398.566,290.642 398.312,290.895L397.313,291.868C396.846,292.323 396.366,292.791 396.214,292.941C396.088,293.066 395.922,293.13 395.757,293.13Z" style="fill:rgb(239,158,32);fill-rule:nonzero;"/>
            <path d="M393.472,291.109C389.837,294.919 387.071,298.17 385.69,300.249C387.774,298.86 391.025,296.094 394.828,292.469L393.472,291.109ZM384.172,302.454C384.002,302.454 383.805,302.377 383.684,302.258C383.273,301.803 383.538,301.303 384.124,300.303C385.396,298.111 388.546,294.355 392.993,289.729C393.114,289.604 393.281,289.531 393.456,289.529C393.657,289.517 393.799,289.597 393.922,289.721L396.217,292.021C396.34,292.144 396.408,292.312 396.407,292.486C396.405,292.661 396.333,292.827 396.207,292.948C391.597,297.377 387.844,300.526 385.64,301.815C384.611,302.407 384.375,302.454 384.172,302.454Z" style="fill:rgb(239,158,32);fill-rule:nonzero;"/>
            <path d="M393.692,302.405L391.896,306.992L396.614,305.57L410.672,292.588L407.749,289.424L393.692,302.405ZM390.804,308.651C390.625,308.651 390.451,308.577 390.326,308.441C390.157,308.259 390.107,307.996 390.198,307.764L392.536,301.792C392.572,301.701 392.628,301.618 392.7,301.552L407.344,288.028C407.607,287.786 408.02,287.801 408.263,288.064L412.068,292.183C412.186,292.31 412.247,292.478 412.24,292.649C412.233,292.822 412.158,292.984 412.032,293.102L397.387,306.627C397.313,306.693 397.228,306.743 397.133,306.771L390.991,308.623C390.93,308.642 390.866,308.651 390.804,308.651Z" style="fill:rgb(239,158,32);fill-rule:nonzero;"/>
            <path d="M397.299,307.013C397.008,307.013 396.744,306.816 396.669,306.522L396.472,305.746L395.96,305.708C395.66,305.685 395.415,305.46 395.367,305.163L395.236,304.351L394.65,304.351C394.478,304.351 394.312,304.281 394.189,304.159C394.067,304.036 394,303.87 394,303.697L394.003,303.12L393.195,302.992C392.841,302.937 392.599,302.604 392.655,302.249C392.71,301.895 393.05,301.648 393.398,301.709L394.757,301.924C395.073,301.974 395.307,302.247 395.306,302.568L395.303,303.05L395.79,303.05C396.109,303.05 396.381,303.282 396.432,303.597L396.569,304.45L397.035,304.485C397.313,304.507 397.548,304.703 397.616,304.974L397.929,306.202C398.018,306.55 397.807,306.903 397.459,306.992C397.405,307.006 397.352,307.013 397.299,307.013Z" style="fill:rgb(239,158,32);fill-rule:nonzero;"/>
            <path d="M408.737,288.401L411.785,291.446L412.357,290.874C412.509,290.725 412.591,290.525 412.592,290.312C412.593,290.092 412.51,289.887 412.356,289.732L410.446,287.828C410.144,287.523 409.612,287.524 409.315,287.825L408.737,288.401ZM411.786,293.016C411.62,293.016 411.454,292.952 411.327,292.825L407.358,288.861C407.236,288.739 407.167,288.573 407.167,288.401C407.167,288.229 407.236,288.063 407.358,287.941L408.395,286.908C409.177,286.118 410.574,286.112 411.366,286.91L413.276,288.814C413.677,289.217 413.895,289.75 413.893,290.318C413.89,290.88 413.67,291.405 413.273,291.796L412.246,292.824C412.119,292.952 411.952,293.016 411.786,293.016Z" style="fill:rgb(239,158,32);fill-rule:nonzero;"/>
        </g>
    </g>
</svg>
