<?xml version="1.0" encoding="UTF-8" standalone="no"?>
<!DOCTYPE svg PUBLIC "-//W3C//DTD SVG 1.1//EN" "http://www.w3.org/Graphics/SVG/1.1/DTD/svg11.dtd">
<svg width="100%" height="100%" viewBox="0 0 330 330" version="1.1" xmlns="http://www.w3.org/2000/svg" xmlns:xlink="http://www.w3.org/1999/xlink" xml:space="preserve" xmlns:serif="http://www.serif.com/" style="fill-rule:evenodd;clip-rule:evenodd;stroke-linecap:round;stroke-linejoin:round;stroke-miterlimit:2;">
    <g transform="matrix(1,0,0,1,-958,-1128)">
        <g transform="matrix(4.16667,0,0,4.16667,0,0)">
            <path d="M269.84,282.444C273.375,282.444 276.236,285.316 276.236,288.841C276.236,292.365 273.375,295.236 269.84,295.236C266.316,295.236 263.454,292.365 263.454,288.841C263.454,285.316 266.316,282.444 269.84,282.444Z" style="fill:none;stroke:rgb(239,158,32);stroke-width:1.3px;"/>
            <path d="M252.519,345.472L287.553,345.472L287.553,349.231L252.519,349.231L252.519,345.472Z" style="fill:none;stroke:rgb(239,158,32);stroke-width:1.3px;"/>
            <path d="M277.582,333.521L280.726,345.472L259.354,345.472L262.497,333.521L277.582,333.521Z" style="fill:none;stroke:rgb(239,158,32);stroke-width:1.3px;"/>
            <path d="M268.649,329.693C268.649,330.455 269.274,331.07 270.036,331.07C270.808,331.07 271.422,330.455 271.422,329.693C271.422,328.922 270.808,328.297 270.036,328.297C269.274,328.297 268.649,328.922 268.649,329.693ZM240.011,325.855L300.061,325.855C301.769,325.855 303.165,324.45 303.165,322.741L303.165,329.85C303.165,331.86 301.515,333.521 299.494,333.521L277.582,333.521L262.497,333.521L256.083,333.521L240.588,333.521C238.566,333.521 236.906,331.86 236.906,329.85L236.906,322.741C236.906,324.45 238.303,325.855 240.011,325.855Z" style="fill:none;stroke:rgb(239,158,32);stroke-width:1.3px;"/>
            <path d="M248.916,313.729L248.916,316.601L243.81,316.601L243.81,313.729L248.916,313.729Z" style="fill:none;stroke:rgb(239,158,32);stroke-width:1.3px;"/>
            <path d="M274.888,312.332L274.888,318.016L264.811,318.016L264.811,312.332L274.888,312.332Z" style="fill:none;stroke:rgb(239,158,32);stroke-width:1.3px;"/>
            <path d="M290.755,313.729L295.851,313.729L295.851,316.601L290.755,316.601L290.755,315.175L290.755,313.729Z" style="fill:none;stroke:rgb(239,158,32);stroke-width:1.3px;"/>
            <path d="M263.454,288.841C263.454,292.365 266.316,295.236 269.84,295.236C273.375,295.236 276.236,292.365 276.236,288.841C276.236,285.316 273.375,282.444 269.84,282.444C266.316,282.444 263.454,285.316 263.454,288.841ZM268.591,306.25L267.867,301.436C266.958,301.29 266.09,301.064 265.252,300.742L262.223,304.542L260.058,303.292L261.834,298.761C261.131,298.194 260.486,297.539 259.92,296.847L255.391,298.634L254.139,296.467L257.946,293.429C257.625,292.6 257.381,291.711 257.243,290.813L252.43,290.09L252.43,288.841L252.43,287.592L257.243,286.868C257.381,285.951 257.625,285.081 257.946,284.242L257.321,283.754L254.139,281.215L255.391,279.048L259.92,280.834C260.486,280.121 261.131,279.486 261.834,278.91L260.058,274.379L262.223,273.13L265.252,276.938C266.09,276.616 266.958,276.371 267.867,276.244L268.591,271.421L271.09,271.421L271.823,276.244C272.72,276.371 273.598,276.616 274.438,276.938L277.465,273.13L279.634,274.379L277.846,278.91C278.56,279.486 279.194,280.121 279.761,280.834L284.3,279.048L285.55,281.215L282.368,283.754L281.741,284.242C282.063,285.081 282.3,285.951 282.444,286.868L287.258,287.592L287.258,290.081L282.444,290.813C282.3,291.711 282.063,292.6 281.741,293.429L285.55,296.467L284.3,298.624L279.761,296.847C279.194,297.539 278.56,298.194 277.846,298.761L279.634,303.292L277.465,304.542L274.438,300.742C273.598,301.064 272.72,301.29 271.823,301.436L271.09,306.25L268.591,306.25Z" style="fill:none;stroke:rgb(239,158,32);stroke-width:1.3px;"/>
            <path d="M267.867,301.436L268.591,306.25L271.09,306.25L271.823,301.436C272.72,301.29 273.598,301.064 274.438,300.742L277.465,304.542L279.634,303.292L277.846,298.761C278.56,298.194 279.194,297.539 279.761,296.847L284.3,298.624L285.55,296.467L281.741,293.429C282.063,292.6 282.3,291.711 282.444,290.813L287.258,290.081L287.258,288.841L287.258,287.592L282.444,286.868C282.3,285.951 282.063,285.081 281.741,284.242L282.368,283.754L299.494,283.754C301.515,283.754 303.165,285.404 303.165,287.425L303.165,322.741C303.165,324.45 301.769,325.855 300.061,325.855L240.011,325.855C238.303,325.855 236.906,324.45 236.906,322.741L236.906,287.425C236.906,285.404 238.566,283.754 240.588,283.754L257.321,283.754L257.946,284.242C257.625,285.081 257.381,285.951 257.243,286.868L252.43,287.592L252.43,290.09L257.243,290.813C257.381,291.711 257.625,292.6 257.946,293.429L254.139,296.467L255.391,298.634L259.92,296.847C260.486,297.539 261.131,298.194 261.834,298.761L260.058,303.292L262.223,304.542L265.252,300.742C266.09,301.064 266.958,301.29 267.867,301.436ZM274.888,312.332L264.811,312.332L264.811,318.016L274.888,318.016L274.888,315.175L274.888,312.332ZM295.851,313.729L290.755,313.729L290.755,316.601L295.851,316.601L295.851,313.729ZM243.81,313.729L243.81,316.601L248.916,316.601L248.916,315.175L248.916,313.729L243.81,313.729Z" style="fill:none;stroke:rgb(239,158,32);stroke-width:1.3px;"/>
            <path d="M262.497,333.521L256.083,333.521L240.588,333.521C238.566,333.521 236.906,331.86 236.906,329.85L236.906,322.741L236.906,287.425C236.906,285.404 238.566,283.754 240.588,283.754L257.321,283.754" style="fill:none;stroke:rgb(239,158,32);stroke-width:1.3px;"/>
            <path d="M282.368,283.754L299.494,283.754C301.515,283.754 303.165,285.404 303.165,287.425L303.165,329.85C303.165,331.86 301.515,333.521 299.494,333.521L277.582,333.521" style="fill:none;stroke:rgb(239,158,32);stroke-width:1.3px;"/>
            <path d="M303.165,322.741C303.165,324.45 301.769,325.855 300.061,325.855L240.011,325.855C238.303,325.855 236.906,324.45 236.906,322.741" style="fill:none;stroke:rgb(239,158,32);stroke-width:1.3px;"/>
            <path d="M259.354,345.472L262.497,333.521L277.582,333.521L280.726,345.472" style="fill:none;stroke:rgb(239,158,32);stroke-width:1.3px;"/>
            <path d="M270.036,328.297C270.808,328.297 271.422,328.922 271.422,329.693C271.422,330.455 270.808,331.07 270.036,331.07C269.274,331.07 268.649,330.455 268.649,329.693C268.649,328.922 269.274,328.297 270.036,328.297Z" style="fill:none;stroke:rgb(239,158,32);stroke-width:1.3px;"/>
            <path d="M280.726,345.472L287.553,345.472L287.553,349.231L252.519,349.231L252.519,345.472L280.726,345.472Z" style="fill:none;stroke:rgb(239,158,32);stroke-width:1.3px;"/>
            <path d="M269.84,282.444C273.375,282.444 276.236,285.316 276.236,288.841C276.236,292.365 273.375,295.236 269.84,295.236C266.316,295.236 263.454,292.365 263.454,288.841C263.454,285.316 266.316,282.444 269.84,282.444Z" style="fill:none;stroke:rgb(239,158,32);stroke-width:1.3px;"/>
            <path d="M257.321,283.754L257.946,284.242C257.625,285.081 257.381,285.951 257.243,286.868L252.43,287.592L252.43,290.09L257.243,290.813C257.381,291.711 257.625,292.6 257.946,293.429L254.139,296.467L255.391,298.634L259.92,296.847C260.486,297.539 261.131,298.194 261.834,298.761L260.058,303.292L262.223,304.542L265.252,300.742C266.09,301.064 266.958,301.29 267.867,301.436L268.591,306.25L271.09,306.25L271.823,301.436C272.72,301.29 273.598,301.064 274.438,300.742L277.465,304.542L279.634,303.292L277.846,298.761C278.56,298.194 279.194,297.539 279.761,296.847L284.3,298.624L285.55,296.467L281.741,293.429C282.063,292.6 282.3,291.711 282.444,290.813L287.258,290.081L287.258,288.841L287.258,287.592L282.444,286.868C282.3,285.951 282.063,285.081 281.741,284.242L282.368,283.754L285.55,281.215L284.3,279.048L279.761,280.834C279.194,280.121 278.56,279.486 277.846,278.91L279.634,274.379L277.465,273.13L274.438,276.938C273.598,276.616 272.72,276.371 271.823,276.244L271.09,271.421L268.591,271.421L267.867,276.244C266.958,276.371 266.09,276.616 265.252,276.938L262.223,273.13L260.058,274.379L261.834,278.91C261.131,279.486 260.486,280.121 259.92,280.834L255.391,279.048L254.139,281.215L257.321,283.754Z" style="fill:none;stroke:rgb(239,158,32);stroke-width:1.3px;"/>
            <path d="M264.811,312.332L274.888,312.332L274.888,318.016L264.811,318.016L264.811,312.332Z" style="fill:none;stroke:rgb(239,158,32);stroke-width:1.3px;"/>
            <path d="M290.755,313.729L295.851,313.729L295.851,316.601L290.755,316.601L290.755,315.175L290.755,313.729Z" style="fill:none;stroke:rgb(239,158,32);stroke-width:1.3px;"/>
            <path d="M274.888,315.175L290.755,315.175" style="fill:none;stroke:rgb(239,158,32);stroke-width:1.3px;"/>
            <path d="M248.916,313.729L243.81,313.729L243.81,316.601L248.916,316.601L248.916,315.175L248.916,313.729Z" style="fill:none;stroke:rgb(239,158,32);stroke-width:1.3px;"/>
            <path d="M264.772,315.175L248.916,315.175" style="fill:none;stroke:rgb(239,158,32);stroke-width:1.3px;"/>
        </g>
    </g>
</svg>
